G75*
%MOIN*%
%OFA0B0*%
%FSLAX24Y24*%
%IPPOS*%
%LPD*%
%AMOC8*
5,1,8,0,0,1.08239X$1,22.5*
%
%ADD10C,0.0160*%
%ADD11C,0.0260*%
%ADD12C,0.0130*%
%ADD13C,0.0180*%
%ADD14OC8,0.0750*%
%ADD15C,0.0520*%
%ADD16C,0.0740*%
%ADD17C,0.0600*%
%ADD18C,0.0515*%
%ADD19R,0.0320X0.0120*%
%ADD20R,0.0670X0.0830*%
%ADD21C,0.0600*%
%ADD22C,0.0100*%
%ADD23R,0.0396X0.0396*%
%ADD24C,0.0120*%
%ADD25C,0.0760*%
%ADD26R,0.0436X0.0436*%
%ADD27R,0.0357X0.0357*%
D10*
X002851Y001160D02*
X002853Y001207D01*
X002859Y001253D01*
X002869Y001299D01*
X002882Y001344D01*
X002899Y001387D01*
X002920Y001429D01*
X002944Y001469D01*
X002972Y001507D01*
X003003Y001543D01*
X003036Y001575D01*
X003072Y001605D01*
X003110Y001632D01*
X003151Y001655D01*
X003193Y001675D01*
X003237Y001692D01*
X003282Y001704D01*
X003328Y001713D01*
X003375Y001718D01*
X003422Y001719D01*
X003468Y001716D01*
X003515Y001709D01*
X003560Y001698D01*
X003605Y001684D01*
X003648Y001666D01*
X003689Y001644D01*
X003729Y001619D01*
X003766Y001591D01*
X003801Y001559D01*
X003833Y001525D01*
X003862Y001489D01*
X003888Y001450D01*
X003911Y001409D01*
X003930Y001366D01*
X003945Y001322D01*
X003957Y001276D01*
X003965Y001230D01*
X003969Y001183D01*
X003969Y001137D01*
X003965Y001090D01*
X003957Y001044D01*
X003945Y000998D01*
X003930Y000954D01*
X003911Y000911D01*
X003888Y000870D01*
X003862Y000831D01*
X003833Y000795D01*
X003801Y000761D01*
X003766Y000729D01*
X003729Y000701D01*
X003690Y000676D01*
X003648Y000654D01*
X003605Y000636D01*
X003560Y000622D01*
X003515Y000611D01*
X003468Y000604D01*
X003422Y000601D01*
X003375Y000602D01*
X003328Y000607D01*
X003282Y000616D01*
X003237Y000628D01*
X003193Y000645D01*
X003151Y000665D01*
X003110Y000688D01*
X003072Y000715D01*
X003036Y000745D01*
X003003Y000777D01*
X002972Y000813D01*
X002944Y000851D01*
X002920Y000891D01*
X002899Y000933D01*
X002882Y000976D01*
X002869Y001021D01*
X002859Y001067D01*
X002853Y001113D01*
X002851Y001160D01*
X004410Y000660D02*
X004410Y002410D01*
X005910Y003910D01*
X006410Y003660D02*
X006410Y008160D01*
X006910Y008660D01*
X008910Y008660D02*
X008910Y006660D01*
X009410Y006160D01*
X009910Y005160D02*
X008410Y003660D01*
X007160Y003660D01*
X006910Y003410D01*
X006410Y003660D02*
X005910Y003160D01*
X005910Y002910D01*
X004910Y001910D01*
X004910Y001160D01*
X006910Y001160D01*
X007910Y002160D01*
X009410Y002160D01*
X010660Y003410D01*
X024910Y003410D01*
X023910Y002910D02*
X017410Y002910D01*
X019660Y002410D02*
X024910Y002410D01*
X025910Y002910D01*
X025910Y005160D01*
X021910Y005160D01*
X020410Y006660D01*
X019910Y007160D01*
X014410Y007160D01*
X014410Y010160D01*
X014410Y012660D01*
X013910Y013160D01*
X013910Y014160D01*
X012910Y014160D01*
X011910Y014160D02*
X011910Y012660D01*
X012910Y011660D01*
X013910Y010660D02*
X014410Y010160D01*
X014910Y010160D02*
X018410Y010160D01*
X019410Y009160D01*
X019410Y008160D01*
X020410Y008160D01*
X022410Y006160D01*
X024110Y007910D02*
X024110Y009660D01*
X024160Y007910D02*
X024110Y007910D01*
X024730Y007810D02*
X025660Y007810D01*
X026851Y005160D02*
X026853Y005207D01*
X026859Y005253D01*
X026869Y005299D01*
X026882Y005344D01*
X026899Y005387D01*
X026920Y005429D01*
X026944Y005469D01*
X026972Y005507D01*
X027003Y005543D01*
X027036Y005575D01*
X027072Y005605D01*
X027110Y005632D01*
X027151Y005655D01*
X027193Y005675D01*
X027237Y005692D01*
X027282Y005704D01*
X027328Y005713D01*
X027375Y005718D01*
X027422Y005719D01*
X027468Y005716D01*
X027515Y005709D01*
X027560Y005698D01*
X027605Y005684D01*
X027648Y005666D01*
X027689Y005644D01*
X027729Y005619D01*
X027766Y005591D01*
X027801Y005559D01*
X027833Y005525D01*
X027862Y005489D01*
X027888Y005450D01*
X027911Y005409D01*
X027930Y005366D01*
X027945Y005322D01*
X027957Y005276D01*
X027965Y005230D01*
X027969Y005183D01*
X027969Y005137D01*
X027965Y005090D01*
X027957Y005044D01*
X027945Y004998D01*
X027930Y004954D01*
X027911Y004911D01*
X027888Y004870D01*
X027862Y004831D01*
X027833Y004795D01*
X027801Y004761D01*
X027766Y004729D01*
X027729Y004701D01*
X027690Y004676D01*
X027648Y004654D01*
X027605Y004636D01*
X027560Y004622D01*
X027515Y004611D01*
X027468Y004604D01*
X027422Y004601D01*
X027375Y004602D01*
X027328Y004607D01*
X027282Y004616D01*
X027237Y004628D01*
X027193Y004645D01*
X027151Y004665D01*
X027110Y004688D01*
X027072Y004715D01*
X027036Y004745D01*
X027003Y004777D01*
X026972Y004813D01*
X026944Y004851D01*
X026920Y004891D01*
X026899Y004933D01*
X026882Y004976D01*
X026869Y005021D01*
X026859Y005067D01*
X026853Y005113D01*
X026851Y005160D01*
X023910Y003910D02*
X010160Y003910D01*
X009410Y003160D01*
X008910Y002660D01*
X007160Y002660D01*
X006910Y002410D01*
X007910Y001160D02*
X007410Y000660D01*
X004410Y000660D01*
X007910Y001160D02*
X009410Y001160D01*
X010660Y002410D01*
X024910Y002410D01*
X026851Y001160D02*
X026853Y001207D01*
X026859Y001253D01*
X026869Y001299D01*
X026882Y001344D01*
X026899Y001387D01*
X026920Y001429D01*
X026944Y001469D01*
X026972Y001507D01*
X027003Y001543D01*
X027036Y001575D01*
X027072Y001605D01*
X027110Y001632D01*
X027151Y001655D01*
X027193Y001675D01*
X027237Y001692D01*
X027282Y001704D01*
X027328Y001713D01*
X027375Y001718D01*
X027422Y001719D01*
X027468Y001716D01*
X027515Y001709D01*
X027560Y001698D01*
X027605Y001684D01*
X027648Y001666D01*
X027689Y001644D01*
X027729Y001619D01*
X027766Y001591D01*
X027801Y001559D01*
X027833Y001525D01*
X027862Y001489D01*
X027888Y001450D01*
X027911Y001409D01*
X027930Y001366D01*
X027945Y001322D01*
X027957Y001276D01*
X027965Y001230D01*
X027969Y001183D01*
X027969Y001137D01*
X027965Y001090D01*
X027957Y001044D01*
X027945Y000998D01*
X027930Y000954D01*
X027911Y000911D01*
X027888Y000870D01*
X027862Y000831D01*
X027833Y000795D01*
X027801Y000761D01*
X027766Y000729D01*
X027729Y000701D01*
X027690Y000676D01*
X027648Y000654D01*
X027605Y000636D01*
X027560Y000622D01*
X027515Y000611D01*
X027468Y000604D01*
X027422Y000601D01*
X027375Y000602D01*
X027328Y000607D01*
X027282Y000616D01*
X027237Y000628D01*
X027193Y000645D01*
X027151Y000665D01*
X027110Y000688D01*
X027072Y000715D01*
X027036Y000745D01*
X027003Y000777D01*
X026972Y000813D01*
X026944Y000851D01*
X026920Y000891D01*
X026899Y000933D01*
X026882Y000976D01*
X026869Y001021D01*
X026859Y001067D01*
X026853Y001113D01*
X026851Y001160D01*
X017410Y005160D02*
X017360Y005160D01*
X011910Y005160D01*
X011910Y008660D01*
X010410Y008660D01*
X010410Y011160D01*
X010910Y011660D01*
X009410Y013160D01*
X009410Y014160D01*
X010910Y014160D01*
X009410Y014160D02*
X009410Y016160D01*
X006910Y014160D02*
X011910Y021160D01*
X026410Y021160D01*
X028910Y018660D01*
X028910Y017660D01*
X026410Y017660D01*
X025910Y018160D01*
X023910Y018160D01*
X024910Y017660D02*
X022910Y017660D01*
X022410Y018160D01*
X017410Y018160D01*
X015410Y020160D01*
X016410Y020160D02*
X017910Y018660D01*
X027410Y018660D01*
X027910Y018160D01*
X027910Y017160D02*
X024910Y017160D01*
X024910Y017660D01*
X024410Y016660D02*
X023910Y017160D01*
X024410Y016660D02*
X028910Y016660D01*
X029910Y015660D01*
X029410Y015160D02*
X029410Y012660D01*
X029410Y015160D02*
X028410Y016160D01*
X027910Y016160D01*
X027910Y015160D02*
X023910Y015160D01*
X016910Y016160D02*
X016910Y017160D01*
X015910Y018160D01*
X014410Y019660D01*
X014410Y020160D01*
X013910Y016160D02*
X012410Y016160D01*
X013910Y016160D02*
X013910Y014160D01*
X013910Y010660D02*
X010910Y010660D01*
X010910Y008660D01*
X014910Y008660D02*
X014910Y010160D01*
X011910Y005160D02*
X009910Y005160D01*
X002851Y005160D02*
X002853Y005207D01*
X002859Y005253D01*
X002869Y005299D01*
X002882Y005344D01*
X002899Y005387D01*
X002920Y005429D01*
X002944Y005469D01*
X002972Y005507D01*
X003003Y005543D01*
X003036Y005575D01*
X003072Y005605D01*
X003110Y005632D01*
X003151Y005655D01*
X003193Y005675D01*
X003237Y005692D01*
X003282Y005704D01*
X003328Y005713D01*
X003375Y005718D01*
X003422Y005719D01*
X003468Y005716D01*
X003515Y005709D01*
X003560Y005698D01*
X003605Y005684D01*
X003648Y005666D01*
X003689Y005644D01*
X003729Y005619D01*
X003766Y005591D01*
X003801Y005559D01*
X003833Y005525D01*
X003862Y005489D01*
X003888Y005450D01*
X003911Y005409D01*
X003930Y005366D01*
X003945Y005322D01*
X003957Y005276D01*
X003965Y005230D01*
X003969Y005183D01*
X003969Y005137D01*
X003965Y005090D01*
X003957Y005044D01*
X003945Y004998D01*
X003930Y004954D01*
X003911Y004911D01*
X003888Y004870D01*
X003862Y004831D01*
X003833Y004795D01*
X003801Y004761D01*
X003766Y004729D01*
X003729Y004701D01*
X003690Y004676D01*
X003648Y004654D01*
X003605Y004636D01*
X003560Y004622D01*
X003515Y004611D01*
X003468Y004604D01*
X003422Y004601D01*
X003375Y004602D01*
X003328Y004607D01*
X003282Y004616D01*
X003237Y004628D01*
X003193Y004645D01*
X003151Y004665D01*
X003110Y004688D01*
X003072Y004715D01*
X003036Y004745D01*
X003003Y004777D01*
X002972Y004813D01*
X002944Y004851D01*
X002920Y004891D01*
X002899Y004933D01*
X002882Y004976D01*
X002869Y005021D01*
X002859Y005067D01*
X002853Y005113D01*
X002851Y005160D01*
X006910Y011660D02*
X006910Y014160D01*
D11*
X004781Y011736D02*
X003954Y010909D01*
X004161Y011116D02*
X003540Y011736D01*
X003540Y010909D02*
X004781Y010909D01*
X004574Y010355D02*
X004367Y010355D01*
X004161Y010148D01*
X003954Y010355D01*
X003747Y010355D01*
X003540Y010148D01*
X003540Y009734D01*
X003747Y009528D01*
X004161Y009941D02*
X004161Y010148D01*
X004574Y010355D02*
X004781Y010148D01*
X004781Y009734D01*
X004574Y009528D01*
X004574Y008974D02*
X004161Y008974D01*
X003954Y008767D01*
X003954Y008146D01*
X003540Y008146D02*
X004781Y008146D01*
X004781Y008767D01*
X004574Y008974D01*
X003954Y008560D02*
X003540Y008974D01*
X003747Y007593D02*
X003540Y007386D01*
X003540Y006765D01*
X004781Y006765D01*
X004781Y007386D01*
X004574Y007593D01*
X004367Y007593D01*
X004161Y007386D01*
X004161Y006765D01*
X004161Y007386D02*
X003954Y007593D01*
X003747Y007593D01*
D12*
X002846Y007596D02*
X002724Y007474D01*
X002237Y007474D01*
X002115Y007596D01*
X002115Y007839D01*
X002237Y007961D01*
X002724Y007961D02*
X002846Y007839D01*
X002846Y007596D01*
X002846Y007169D02*
X002115Y007169D01*
X001556Y007169D02*
X001069Y007169D01*
X000825Y006925D01*
X001069Y006682D01*
X001556Y006682D01*
X002115Y006682D02*
X002846Y006682D01*
X002480Y006682D02*
X002480Y007169D01*
X001556Y007717D02*
X000825Y007717D01*
X000825Y007474D02*
X000825Y007961D01*
X000825Y008266D02*
X000825Y008387D01*
X000947Y008387D01*
X000947Y008266D01*
X000825Y008266D01*
X000947Y008662D02*
X001434Y009149D01*
X000947Y009149D01*
X000825Y009027D01*
X000825Y008783D01*
X000947Y008662D01*
X001434Y008662D01*
X001556Y008783D01*
X001556Y009027D01*
X001434Y009149D01*
X002115Y009179D02*
X002115Y009423D01*
X002237Y009545D01*
X002359Y009545D01*
X002480Y009423D01*
X002480Y009179D01*
X002602Y009057D01*
X002724Y009057D01*
X002846Y009179D01*
X002846Y009423D01*
X002724Y009545D01*
X002846Y009849D02*
X002115Y009849D01*
X002359Y009849D02*
X002359Y010215D01*
X002480Y010336D01*
X002724Y010336D01*
X002846Y010215D01*
X002846Y009849D01*
X002359Y010093D02*
X002115Y010336D01*
X002237Y010641D02*
X002724Y011128D01*
X002237Y011128D01*
X002115Y011007D01*
X002115Y010763D01*
X002237Y010641D01*
X002724Y010641D01*
X002846Y010763D01*
X002846Y011007D01*
X002724Y011128D01*
X002480Y011433D02*
X002480Y011920D01*
X002115Y011798D02*
X002846Y011798D01*
X002480Y011433D01*
X002115Y009179D02*
X002237Y009057D01*
X002480Y008753D02*
X002480Y008266D01*
X001556Y007717D02*
X001312Y007474D01*
X001396Y016225D02*
X001274Y016347D01*
X001396Y016225D02*
X001639Y016225D01*
X001761Y016347D01*
X001761Y016834D01*
X001639Y016956D01*
X001396Y016956D01*
X001274Y016834D01*
X002066Y016834D02*
X002188Y016956D01*
X002431Y016956D01*
X002553Y016834D01*
X002553Y016347D01*
X002431Y016225D01*
X002188Y016225D01*
X002066Y016347D01*
X002858Y016469D02*
X002858Y016956D01*
X003345Y016956D02*
X003345Y016469D01*
X003101Y016225D01*
X002858Y016469D01*
X002980Y017515D02*
X002858Y017637D01*
X002858Y017880D01*
X003101Y017880D01*
X002858Y018124D02*
X002980Y018246D01*
X003223Y018246D01*
X003345Y018124D01*
X003345Y017637D01*
X003223Y017515D01*
X002980Y017515D01*
X002553Y017515D02*
X002553Y018246D01*
X002066Y017515D01*
X002066Y018246D01*
X001761Y018246D02*
X001396Y018246D01*
X001274Y018124D01*
X001274Y017637D01*
X001396Y017515D01*
X001761Y017515D01*
X001761Y018246D01*
X004698Y018246D02*
X004698Y017515D01*
X004941Y017515D01*
X005246Y017880D02*
X005733Y017880D01*
X006038Y017880D02*
X006525Y017880D01*
X006830Y018246D02*
X007317Y017515D01*
X007601Y017515D02*
X007845Y017515D01*
X007845Y018246D01*
X007601Y018246D01*
X007317Y018246D02*
X006830Y017515D01*
X007601Y016956D02*
X007845Y016956D01*
X007845Y016225D01*
X007601Y016225D01*
X007317Y016590D02*
X006830Y016590D01*
X006525Y016590D02*
X006038Y016590D01*
X005733Y016956D02*
X005246Y016225D01*
X004941Y016225D02*
X004698Y016225D01*
X004698Y016956D01*
X004941Y016956D01*
X005246Y016956D02*
X005733Y016225D01*
X004941Y018246D02*
X004698Y018246D01*
D13*
X004899Y019250D02*
X004489Y019250D01*
X004352Y019387D01*
X004352Y019934D01*
X004489Y020071D01*
X004899Y020071D01*
X004899Y019250D01*
X005273Y019250D02*
X005273Y019797D01*
X005546Y020071D01*
X005820Y019797D01*
X005820Y019250D01*
X005820Y019660D02*
X005273Y019660D01*
X003978Y019387D02*
X003431Y019934D01*
X003431Y019387D01*
X003568Y019250D01*
X003842Y019250D01*
X003978Y019387D01*
X003978Y019934D01*
X003842Y020071D01*
X003568Y020071D01*
X003431Y019934D01*
X003058Y019797D02*
X003058Y019660D01*
X002921Y019660D01*
X002921Y019797D01*
X003058Y019797D01*
X003058Y019387D02*
X003058Y019250D01*
X002921Y019250D01*
X002921Y019387D01*
X003058Y019387D01*
D14*
X009410Y016160D03*
X012410Y016160D03*
X013910Y016160D03*
X016910Y016160D03*
X018910Y014160D03*
X021910Y014160D03*
X027910Y011160D03*
X027910Y008160D03*
D15*
X015910Y008400D02*
X015910Y008920D01*
X014910Y008920D02*
X014910Y008400D01*
X013910Y008400D02*
X013910Y008920D01*
X012910Y008920D02*
X012910Y008400D01*
X011910Y008400D02*
X011910Y008920D01*
X010910Y008920D02*
X010910Y008400D01*
X009910Y008400D02*
X009910Y008920D01*
X008910Y008920D02*
X008910Y008400D01*
X007910Y008400D02*
X007910Y008920D01*
X006910Y008920D02*
X006910Y008400D01*
X006910Y011400D02*
X006910Y011920D01*
X007910Y011920D02*
X007910Y011400D01*
X008910Y011400D02*
X008910Y011920D01*
X009910Y011920D02*
X009910Y011400D01*
X010910Y011400D02*
X010910Y011920D01*
X011910Y011920D02*
X011910Y011400D01*
X012910Y011400D02*
X012910Y011920D01*
X013910Y011920D02*
X013910Y011400D01*
X014910Y011400D02*
X014910Y011920D01*
X015910Y011920D02*
X015910Y011400D01*
D16*
X006910Y004410D03*
X005910Y003910D03*
X006910Y003410D03*
X005910Y002910D03*
X006910Y002410D03*
X005910Y001910D03*
X023910Y001910D03*
X024910Y002410D03*
X023910Y002910D03*
X024910Y003410D03*
X023910Y003910D03*
X024910Y004410D03*
D17*
X017410Y019860D02*
X017410Y020460D01*
X016410Y020460D02*
X016410Y019860D01*
X015410Y019860D02*
X015410Y020460D01*
X014410Y020460D02*
X014410Y019860D01*
D18*
X023910Y018160D03*
X023910Y017160D03*
X023910Y016160D03*
X023910Y015160D03*
X023910Y014160D03*
X023910Y013160D03*
X027910Y013160D03*
X027910Y014160D03*
X027910Y015160D03*
X027910Y016160D03*
X027910Y017160D03*
X027910Y018160D03*
D19*
X024730Y008300D03*
X024730Y008110D03*
X024730Y007910D03*
X024730Y007710D03*
X024730Y007520D03*
X023590Y007520D03*
X023590Y007710D03*
X023590Y007910D03*
X023590Y008110D03*
X023590Y008300D03*
D20*
X024160Y007910D03*
D21*
X012910Y014160D03*
X011910Y014160D03*
X010910Y014160D03*
D22*
X009410Y016160D02*
X011410Y018160D01*
X015910Y018160D01*
X017910Y017160D02*
X021910Y017160D01*
X023910Y015160D01*
X022910Y015160D01*
X021910Y014160D01*
X022610Y013460D01*
X022610Y009660D01*
X023460Y009660D01*
X023460Y008300D01*
X023590Y008300D01*
X023590Y007710D02*
X023590Y007520D01*
X023590Y006680D01*
X023610Y006460D01*
X022510Y006460D01*
X021410Y007660D01*
X021410Y008660D01*
X019910Y008660D01*
X019910Y013160D01*
X018910Y014160D01*
X018910Y015910D01*
X017910Y017160D02*
X016910Y016160D01*
X017410Y020160D02*
X018910Y020160D01*
X023910Y016160D02*
X024910Y016160D01*
X025410Y015660D01*
X028410Y015660D01*
X028610Y015460D01*
X028610Y012460D01*
X028410Y012260D01*
X025710Y012260D01*
X027910Y011160D02*
X028760Y010160D01*
X028760Y007660D01*
X028710Y007610D01*
X028620Y007520D01*
X029410Y007310D02*
X029410Y012660D01*
X024730Y009340D02*
X024410Y009660D01*
X024110Y009660D01*
X023460Y009660D01*
X024730Y009340D02*
X024730Y008300D01*
X024730Y007910D02*
X024730Y007810D01*
X024730Y007710D01*
X023590Y007520D02*
X023530Y007460D01*
X023010Y006860D02*
X022660Y007010D01*
X021760Y007910D01*
X021760Y008010D01*
X021760Y008710D01*
X021810Y008760D01*
X021410Y009160D01*
X020410Y009160D01*
X027860Y008110D02*
X027910Y008160D01*
D23*
X017360Y005160D03*
X017410Y002910D03*
D24*
X000160Y000160D02*
X000160Y022160D01*
X030610Y022160D01*
X030610Y000160D01*
X000160Y000160D01*
X021760Y008010D02*
X021760Y008110D01*
X023590Y008110D01*
X023590Y007910D02*
X024160Y007910D01*
X024730Y008110D02*
X025110Y008110D01*
X025510Y008510D01*
X027560Y008510D01*
X027910Y008160D01*
X028510Y007410D02*
X028710Y007610D01*
X028510Y007410D02*
X025210Y007410D01*
X025100Y007520D01*
X024730Y007520D01*
X023610Y006460D02*
X026260Y006460D01*
X029410Y007310D01*
X029910Y007010D02*
X029910Y015660D01*
X029910Y007010D02*
X026410Y006160D01*
X022410Y006160D01*
D25*
X009410Y006160D03*
X009410Y006160D03*
X009410Y003160D03*
X018910Y015910D03*
X018910Y020160D03*
X018910Y020160D03*
D26*
X020410Y009160D03*
X020410Y009160D03*
X020410Y006660D03*
D27*
X023010Y006860D03*
X024260Y006860D03*
X025660Y006860D03*
X025660Y007810D03*
X025660Y007810D03*
X025710Y012260D03*
X025710Y012260D03*
M02*
