G75*
%MOIN*%
%OFA0B0*%
%FSLAX24Y24*%
%IPPOS*%
%LPD*%
%AMOC8*
5,1,8,0,0,1.08239X$1,22.5*
%
%ADD10OC8,0.0750*%
%ADD11C,0.0520*%
%ADD12C,0.0476*%
%ADD13C,0.0600*%
%ADD14C,0.0515*%
%ADD15C,0.0600*%
%ADD16R,0.0400X0.0400*%
%ADD17C,0.0120*%
%ADD18C,0.0760*%
%ADD19C,0.0100*%
%ADD20R,0.0436X0.0436*%
%ADD21C,0.0160*%
D10*
X018910Y014160D03*
X016910Y016160D03*
X013910Y016160D03*
X012410Y016160D03*
X009410Y016160D03*
X021910Y014160D03*
X027910Y011160D03*
X027910Y008160D03*
D11*
X015910Y008400D02*
X015910Y008920D01*
X014910Y008920D02*
X014910Y008400D01*
X013910Y008400D02*
X013910Y008920D01*
X012910Y008920D02*
X012910Y008400D01*
X011910Y008400D02*
X011910Y008920D01*
X010910Y008920D02*
X010910Y008400D01*
X009910Y008400D02*
X009910Y008920D01*
X008910Y008920D02*
X008910Y008400D01*
X007910Y008400D02*
X007910Y008920D01*
X006910Y008920D02*
X006910Y008400D01*
X006910Y011400D02*
X006910Y011920D01*
X007910Y011920D02*
X007910Y011400D01*
X008910Y011400D02*
X008910Y011920D01*
X009910Y011920D02*
X009910Y011400D01*
X010910Y011400D02*
X010910Y011920D01*
X011910Y011920D02*
X011910Y011400D01*
X012910Y011400D02*
X012910Y011920D01*
X013910Y011920D02*
X013910Y011400D01*
X014910Y011400D02*
X014910Y011920D01*
X015910Y011920D02*
X015910Y011400D01*
D12*
X006148Y001910D02*
X005672Y001910D01*
X006672Y002410D02*
X007148Y002410D01*
X006148Y002910D02*
X005672Y002910D01*
X006672Y003410D02*
X007148Y003410D01*
X007148Y004410D02*
X006672Y004410D01*
X006148Y003910D02*
X005672Y003910D01*
X023672Y003910D02*
X024148Y003910D01*
X024672Y003410D02*
X025148Y003410D01*
X024148Y002910D02*
X023672Y002910D01*
X024672Y002410D02*
X025148Y002410D01*
X024148Y001910D02*
X023672Y001910D01*
X024672Y004410D02*
X025148Y004410D01*
D13*
X017410Y019860D02*
X017410Y020460D01*
X016410Y020460D02*
X016410Y019860D01*
X015410Y019860D02*
X015410Y020460D01*
X014410Y020460D02*
X014410Y019860D01*
D14*
X023910Y018160D03*
X023910Y017160D03*
X023910Y016160D03*
X023910Y015160D03*
X023910Y014160D03*
X023910Y013160D03*
X027910Y013160D03*
X027910Y014160D03*
X027910Y015160D03*
X027910Y016160D03*
X027910Y017160D03*
X027910Y018160D03*
D15*
X012910Y014160D03*
X011910Y014160D03*
X010910Y014160D03*
D16*
X023010Y006860D03*
X024260Y006860D03*
X025660Y006860D03*
X025660Y007810D03*
X025660Y012260D03*
X017360Y005160D03*
X017410Y002910D03*
D17*
X017410Y005110D01*
X017360Y005160D01*
X024260Y006860D02*
X025660Y006860D01*
X025660Y007810D01*
D18*
X018910Y015910D03*
X018910Y020160D03*
X009410Y006160D03*
X009410Y003160D03*
D19*
X020410Y006660D02*
X020410Y009160D01*
X023010Y006860D02*
X024260Y006860D01*
X025660Y007810D02*
X025660Y012260D01*
X018910Y015910D02*
X018910Y020160D01*
D20*
X020410Y009160D03*
X020410Y006660D03*
D21*
X009410Y006160D02*
X009410Y003160D01*
M02*
