G75*
%MOIN*%
%OFA0B0*%
%FSLAX24Y24*%
%IPPOS*%
%LPD*%
%AMOC8*
5,1,8,0,0,1.08239X$1,22.5*
%
%ADD10C,0.0000*%
%ADD11C,0.0060*%
%ADD12C,0.0050*%
%ADD13C,0.0030*%
%ADD14C,0.0080*%
D10*
X000160Y000160D02*
X000160Y010156D01*
X025905Y010156D01*
X025905Y000160D01*
X000160Y000160D01*
X002895Y003160D02*
X002897Y003210D01*
X002903Y003260D01*
X002913Y003309D01*
X002926Y003358D01*
X002944Y003405D01*
X002965Y003451D01*
X002989Y003494D01*
X003017Y003536D01*
X003048Y003576D01*
X003082Y003613D01*
X003119Y003647D01*
X003159Y003678D01*
X003201Y003706D01*
X003244Y003730D01*
X003290Y003751D01*
X003337Y003769D01*
X003386Y003782D01*
X003435Y003792D01*
X003485Y003798D01*
X003535Y003800D01*
X003585Y003798D01*
X003635Y003792D01*
X003684Y003782D01*
X003733Y003769D01*
X003780Y003751D01*
X003826Y003730D01*
X003869Y003706D01*
X003911Y003678D01*
X003951Y003647D01*
X003988Y003613D01*
X004022Y003576D01*
X004053Y003536D01*
X004081Y003494D01*
X004105Y003451D01*
X004126Y003405D01*
X004144Y003358D01*
X004157Y003309D01*
X004167Y003260D01*
X004173Y003210D01*
X004175Y003160D01*
X004173Y003110D01*
X004167Y003060D01*
X004157Y003011D01*
X004144Y002962D01*
X004126Y002915D01*
X004105Y002869D01*
X004081Y002826D01*
X004053Y002784D01*
X004022Y002744D01*
X003988Y002707D01*
X003951Y002673D01*
X003911Y002642D01*
X003869Y002614D01*
X003826Y002590D01*
X003780Y002569D01*
X003733Y002551D01*
X003684Y002538D01*
X003635Y002528D01*
X003585Y002522D01*
X003535Y002520D01*
X003485Y002522D01*
X003435Y002528D01*
X003386Y002538D01*
X003337Y002551D01*
X003290Y002569D01*
X003244Y002590D01*
X003201Y002614D01*
X003159Y002642D01*
X003119Y002673D01*
X003082Y002707D01*
X003048Y002744D01*
X003017Y002784D01*
X002989Y002826D01*
X002965Y002869D01*
X002944Y002915D01*
X002926Y002962D01*
X002913Y003011D01*
X002903Y003060D01*
X002897Y003110D01*
X002895Y003160D01*
X002895Y007160D02*
X002897Y007210D01*
X002903Y007260D01*
X002913Y007309D01*
X002926Y007358D01*
X002944Y007405D01*
X002965Y007451D01*
X002989Y007494D01*
X003017Y007536D01*
X003048Y007576D01*
X003082Y007613D01*
X003119Y007647D01*
X003159Y007678D01*
X003201Y007706D01*
X003244Y007730D01*
X003290Y007751D01*
X003337Y007769D01*
X003386Y007782D01*
X003435Y007792D01*
X003485Y007798D01*
X003535Y007800D01*
X003585Y007798D01*
X003635Y007792D01*
X003684Y007782D01*
X003733Y007769D01*
X003780Y007751D01*
X003826Y007730D01*
X003869Y007706D01*
X003911Y007678D01*
X003951Y007647D01*
X003988Y007613D01*
X004022Y007576D01*
X004053Y007536D01*
X004081Y007494D01*
X004105Y007451D01*
X004126Y007405D01*
X004144Y007358D01*
X004157Y007309D01*
X004167Y007260D01*
X004173Y007210D01*
X004175Y007160D01*
X004173Y007110D01*
X004167Y007060D01*
X004157Y007011D01*
X004144Y006962D01*
X004126Y006915D01*
X004105Y006869D01*
X004081Y006826D01*
X004053Y006784D01*
X004022Y006744D01*
X003988Y006707D01*
X003951Y006673D01*
X003911Y006642D01*
X003869Y006614D01*
X003826Y006590D01*
X003780Y006569D01*
X003733Y006551D01*
X003684Y006538D01*
X003635Y006528D01*
X003585Y006522D01*
X003535Y006520D01*
X003485Y006522D01*
X003435Y006528D01*
X003386Y006538D01*
X003337Y006551D01*
X003290Y006569D01*
X003244Y006590D01*
X003201Y006614D01*
X003159Y006642D01*
X003119Y006673D01*
X003082Y006707D01*
X003048Y006744D01*
X003017Y006784D01*
X002989Y006826D01*
X002965Y006869D01*
X002944Y006915D01*
X002926Y006962D01*
X002913Y007011D01*
X002903Y007060D01*
X002897Y007110D01*
X002895Y007160D01*
X021895Y007160D02*
X021897Y007210D01*
X021903Y007260D01*
X021913Y007309D01*
X021926Y007358D01*
X021944Y007405D01*
X021965Y007451D01*
X021989Y007494D01*
X022017Y007536D01*
X022048Y007576D01*
X022082Y007613D01*
X022119Y007647D01*
X022159Y007678D01*
X022201Y007706D01*
X022244Y007730D01*
X022290Y007751D01*
X022337Y007769D01*
X022386Y007782D01*
X022435Y007792D01*
X022485Y007798D01*
X022535Y007800D01*
X022585Y007798D01*
X022635Y007792D01*
X022684Y007782D01*
X022733Y007769D01*
X022780Y007751D01*
X022826Y007730D01*
X022869Y007706D01*
X022911Y007678D01*
X022951Y007647D01*
X022988Y007613D01*
X023022Y007576D01*
X023053Y007536D01*
X023081Y007494D01*
X023105Y007451D01*
X023126Y007405D01*
X023144Y007358D01*
X023157Y007309D01*
X023167Y007260D01*
X023173Y007210D01*
X023175Y007160D01*
X023173Y007110D01*
X023167Y007060D01*
X023157Y007011D01*
X023144Y006962D01*
X023126Y006915D01*
X023105Y006869D01*
X023081Y006826D01*
X023053Y006784D01*
X023022Y006744D01*
X022988Y006707D01*
X022951Y006673D01*
X022911Y006642D01*
X022869Y006614D01*
X022826Y006590D01*
X022780Y006569D01*
X022733Y006551D01*
X022684Y006538D01*
X022635Y006528D01*
X022585Y006522D01*
X022535Y006520D01*
X022485Y006522D01*
X022435Y006528D01*
X022386Y006538D01*
X022337Y006551D01*
X022290Y006569D01*
X022244Y006590D01*
X022201Y006614D01*
X022159Y006642D01*
X022119Y006673D01*
X022082Y006707D01*
X022048Y006744D01*
X022017Y006784D01*
X021989Y006826D01*
X021965Y006869D01*
X021944Y006915D01*
X021926Y006962D01*
X021913Y007011D01*
X021903Y007060D01*
X021897Y007110D01*
X021895Y007160D01*
X021895Y003160D02*
X021897Y003210D01*
X021903Y003260D01*
X021913Y003309D01*
X021926Y003358D01*
X021944Y003405D01*
X021965Y003451D01*
X021989Y003494D01*
X022017Y003536D01*
X022048Y003576D01*
X022082Y003613D01*
X022119Y003647D01*
X022159Y003678D01*
X022201Y003706D01*
X022244Y003730D01*
X022290Y003751D01*
X022337Y003769D01*
X022386Y003782D01*
X022435Y003792D01*
X022485Y003798D01*
X022535Y003800D01*
X022585Y003798D01*
X022635Y003792D01*
X022684Y003782D01*
X022733Y003769D01*
X022780Y003751D01*
X022826Y003730D01*
X022869Y003706D01*
X022911Y003678D01*
X022951Y003647D01*
X022988Y003613D01*
X023022Y003576D01*
X023053Y003536D01*
X023081Y003494D01*
X023105Y003451D01*
X023126Y003405D01*
X023144Y003358D01*
X023157Y003309D01*
X023167Y003260D01*
X023173Y003210D01*
X023175Y003160D01*
X023173Y003110D01*
X023167Y003060D01*
X023157Y003011D01*
X023144Y002962D01*
X023126Y002915D01*
X023105Y002869D01*
X023081Y002826D01*
X023053Y002784D01*
X023022Y002744D01*
X022988Y002707D01*
X022951Y002673D01*
X022911Y002642D01*
X022869Y002614D01*
X022826Y002590D01*
X022780Y002569D01*
X022733Y002551D01*
X022684Y002538D01*
X022635Y002528D01*
X022585Y002522D01*
X022535Y002520D01*
X022485Y002522D01*
X022435Y002528D01*
X022386Y002538D01*
X022337Y002551D01*
X022290Y002569D01*
X022244Y002590D01*
X022201Y002614D01*
X022159Y002642D01*
X022119Y002673D01*
X022082Y002707D01*
X022048Y002744D01*
X022017Y002784D01*
X021989Y002826D01*
X021965Y002869D01*
X021944Y002915D01*
X021926Y002962D01*
X021913Y003011D01*
X021903Y003060D01*
X021897Y003110D01*
X021895Y003160D01*
D11*
X015535Y002910D02*
X015535Y002410D01*
X015285Y002160D01*
X014785Y002160D01*
X014535Y002410D01*
X014285Y002160D01*
X013785Y002160D01*
X013535Y002410D01*
X013285Y002160D01*
X012785Y002160D01*
X012535Y002410D01*
X012535Y002910D01*
X012785Y003160D01*
X013285Y003160D01*
X013535Y002910D01*
X013785Y003160D01*
X014285Y003160D01*
X014535Y002910D01*
X014785Y003160D01*
X015285Y003160D01*
X015535Y002910D01*
X009535Y003910D02*
X009535Y004410D01*
X009285Y004660D01*
X009535Y004910D01*
X009535Y005410D01*
X009285Y005660D01*
X009535Y005910D01*
X009535Y006410D01*
X009285Y006660D01*
X008785Y006660D01*
X008535Y006410D01*
X008535Y005910D01*
X008785Y005660D01*
X008535Y005410D01*
X008535Y004910D01*
X008785Y004660D01*
X008535Y004410D01*
X008535Y003910D01*
X008785Y003660D01*
X009285Y003660D01*
X009535Y003910D01*
X010285Y006910D02*
X010785Y006910D01*
X011035Y007160D01*
X011285Y006910D01*
X011785Y006910D01*
X012035Y007160D01*
X012285Y006910D01*
X012785Y006910D01*
X013035Y007160D01*
X013285Y006910D01*
X013785Y006910D01*
X014035Y007160D01*
X014285Y006910D01*
X014785Y006910D01*
X015035Y007160D01*
X015285Y006910D01*
X015785Y006910D01*
X016035Y007160D01*
X016285Y006910D01*
X016785Y006910D01*
X017035Y007160D01*
X017285Y006910D01*
X017785Y006910D01*
X018035Y007160D01*
X018035Y007660D01*
X017785Y007910D01*
X017285Y007910D01*
X017035Y007660D01*
X016785Y007910D01*
X016285Y007910D01*
X016035Y007660D01*
X015785Y007910D01*
X015285Y007910D01*
X015035Y007660D01*
X014785Y007910D01*
X014285Y007910D01*
X014035Y007660D01*
X013785Y007910D01*
X013285Y007910D01*
X013035Y007660D01*
X012785Y007910D01*
X012285Y007910D01*
X012035Y007660D01*
X011785Y007910D01*
X011285Y007910D01*
X011035Y007660D01*
X010785Y007910D01*
X010285Y007910D01*
X010035Y007660D01*
X010035Y007160D01*
X010285Y006910D01*
D12*
X010385Y006535D02*
X010535Y006535D01*
X010610Y006460D01*
X010610Y006385D01*
X010535Y006310D01*
X010385Y006310D01*
X010310Y006385D01*
X010310Y006460D01*
X010385Y006535D01*
X010385Y006310D02*
X010310Y006235D01*
X010310Y006160D01*
X010385Y006085D01*
X010535Y006085D01*
X010610Y006160D01*
X010610Y006235D01*
X010535Y006310D01*
X013285Y005160D02*
X013285Y003660D01*
X014785Y003660D01*
X014785Y005160D01*
X013285Y005160D01*
X013321Y003785D02*
X013321Y003485D01*
X013171Y003335D01*
X013020Y003485D01*
X013020Y003785D01*
X012860Y003710D02*
X012785Y003785D01*
X012635Y003785D01*
X012560Y003710D01*
X012560Y003635D01*
X012635Y003560D01*
X012785Y003560D01*
X012860Y003485D01*
X012860Y003410D01*
X012785Y003335D01*
X012635Y003335D01*
X012560Y003410D01*
X013481Y003335D02*
X013781Y003635D01*
X013781Y003710D01*
X013706Y003785D01*
X013556Y003785D01*
X013481Y003710D01*
X013481Y003335D02*
X013781Y003335D01*
X012210Y002885D02*
X012060Y002735D01*
X012210Y002885D02*
X012210Y002435D01*
X012060Y002435D02*
X012360Y002435D01*
X010535Y002910D02*
X010537Y002954D01*
X010543Y002998D01*
X010553Y003041D01*
X010566Y003083D01*
X010583Y003124D01*
X010604Y003163D01*
X010628Y003200D01*
X010655Y003235D01*
X010685Y003267D01*
X010718Y003297D01*
X010754Y003323D01*
X010791Y003347D01*
X010831Y003366D01*
X010872Y003383D01*
X010915Y003395D01*
X010958Y003404D01*
X011002Y003409D01*
X011046Y003410D01*
X011090Y003407D01*
X011134Y003400D01*
X011177Y003389D01*
X011219Y003375D01*
X011259Y003357D01*
X011298Y003335D01*
X011334Y003311D01*
X011368Y003283D01*
X011400Y003252D01*
X011429Y003218D01*
X011455Y003182D01*
X011477Y003144D01*
X011496Y003104D01*
X011511Y003062D01*
X011523Y003020D01*
X011531Y002976D01*
X011535Y002932D01*
X011535Y002888D01*
X011531Y002844D01*
X011523Y002800D01*
X011511Y002758D01*
X011496Y002716D01*
X011477Y002676D01*
X011455Y002638D01*
X011429Y002602D01*
X011400Y002568D01*
X011368Y002537D01*
X011334Y002509D01*
X011298Y002485D01*
X011259Y002463D01*
X011219Y002445D01*
X011177Y002431D01*
X011134Y002420D01*
X011090Y002413D01*
X011046Y002410D01*
X011002Y002411D01*
X010958Y002416D01*
X010915Y002425D01*
X010872Y002437D01*
X010831Y002454D01*
X010791Y002473D01*
X010754Y002497D01*
X010718Y002523D01*
X010685Y002553D01*
X010655Y002585D01*
X010628Y002620D01*
X010604Y002657D01*
X010583Y002696D01*
X010566Y002737D01*
X010553Y002779D01*
X010543Y002822D01*
X010537Y002866D01*
X010535Y002910D01*
X009260Y003185D02*
X009260Y003485D01*
X009260Y003335D02*
X008810Y003335D01*
X008960Y003185D01*
X008360Y003760D02*
X008285Y003685D01*
X008360Y003760D02*
X008360Y003910D01*
X008285Y003985D01*
X008210Y003985D01*
X008135Y003910D01*
X008135Y003760D01*
X008060Y003685D01*
X007985Y003685D01*
X007910Y003760D01*
X007910Y003910D01*
X007985Y003985D01*
X007910Y004145D02*
X008210Y004145D01*
X008360Y004296D01*
X008210Y004446D01*
X007910Y004446D01*
X008060Y004606D02*
X007910Y004756D01*
X008360Y004756D01*
X008360Y004606D02*
X008360Y004906D01*
X010035Y001910D02*
X010035Y007910D01*
X018035Y007910D01*
X018035Y001910D01*
X010035Y001910D01*
X016535Y002910D02*
X016537Y002954D01*
X016543Y002998D01*
X016553Y003041D01*
X016566Y003083D01*
X016583Y003124D01*
X016604Y003163D01*
X016628Y003200D01*
X016655Y003235D01*
X016685Y003267D01*
X016718Y003297D01*
X016754Y003323D01*
X016791Y003347D01*
X016831Y003366D01*
X016872Y003383D01*
X016915Y003395D01*
X016958Y003404D01*
X017002Y003409D01*
X017046Y003410D01*
X017090Y003407D01*
X017134Y003400D01*
X017177Y003389D01*
X017219Y003375D01*
X017259Y003357D01*
X017298Y003335D01*
X017334Y003311D01*
X017368Y003283D01*
X017400Y003252D01*
X017429Y003218D01*
X017455Y003182D01*
X017477Y003144D01*
X017496Y003104D01*
X017511Y003062D01*
X017523Y003020D01*
X017531Y002976D01*
X017535Y002932D01*
X017535Y002888D01*
X017531Y002844D01*
X017523Y002800D01*
X017511Y002758D01*
X017496Y002716D01*
X017477Y002676D01*
X017455Y002638D01*
X017429Y002602D01*
X017400Y002568D01*
X017368Y002537D01*
X017334Y002509D01*
X017298Y002485D01*
X017259Y002463D01*
X017219Y002445D01*
X017177Y002431D01*
X017134Y002420D01*
X017090Y002413D01*
X017046Y002410D01*
X017002Y002411D01*
X016958Y002416D01*
X016915Y002425D01*
X016872Y002437D01*
X016831Y002454D01*
X016791Y002473D01*
X016754Y002497D01*
X016718Y002523D01*
X016685Y002553D01*
X016655Y002585D01*
X016628Y002620D01*
X016604Y002657D01*
X016583Y002696D01*
X016566Y002737D01*
X016553Y002779D01*
X016543Y002822D01*
X016537Y002866D01*
X016535Y002910D01*
X017610Y006285D02*
X017910Y006285D01*
X017760Y006285D02*
X017760Y006735D01*
X017610Y006585D01*
X011281Y008085D02*
X010981Y008085D01*
X011131Y008085D02*
X011131Y008535D01*
X010981Y008385D01*
X010821Y008460D02*
X010746Y008535D01*
X010595Y008535D01*
X010520Y008460D01*
X010520Y008385D01*
X010595Y008310D01*
X010746Y008310D01*
X010821Y008235D01*
X010821Y008160D01*
X010746Y008085D01*
X010595Y008085D01*
X010520Y008160D01*
X010360Y008160D02*
X010285Y008085D01*
X010135Y008085D01*
X010060Y008160D01*
X010060Y008535D01*
X010360Y008535D02*
X010360Y008160D01*
X010671Y008010D02*
X010671Y008610D01*
D13*
X013550Y004695D02*
X013647Y004598D01*
X013743Y004695D01*
X013743Y004405D01*
X013845Y004405D02*
X013845Y004695D01*
X013990Y004695D01*
X014038Y004647D01*
X014038Y004550D01*
X013990Y004502D01*
X013845Y004502D01*
X014139Y004453D02*
X014188Y004405D01*
X014284Y004405D01*
X014333Y004453D01*
X014333Y004695D01*
X014139Y004695D02*
X014139Y004453D01*
X013990Y004215D02*
X014038Y004167D01*
X013845Y003973D01*
X013893Y003925D01*
X013990Y003925D01*
X014038Y003973D01*
X014038Y004167D01*
X013990Y004215D02*
X013893Y004215D01*
X013845Y004167D01*
X013845Y003973D01*
X013743Y003973D02*
X013743Y004070D01*
X013695Y004118D01*
X013647Y004118D01*
X013550Y004070D01*
X013550Y004215D01*
X013743Y004215D01*
X013743Y003973D02*
X013695Y003925D01*
X013598Y003925D01*
X013550Y003973D01*
X014139Y003973D02*
X014188Y003925D01*
X014284Y003925D01*
X014333Y003973D01*
X014333Y004022D01*
X014284Y004070D01*
X014139Y004070D01*
X014139Y003973D01*
X014139Y004070D02*
X014236Y004167D01*
X014333Y004215D01*
X014434Y004167D02*
X014482Y004215D01*
X014579Y004215D01*
X014627Y004167D01*
X014434Y003973D01*
X014482Y003925D01*
X014579Y003925D01*
X014627Y003973D01*
X014627Y004167D01*
X014434Y004167D02*
X014434Y003973D01*
X013550Y004405D02*
X013550Y004695D01*
D14*
X018435Y002460D02*
X024585Y002460D01*
X024585Y007860D01*
X018435Y007860D01*
X018435Y002460D01*
X007635Y002460D02*
X007635Y007860D01*
X001485Y007860D01*
X001485Y002460D01*
X007635Y002460D01*
M02*
