G75*
%MOIN*%
%OFA0B0*%
%FSLAX24Y24*%
%IPPOS*%
%LPD*%
%AMOC8*
5,1,8,0,0,1.08239X$1,22.5*
%
%ADD10C,0.0680*%
%ADD11C,0.0595*%
%ADD12C,0.1360*%
%ADD13R,0.0555X0.0555*%
D10*
X008735Y004160D02*
X009335Y004160D01*
X009335Y005160D02*
X008735Y005160D01*
X008735Y006160D02*
X009335Y006160D01*
X010535Y007110D02*
X010535Y007710D01*
X011535Y007710D02*
X011535Y007110D01*
X012535Y007110D02*
X012535Y007710D01*
X013535Y007710D02*
X013535Y007110D01*
X014535Y007110D02*
X014535Y007710D01*
X015535Y007710D02*
X015535Y007110D01*
X016535Y007110D02*
X016535Y007710D01*
X017535Y007710D02*
X017535Y007110D01*
X015035Y002960D02*
X015035Y002360D01*
X014035Y002360D02*
X014035Y002960D01*
X013035Y002960D02*
X013035Y002360D01*
D11*
X018778Y003910D02*
X019292Y003910D01*
X019778Y004410D02*
X020292Y004410D01*
X019292Y004910D02*
X018778Y004910D01*
X019778Y005410D02*
X020292Y005410D01*
X019292Y005910D02*
X018778Y005910D01*
X019778Y006410D02*
X020292Y006410D01*
X007292Y006410D02*
X006778Y006410D01*
X006292Y005910D02*
X005778Y005910D01*
X006778Y005410D02*
X007292Y005410D01*
X006292Y004910D02*
X005778Y004910D01*
X006778Y004410D02*
X007292Y004410D01*
X006292Y003910D02*
X005778Y003910D01*
D12*
X003535Y003160D03*
X003535Y007160D03*
X022535Y007160D03*
X022535Y003160D03*
D13*
X016285Y004410D03*
X016285Y006035D03*
X011535Y006160D03*
X011535Y004660D03*
M02*
