G75*
%MOIN*%
%OFA0B0*%
%FSLAX24Y24*%
%IPPOS*%
%LPD*%
%AMOC8*
5,1,8,0,0,1.08239X$1,22.5*
%
%ADD10C,0.0000*%
%ADD11C,0.0060*%
%ADD12C,0.0050*%
%ADD13C,0.0070*%
%ADD14C,0.0080*%
%ADD15R,0.0240X0.0340*%
%ADD16C,0.0040*%
D10*
X005300Y000180D02*
X005300Y018426D01*
X032320Y018376D01*
X032320Y000130D01*
X005300Y000180D01*
X007660Y001430D02*
X007662Y001480D01*
X007668Y001530D01*
X007678Y001579D01*
X007691Y001628D01*
X007709Y001675D01*
X007730Y001721D01*
X007754Y001764D01*
X007782Y001806D01*
X007813Y001846D01*
X007847Y001883D01*
X007884Y001917D01*
X007924Y001948D01*
X007966Y001976D01*
X008009Y002000D01*
X008055Y002021D01*
X008102Y002039D01*
X008151Y002052D01*
X008200Y002062D01*
X008250Y002068D01*
X008300Y002070D01*
X008350Y002068D01*
X008400Y002062D01*
X008449Y002052D01*
X008498Y002039D01*
X008545Y002021D01*
X008591Y002000D01*
X008634Y001976D01*
X008676Y001948D01*
X008716Y001917D01*
X008753Y001883D01*
X008787Y001846D01*
X008818Y001806D01*
X008846Y001764D01*
X008870Y001721D01*
X008891Y001675D01*
X008909Y001628D01*
X008922Y001579D01*
X008932Y001530D01*
X008938Y001480D01*
X008940Y001430D01*
X008938Y001380D01*
X008932Y001330D01*
X008922Y001281D01*
X008909Y001232D01*
X008891Y001185D01*
X008870Y001139D01*
X008846Y001096D01*
X008818Y001054D01*
X008787Y001014D01*
X008753Y000977D01*
X008716Y000943D01*
X008676Y000912D01*
X008634Y000884D01*
X008591Y000860D01*
X008545Y000839D01*
X008498Y000821D01*
X008449Y000808D01*
X008400Y000798D01*
X008350Y000792D01*
X008300Y000790D01*
X008250Y000792D01*
X008200Y000798D01*
X008151Y000808D01*
X008102Y000821D01*
X008055Y000839D01*
X008009Y000860D01*
X007966Y000884D01*
X007924Y000912D01*
X007884Y000943D01*
X007847Y000977D01*
X007813Y001014D01*
X007782Y001054D01*
X007754Y001096D01*
X007730Y001139D01*
X007709Y001185D01*
X007691Y001232D01*
X007678Y001281D01*
X007668Y001330D01*
X007662Y001380D01*
X007660Y001430D01*
X007660Y005430D02*
X007662Y005480D01*
X007668Y005530D01*
X007678Y005579D01*
X007691Y005628D01*
X007709Y005675D01*
X007730Y005721D01*
X007754Y005764D01*
X007782Y005806D01*
X007813Y005846D01*
X007847Y005883D01*
X007884Y005917D01*
X007924Y005948D01*
X007966Y005976D01*
X008009Y006000D01*
X008055Y006021D01*
X008102Y006039D01*
X008151Y006052D01*
X008200Y006062D01*
X008250Y006068D01*
X008300Y006070D01*
X008350Y006068D01*
X008400Y006062D01*
X008449Y006052D01*
X008498Y006039D01*
X008545Y006021D01*
X008591Y006000D01*
X008634Y005976D01*
X008676Y005948D01*
X008716Y005917D01*
X008753Y005883D01*
X008787Y005846D01*
X008818Y005806D01*
X008846Y005764D01*
X008870Y005721D01*
X008891Y005675D01*
X008909Y005628D01*
X008922Y005579D01*
X008932Y005530D01*
X008938Y005480D01*
X008940Y005430D01*
X008938Y005380D01*
X008932Y005330D01*
X008922Y005281D01*
X008909Y005232D01*
X008891Y005185D01*
X008870Y005139D01*
X008846Y005096D01*
X008818Y005054D01*
X008787Y005014D01*
X008753Y004977D01*
X008716Y004943D01*
X008676Y004912D01*
X008634Y004884D01*
X008591Y004860D01*
X008545Y004839D01*
X008498Y004821D01*
X008449Y004808D01*
X008400Y004798D01*
X008350Y004792D01*
X008300Y004790D01*
X008250Y004792D01*
X008200Y004798D01*
X008151Y004808D01*
X008102Y004821D01*
X008055Y004839D01*
X008009Y004860D01*
X007966Y004884D01*
X007924Y004912D01*
X007884Y004943D01*
X007847Y004977D01*
X007813Y005014D01*
X007782Y005054D01*
X007754Y005096D01*
X007730Y005139D01*
X007709Y005185D01*
X007691Y005232D01*
X007678Y005281D01*
X007668Y005330D01*
X007662Y005380D01*
X007660Y005430D01*
X028660Y005430D02*
X028662Y005480D01*
X028668Y005530D01*
X028678Y005579D01*
X028691Y005628D01*
X028709Y005675D01*
X028730Y005721D01*
X028754Y005764D01*
X028782Y005806D01*
X028813Y005846D01*
X028847Y005883D01*
X028884Y005917D01*
X028924Y005948D01*
X028966Y005976D01*
X029009Y006000D01*
X029055Y006021D01*
X029102Y006039D01*
X029151Y006052D01*
X029200Y006062D01*
X029250Y006068D01*
X029300Y006070D01*
X029350Y006068D01*
X029400Y006062D01*
X029449Y006052D01*
X029498Y006039D01*
X029545Y006021D01*
X029591Y006000D01*
X029634Y005976D01*
X029676Y005948D01*
X029716Y005917D01*
X029753Y005883D01*
X029787Y005846D01*
X029818Y005806D01*
X029846Y005764D01*
X029870Y005721D01*
X029891Y005675D01*
X029909Y005628D01*
X029922Y005579D01*
X029932Y005530D01*
X029938Y005480D01*
X029940Y005430D01*
X029938Y005380D01*
X029932Y005330D01*
X029922Y005281D01*
X029909Y005232D01*
X029891Y005185D01*
X029870Y005139D01*
X029846Y005096D01*
X029818Y005054D01*
X029787Y005014D01*
X029753Y004977D01*
X029716Y004943D01*
X029676Y004912D01*
X029634Y004884D01*
X029591Y004860D01*
X029545Y004839D01*
X029498Y004821D01*
X029449Y004808D01*
X029400Y004798D01*
X029350Y004792D01*
X029300Y004790D01*
X029250Y004792D01*
X029200Y004798D01*
X029151Y004808D01*
X029102Y004821D01*
X029055Y004839D01*
X029009Y004860D01*
X028966Y004884D01*
X028924Y004912D01*
X028884Y004943D01*
X028847Y004977D01*
X028813Y005014D01*
X028782Y005054D01*
X028754Y005096D01*
X028730Y005139D01*
X028709Y005185D01*
X028691Y005232D01*
X028678Y005281D01*
X028668Y005330D01*
X028662Y005380D01*
X028660Y005430D01*
X028660Y001430D02*
X028662Y001480D01*
X028668Y001530D01*
X028678Y001579D01*
X028691Y001628D01*
X028709Y001675D01*
X028730Y001721D01*
X028754Y001764D01*
X028782Y001806D01*
X028813Y001846D01*
X028847Y001883D01*
X028884Y001917D01*
X028924Y001948D01*
X028966Y001976D01*
X029009Y002000D01*
X029055Y002021D01*
X029102Y002039D01*
X029151Y002052D01*
X029200Y002062D01*
X029250Y002068D01*
X029300Y002070D01*
X029350Y002068D01*
X029400Y002062D01*
X029449Y002052D01*
X029498Y002039D01*
X029545Y002021D01*
X029591Y002000D01*
X029634Y001976D01*
X029676Y001948D01*
X029716Y001917D01*
X029753Y001883D01*
X029787Y001846D01*
X029818Y001806D01*
X029846Y001764D01*
X029870Y001721D01*
X029891Y001675D01*
X029909Y001628D01*
X029922Y001579D01*
X029932Y001530D01*
X029938Y001480D01*
X029940Y001430D01*
X029938Y001380D01*
X029932Y001330D01*
X029922Y001281D01*
X029909Y001232D01*
X029891Y001185D01*
X029870Y001139D01*
X029846Y001096D01*
X029818Y001054D01*
X029787Y001014D01*
X029753Y000977D01*
X029716Y000943D01*
X029676Y000912D01*
X029634Y000884D01*
X029591Y000860D01*
X029545Y000839D01*
X029498Y000821D01*
X029449Y000808D01*
X029400Y000798D01*
X029350Y000792D01*
X029300Y000790D01*
X029250Y000792D01*
X029200Y000798D01*
X029151Y000808D01*
X029102Y000821D01*
X029055Y000839D01*
X029009Y000860D01*
X028966Y000884D01*
X028924Y000912D01*
X028884Y000943D01*
X028847Y000977D01*
X028813Y001014D01*
X028782Y001054D01*
X028754Y001096D01*
X028730Y001139D01*
X028709Y001185D01*
X028691Y001232D01*
X028678Y001281D01*
X028668Y001330D01*
X028662Y001380D01*
X028660Y001430D01*
D11*
X024000Y005330D02*
X013600Y005330D01*
X013600Y007530D01*
X024000Y007530D01*
X024000Y006680D01*
X023970Y006678D01*
X023940Y006673D01*
X023911Y006664D01*
X023884Y006651D01*
X023858Y006636D01*
X023834Y006617D01*
X023813Y006596D01*
X023794Y006572D01*
X023779Y006546D01*
X023766Y006519D01*
X023757Y006490D01*
X023752Y006460D01*
X023750Y006430D01*
X023752Y006400D01*
X023757Y006370D01*
X023766Y006341D01*
X023779Y006314D01*
X023794Y006288D01*
X023813Y006264D01*
X023834Y006243D01*
X023858Y006224D01*
X023884Y006209D01*
X023911Y006196D01*
X023940Y006187D01*
X023970Y006182D01*
X024000Y006180D01*
X024000Y005330D01*
X023900Y010180D02*
X023200Y010180D01*
X023183Y010182D01*
X023166Y010186D01*
X023150Y010193D01*
X023136Y010203D01*
X023123Y010216D01*
X023113Y010230D01*
X023106Y010246D01*
X023102Y010263D01*
X023100Y010280D01*
X023100Y010430D01*
X023150Y010480D01*
X023150Y012380D01*
X023100Y012430D01*
X023100Y012580D01*
X023102Y012597D01*
X023106Y012614D01*
X023113Y012630D01*
X023123Y012644D01*
X023136Y012657D01*
X023150Y012667D01*
X023166Y012674D01*
X023183Y012678D01*
X023200Y012680D01*
X023900Y012680D01*
X023917Y012678D01*
X023934Y012674D01*
X023950Y012667D01*
X023964Y012657D01*
X023977Y012644D01*
X023987Y012630D01*
X023994Y012614D01*
X023998Y012597D01*
X024000Y012580D01*
X024000Y012430D01*
X023950Y012380D01*
X023950Y010480D01*
X024000Y010430D01*
X024000Y010280D01*
X023998Y010263D01*
X023994Y010246D01*
X023987Y010230D01*
X023977Y010216D01*
X023964Y010203D01*
X023950Y010193D01*
X023934Y010186D01*
X023917Y010182D01*
X023900Y010180D01*
X022300Y010280D02*
X022300Y012580D01*
X015300Y012580D01*
X015300Y011830D01*
X015339Y011828D01*
X015378Y011822D01*
X015416Y011813D01*
X015453Y011800D01*
X015489Y011783D01*
X015522Y011763D01*
X015554Y011739D01*
X015583Y011713D01*
X015609Y011684D01*
X015633Y011652D01*
X015653Y011619D01*
X015670Y011583D01*
X015683Y011546D01*
X015692Y011508D01*
X015698Y011469D01*
X015700Y011430D01*
X015698Y011391D01*
X015692Y011352D01*
X015683Y011314D01*
X015670Y011277D01*
X015653Y011241D01*
X015633Y011208D01*
X015609Y011176D01*
X015583Y011147D01*
X015554Y011121D01*
X015522Y011097D01*
X015489Y011077D01*
X015453Y011060D01*
X015416Y011047D01*
X015378Y011038D01*
X015339Y011032D01*
X015300Y011030D01*
X015300Y010280D01*
X022300Y010280D01*
X014750Y010280D02*
X014750Y010430D01*
X014700Y010480D01*
X014700Y012380D01*
X014750Y012430D01*
X014750Y012580D01*
X014748Y012597D01*
X014744Y012614D01*
X014737Y012630D01*
X014727Y012644D01*
X014714Y012657D01*
X014700Y012667D01*
X014684Y012674D01*
X014667Y012678D01*
X014650Y012680D01*
X013950Y012680D01*
X013933Y012678D01*
X013916Y012674D01*
X013900Y012667D01*
X013886Y012657D01*
X013873Y012644D01*
X013863Y012630D01*
X013856Y012614D01*
X013852Y012597D01*
X013850Y012580D01*
X013850Y012430D01*
X013900Y012380D01*
X013900Y010480D01*
X013850Y010430D01*
X013850Y010280D01*
X013852Y010263D01*
X013856Y010246D01*
X013863Y010230D01*
X013873Y010216D01*
X013886Y010203D01*
X013900Y010193D01*
X013916Y010186D01*
X013933Y010182D01*
X013950Y010180D01*
X014650Y010180D01*
X014667Y010182D01*
X014684Y010186D01*
X014700Y010193D01*
X014714Y010203D01*
X014727Y010216D01*
X014737Y010230D01*
X014744Y010246D01*
X014748Y010263D01*
X014750Y010280D01*
X013750Y010280D02*
X013750Y010430D01*
X013700Y010480D01*
X013700Y012380D01*
X013750Y012430D01*
X013750Y012580D01*
X013748Y012597D01*
X013744Y012614D01*
X013737Y012630D01*
X013727Y012644D01*
X013714Y012657D01*
X013700Y012667D01*
X013684Y012674D01*
X013667Y012678D01*
X013650Y012680D01*
X012950Y012680D01*
X012933Y012678D01*
X012916Y012674D01*
X012900Y012667D01*
X012886Y012657D01*
X012873Y012644D01*
X012863Y012630D01*
X012856Y012614D01*
X012852Y012597D01*
X012850Y012580D01*
X012850Y012430D01*
X012900Y012380D01*
X012900Y010480D01*
X012850Y010430D01*
X012850Y010280D01*
X012852Y010263D01*
X012856Y010246D01*
X012863Y010230D01*
X012873Y010216D01*
X012886Y010203D01*
X012900Y010193D01*
X012916Y010186D01*
X012933Y010182D01*
X012950Y010180D01*
X013650Y010180D01*
X013667Y010182D01*
X013684Y010186D01*
X013700Y010193D01*
X013714Y010203D01*
X013727Y010216D01*
X013737Y010230D01*
X013744Y010246D01*
X013748Y010263D01*
X013750Y010280D01*
X012750Y010280D02*
X012750Y010430D01*
X012700Y010480D01*
X012700Y012380D01*
X012750Y012430D01*
X012750Y012580D01*
X012748Y012597D01*
X012744Y012614D01*
X012737Y012630D01*
X012727Y012644D01*
X012714Y012657D01*
X012700Y012667D01*
X012684Y012674D01*
X012667Y012678D01*
X012650Y012680D01*
X011950Y012680D01*
X011933Y012678D01*
X011916Y012674D01*
X011900Y012667D01*
X011886Y012657D01*
X011873Y012644D01*
X011863Y012630D01*
X011856Y012614D01*
X011852Y012597D01*
X011850Y012580D01*
X011850Y012430D01*
X011900Y012380D01*
X011900Y010480D01*
X011850Y010430D01*
X011850Y010280D01*
X011852Y010263D01*
X011856Y010246D01*
X011863Y010230D01*
X011873Y010216D01*
X011886Y010203D01*
X011900Y010193D01*
X011916Y010186D01*
X011933Y010182D01*
X011950Y010180D01*
X012650Y010180D01*
X012667Y010182D01*
X012684Y010186D01*
X012700Y010193D01*
X012714Y010203D01*
X012727Y010216D01*
X012737Y010230D01*
X012744Y010246D01*
X012748Y010263D01*
X012750Y010280D01*
X011800Y009680D02*
X011800Y009180D01*
X011550Y008930D01*
X011800Y008680D01*
X011800Y008180D01*
X011550Y007930D01*
X011800Y007680D01*
X011800Y007180D01*
X011550Y006930D01*
X011050Y006930D01*
X010800Y007180D01*
X010800Y007680D01*
X011050Y007930D01*
X010800Y008180D01*
X010800Y008680D01*
X011050Y008930D01*
X010800Y009180D01*
X010800Y009680D01*
X011050Y009930D01*
X011550Y009930D01*
X011800Y009680D01*
X008770Y010464D02*
X008770Y014394D01*
X008690Y014394D01*
X008690Y010464D01*
X006090Y010464D01*
X005150Y010464D01*
X005150Y014394D01*
X006090Y014394D01*
X008690Y014394D01*
X007970Y013414D02*
X007972Y013442D01*
X007978Y013469D01*
X007987Y013495D01*
X008000Y013520D01*
X008017Y013543D01*
X008036Y013563D01*
X008058Y013580D01*
X008082Y013594D01*
X008108Y013604D01*
X008135Y013611D01*
X008163Y013614D01*
X008191Y013613D01*
X008218Y013608D01*
X008245Y013599D01*
X008270Y013587D01*
X008293Y013572D01*
X008314Y013553D01*
X008332Y013532D01*
X008347Y013508D01*
X008358Y013482D01*
X008366Y013456D01*
X008370Y013428D01*
X008370Y013400D01*
X008366Y013372D01*
X008358Y013346D01*
X008347Y013320D01*
X008332Y013296D01*
X008314Y013275D01*
X008293Y013256D01*
X008270Y013241D01*
X008245Y013229D01*
X008218Y013220D01*
X008191Y013215D01*
X008163Y013214D01*
X008135Y013217D01*
X008108Y013224D01*
X008082Y013234D01*
X008058Y013248D01*
X008036Y013265D01*
X008017Y013285D01*
X008000Y013308D01*
X007987Y013333D01*
X007978Y013359D01*
X007972Y013386D01*
X007970Y013414D01*
X006090Y013064D02*
X006090Y011794D01*
X006090Y011094D02*
X006090Y010464D01*
X007970Y011444D02*
X007972Y011472D01*
X007978Y011499D01*
X007987Y011525D01*
X008000Y011550D01*
X008017Y011573D01*
X008036Y011593D01*
X008058Y011610D01*
X008082Y011624D01*
X008108Y011634D01*
X008135Y011641D01*
X008163Y011644D01*
X008191Y011643D01*
X008218Y011638D01*
X008245Y011629D01*
X008270Y011617D01*
X008293Y011602D01*
X008314Y011583D01*
X008332Y011562D01*
X008347Y011538D01*
X008358Y011512D01*
X008366Y011486D01*
X008370Y011458D01*
X008370Y011430D01*
X008366Y011402D01*
X008358Y011376D01*
X008347Y011350D01*
X008332Y011326D01*
X008314Y011305D01*
X008293Y011286D01*
X008270Y011271D01*
X008245Y011259D01*
X008218Y011250D01*
X008191Y011245D01*
X008163Y011244D01*
X008135Y011247D01*
X008108Y011254D01*
X008082Y011264D01*
X008058Y011278D01*
X008036Y011295D01*
X008017Y011315D01*
X008000Y011338D01*
X007987Y011363D01*
X007978Y011389D01*
X007972Y011416D01*
X007970Y011444D01*
X008690Y010464D02*
X008770Y010464D01*
X006090Y013764D02*
X006090Y014394D01*
D12*
X005805Y013809D02*
X005805Y013509D01*
X005805Y013659D02*
X005355Y013659D01*
X005505Y013509D01*
X005430Y013349D02*
X005355Y013274D01*
X005355Y013124D01*
X005430Y013048D01*
X005505Y013048D01*
X005580Y013124D01*
X005580Y013274D01*
X005655Y013349D01*
X005730Y013349D01*
X005805Y013274D01*
X005805Y013124D01*
X005730Y013048D01*
X005730Y012888D02*
X005355Y012888D01*
X005280Y013199D02*
X005880Y013199D01*
X005730Y012888D02*
X005805Y012813D01*
X005805Y012663D01*
X005730Y012588D01*
X005355Y012588D01*
X005300Y013430D02*
X004300Y013430D01*
X004270Y013365D01*
X004236Y013302D01*
X004198Y013240D01*
X004158Y013181D01*
X004115Y013124D01*
X004068Y013069D01*
X004019Y013017D01*
X003967Y012967D01*
X003912Y012921D01*
X003856Y012877D01*
X003797Y012836D01*
X003735Y012798D01*
X003672Y012764D01*
X003608Y012733D01*
X003541Y012705D01*
X003474Y012681D01*
X003405Y012661D01*
X003335Y012644D01*
X003265Y012631D01*
X003193Y012622D01*
X003122Y012616D01*
X003050Y012614D01*
X002978Y012616D01*
X002907Y012622D01*
X002835Y012631D01*
X002765Y012644D01*
X002695Y012661D01*
X002626Y012681D01*
X002559Y012705D01*
X002492Y012733D01*
X002428Y012764D01*
X002365Y012798D01*
X002303Y012836D01*
X002244Y012877D01*
X002188Y012921D01*
X002133Y012967D01*
X002081Y013017D01*
X002032Y013069D01*
X001985Y013124D01*
X001942Y013181D01*
X001902Y013240D01*
X001864Y013302D01*
X001830Y013365D01*
X001800Y013430D01*
X001800Y012930D01*
X001300Y012430D01*
X002300Y012430D01*
X001300Y011930D01*
X002300Y011930D01*
X001800Y011430D01*
X001830Y011365D01*
X001864Y011302D01*
X001902Y011240D01*
X001942Y011181D01*
X001985Y011124D01*
X002032Y011069D01*
X002081Y011017D01*
X002133Y010967D01*
X002188Y010921D01*
X002244Y010877D01*
X002303Y010836D01*
X002365Y010798D01*
X002428Y010764D01*
X002492Y010733D01*
X002559Y010705D01*
X002626Y010681D01*
X002695Y010661D01*
X002765Y010644D01*
X002835Y010631D01*
X002907Y010622D01*
X002978Y010616D01*
X003050Y010614D01*
X003122Y010616D01*
X003193Y010622D01*
X003265Y010631D01*
X003335Y010644D01*
X003405Y010661D01*
X003474Y010681D01*
X003541Y010705D01*
X003608Y010733D01*
X003672Y010764D01*
X003735Y010798D01*
X003797Y010836D01*
X003856Y010877D01*
X003912Y010921D01*
X003967Y010967D01*
X004019Y011017D01*
X004068Y011069D01*
X004115Y011124D01*
X004158Y011181D01*
X004198Y011240D01*
X004236Y011302D01*
X004270Y011365D01*
X004300Y011430D01*
X005300Y011430D01*
X007575Y011904D02*
X007650Y011829D01*
X007575Y011904D02*
X007575Y012054D01*
X007650Y012129D01*
X007725Y012129D01*
X008025Y011829D01*
X008025Y012129D01*
X010175Y010863D02*
X010250Y010938D01*
X010400Y010938D01*
X010475Y010863D01*
X010475Y010638D01*
X010625Y010638D02*
X010175Y010638D01*
X010175Y010863D01*
X010475Y010788D02*
X010625Y010938D01*
X010625Y010478D02*
X010625Y010178D01*
X010175Y010178D01*
X010175Y010478D01*
X010400Y010328D02*
X010400Y010178D01*
X010400Y010018D02*
X010475Y009943D01*
X010475Y009717D01*
X010625Y009717D02*
X010175Y009717D01*
X010175Y009943D01*
X010250Y010018D01*
X010400Y010018D01*
X010175Y009557D02*
X010625Y009557D01*
X010325Y009407D02*
X010175Y009557D01*
X010325Y009407D02*
X010175Y009257D01*
X010625Y009257D01*
X010550Y009097D02*
X010175Y009097D01*
X010175Y008797D02*
X010550Y008797D01*
X010625Y008872D01*
X010625Y009022D01*
X010550Y009097D01*
X010550Y008561D02*
X010175Y008561D01*
X010175Y008486D02*
X010175Y008636D01*
X010550Y008561D02*
X010625Y008486D01*
X010625Y008411D01*
X010550Y008336D01*
X010550Y008176D02*
X010250Y008176D01*
X010550Y007876D01*
X010625Y007951D01*
X010625Y008101D01*
X010550Y008176D01*
X010550Y007876D02*
X010250Y007876D01*
X010175Y007951D01*
X010175Y008101D01*
X010250Y008176D01*
X010250Y007716D02*
X010175Y007641D01*
X010175Y007415D01*
X010625Y007415D01*
X010625Y007641D01*
X010550Y007716D01*
X010250Y007716D01*
X010325Y007255D02*
X010625Y007255D01*
X010400Y007255D02*
X010400Y006955D01*
X010325Y006955D02*
X010175Y007105D01*
X010325Y007255D01*
X010325Y006955D02*
X010625Y006955D01*
X011075Y006605D02*
X011525Y006605D01*
X011525Y006455D02*
X011525Y006755D01*
X011225Y006455D02*
X011075Y006605D01*
X012225Y010255D02*
X012225Y010480D01*
X012300Y010555D01*
X012450Y010555D01*
X012525Y010480D01*
X012525Y010255D01*
X012675Y010255D02*
X012225Y010255D01*
X012525Y010405D02*
X012675Y010555D01*
X012600Y010715D02*
X012675Y010790D01*
X012675Y010941D01*
X012600Y011016D01*
X012525Y011016D01*
X012450Y010941D01*
X012450Y010866D01*
X012450Y010941D02*
X012375Y011016D01*
X012300Y011016D01*
X012225Y010941D01*
X012225Y010790D01*
X012300Y010715D01*
X012925Y011734D02*
X012925Y011959D01*
X013000Y012034D01*
X013150Y012034D01*
X013225Y011959D01*
X013225Y011734D01*
X013375Y011734D02*
X012925Y011734D01*
X013225Y011884D02*
X013375Y012034D01*
X013150Y012195D02*
X013150Y012495D01*
X013375Y012420D02*
X012925Y012420D01*
X013150Y012195D01*
X014925Y012270D02*
X015000Y012195D01*
X014925Y012270D02*
X014925Y012420D01*
X015000Y012495D01*
X015075Y012495D01*
X015375Y012195D01*
X015375Y012495D01*
X015375Y012034D02*
X015225Y011884D01*
X015225Y011959D02*
X015225Y011734D01*
X015375Y011734D02*
X014925Y011734D01*
X014925Y011959D01*
X015000Y012034D01*
X015150Y012034D01*
X015225Y011959D01*
X015125Y011323D02*
X015125Y011022D01*
X015125Y011172D02*
X014675Y011172D01*
X014825Y011022D01*
X014750Y010862D02*
X014675Y010787D01*
X014675Y010637D01*
X014750Y010562D01*
X015050Y010562D01*
X015125Y010637D01*
X015125Y010787D01*
X015050Y010862D01*
X015125Y010405D02*
X015125Y010255D01*
X015125Y010330D02*
X014675Y010330D01*
X014675Y010255D02*
X014675Y010405D01*
X008025Y013779D02*
X008025Y014079D01*
X008025Y013929D02*
X007575Y013929D01*
X007725Y013779D01*
X000300Y012430D02*
X000302Y012507D01*
X000308Y012584D01*
X000318Y012661D01*
X000332Y012737D01*
X000349Y012812D01*
X000371Y012886D01*
X000396Y012959D01*
X000426Y013031D01*
X000458Y013101D01*
X000495Y013169D01*
X000534Y013235D01*
X000577Y013299D01*
X000624Y013361D01*
X000673Y013420D01*
X000726Y013477D01*
X000781Y013531D01*
X000839Y013582D01*
X000900Y013630D01*
X000963Y013675D01*
X001028Y013716D01*
X001095Y013754D01*
X001164Y013789D01*
X001235Y013819D01*
X001307Y013847D01*
X001381Y013870D01*
X001455Y013890D01*
X001531Y013906D01*
X001607Y013918D01*
X001684Y013926D01*
X001761Y013930D01*
X001839Y013930D01*
X001916Y013926D01*
X001993Y013918D01*
X002069Y013906D01*
X002145Y013890D01*
X002219Y013870D01*
X002293Y013847D01*
X002365Y013819D01*
X002436Y013789D01*
X002505Y013754D01*
X002572Y013716D01*
X002637Y013675D01*
X002700Y013630D01*
X002761Y013582D01*
X002819Y013531D01*
X002874Y013477D01*
X002927Y013420D01*
X002976Y013361D01*
X003023Y013299D01*
X003066Y013235D01*
X003105Y013169D01*
X003142Y013101D01*
X003174Y013031D01*
X003204Y012959D01*
X003229Y012886D01*
X003251Y012812D01*
X003268Y012737D01*
X003282Y012661D01*
X003292Y012584D01*
X003298Y012507D01*
X003300Y012430D01*
X003298Y012353D01*
X003292Y012276D01*
X003282Y012199D01*
X003268Y012123D01*
X003251Y012048D01*
X003229Y011974D01*
X003204Y011901D01*
X003174Y011829D01*
X003142Y011759D01*
X003105Y011691D01*
X003066Y011625D01*
X003023Y011561D01*
X002976Y011499D01*
X002927Y011440D01*
X002874Y011383D01*
X002819Y011329D01*
X002761Y011278D01*
X002700Y011230D01*
X002637Y011185D01*
X002572Y011144D01*
X002505Y011106D01*
X002436Y011071D01*
X002365Y011041D01*
X002293Y011013D01*
X002219Y010990D01*
X002145Y010970D01*
X002069Y010954D01*
X001993Y010942D01*
X001916Y010934D01*
X001839Y010930D01*
X001761Y010930D01*
X001684Y010934D01*
X001607Y010942D01*
X001531Y010954D01*
X001455Y010970D01*
X001381Y010990D01*
X001307Y011013D01*
X001235Y011041D01*
X001164Y011071D01*
X001095Y011106D01*
X001028Y011144D01*
X000963Y011185D01*
X000900Y011230D01*
X000839Y011278D01*
X000781Y011329D01*
X000726Y011383D01*
X000673Y011440D01*
X000624Y011499D01*
X000577Y011561D01*
X000534Y011625D01*
X000495Y011691D01*
X000458Y011759D01*
X000426Y011829D01*
X000396Y011901D01*
X000371Y011974D01*
X000349Y012048D01*
X000332Y012123D01*
X000318Y012199D01*
X000308Y012276D01*
X000302Y012353D01*
X000300Y012430D01*
X015900Y015030D02*
X016000Y015030D01*
X016000Y015130D01*
X019600Y015130D01*
X019600Y015030D01*
X019700Y015030D01*
X019700Y015130D01*
X019600Y015130D01*
X019700Y015130D02*
X019700Y016830D01*
X015900Y016830D01*
X015900Y016230D01*
X016800Y016230D01*
X016800Y016430D02*
X016000Y016430D01*
X015900Y016230D02*
X015900Y015130D01*
X015900Y015030D01*
X015900Y015130D02*
X016000Y015130D01*
X015950Y016330D02*
X015952Y016372D01*
X015958Y016414D01*
X015968Y016455D01*
X015981Y016495D01*
X015999Y016533D01*
X016019Y016570D01*
X016044Y016605D01*
X016071Y016637D01*
X016101Y016666D01*
X016134Y016693D01*
X016169Y016716D01*
X016206Y016736D01*
X016245Y016752D01*
X016285Y016765D01*
X016326Y016774D01*
X016368Y016779D01*
X016411Y016780D01*
X016453Y016777D01*
X016494Y016770D01*
X016535Y016759D01*
X016575Y016745D01*
X016613Y016727D01*
X016649Y016705D01*
X016683Y016680D01*
X016714Y016652D01*
X016743Y016621D01*
X016769Y016588D01*
X016791Y016552D01*
X016811Y016514D01*
X016826Y016475D01*
X016838Y016435D01*
X016846Y016393D01*
X016850Y016351D01*
X016850Y016309D01*
X016846Y016267D01*
X016838Y016225D01*
X016826Y016185D01*
X016811Y016146D01*
X016791Y016108D01*
X016769Y016072D01*
X016743Y016039D01*
X016714Y016008D01*
X016683Y015980D01*
X016649Y015955D01*
X016613Y015933D01*
X016575Y015915D01*
X016535Y015901D01*
X016494Y015890D01*
X016453Y015883D01*
X016411Y015880D01*
X016368Y015881D01*
X016326Y015886D01*
X016285Y015895D01*
X016245Y015908D01*
X016206Y015924D01*
X016169Y015944D01*
X016134Y015967D01*
X016101Y015994D01*
X016071Y016023D01*
X016044Y016055D01*
X016019Y016090D01*
X015999Y016127D01*
X015981Y016165D01*
X015968Y016205D01*
X015958Y016246D01*
X015952Y016288D01*
X015950Y016330D01*
X019900Y016230D02*
X019900Y015130D01*
X019900Y015030D01*
X020000Y015030D01*
X020000Y015130D01*
X023600Y015130D01*
X023600Y015030D01*
X023700Y015030D01*
X023700Y015130D01*
X023600Y015130D01*
X023700Y015130D02*
X023700Y016830D01*
X019900Y016830D01*
X019900Y016230D01*
X020800Y016230D01*
X020800Y016430D02*
X020000Y016430D01*
X019950Y016330D02*
X019952Y016372D01*
X019958Y016414D01*
X019968Y016455D01*
X019981Y016495D01*
X019999Y016533D01*
X020019Y016570D01*
X020044Y016605D01*
X020071Y016637D01*
X020101Y016666D01*
X020134Y016693D01*
X020169Y016716D01*
X020206Y016736D01*
X020245Y016752D01*
X020285Y016765D01*
X020326Y016774D01*
X020368Y016779D01*
X020411Y016780D01*
X020453Y016777D01*
X020494Y016770D01*
X020535Y016759D01*
X020575Y016745D01*
X020613Y016727D01*
X020649Y016705D01*
X020683Y016680D01*
X020714Y016652D01*
X020743Y016621D01*
X020769Y016588D01*
X020791Y016552D01*
X020811Y016514D01*
X020826Y016475D01*
X020838Y016435D01*
X020846Y016393D01*
X020850Y016351D01*
X020850Y016309D01*
X020846Y016267D01*
X020838Y016225D01*
X020826Y016185D01*
X020811Y016146D01*
X020791Y016108D01*
X020769Y016072D01*
X020743Y016039D01*
X020714Y016008D01*
X020683Y015980D01*
X020649Y015955D01*
X020613Y015933D01*
X020575Y015915D01*
X020535Y015901D01*
X020494Y015890D01*
X020453Y015883D01*
X020411Y015880D01*
X020368Y015881D01*
X020326Y015886D01*
X020285Y015895D01*
X020245Y015908D01*
X020206Y015924D01*
X020169Y015944D01*
X020134Y015967D01*
X020101Y015994D01*
X020071Y016023D01*
X020044Y016055D01*
X020019Y016090D01*
X019999Y016127D01*
X019981Y016165D01*
X019968Y016205D01*
X019958Y016246D01*
X019952Y016288D01*
X019950Y016330D01*
X019900Y015130D02*
X020000Y015130D01*
X024625Y012495D02*
X024625Y012195D01*
X024625Y012345D02*
X024175Y012345D01*
X024325Y012195D01*
X024400Y012034D02*
X024475Y011959D01*
X024475Y011734D01*
X024625Y011734D02*
X024175Y011734D01*
X024175Y011959D01*
X024250Y012034D01*
X024400Y012034D01*
X024475Y011884D02*
X024625Y012034D01*
D13*
X024260Y007241D02*
X024154Y007241D01*
X024260Y007241D02*
X024470Y007031D01*
X024785Y007031D01*
X024470Y007031D02*
X024260Y006820D01*
X024154Y006820D01*
X024154Y006596D02*
X024785Y006596D01*
X024154Y006176D01*
X024785Y006176D01*
X024785Y005956D02*
X024785Y005746D01*
X024785Y005851D02*
X024154Y005851D01*
X024154Y005746D02*
X024154Y005956D01*
X024154Y005522D02*
X024154Y005102D01*
X024154Y005312D02*
X024785Y005312D01*
X024890Y004877D02*
X024890Y004457D01*
X024785Y004023D02*
X024154Y004023D01*
X024154Y003813D02*
X024154Y004233D01*
X024365Y003588D02*
X024785Y003588D01*
X024470Y003588D02*
X024470Y003168D01*
X024365Y003168D02*
X024154Y003378D01*
X024365Y003588D01*
X024365Y003168D02*
X024785Y003168D01*
D14*
X025200Y000730D02*
X031350Y000730D01*
X031350Y006130D01*
X025200Y006130D01*
X025200Y000730D01*
X012400Y000730D02*
X012400Y006130D01*
X006250Y006130D01*
X006250Y000730D01*
X012400Y000730D01*
D15*
X012300Y010010D03*
X013300Y010010D03*
X014300Y010010D03*
X014300Y012850D03*
X013300Y012850D03*
X012300Y012850D03*
X023550Y012850D03*
X023550Y010010D03*
D16*
X020227Y017073D02*
X019920Y017073D01*
X020380Y017150D02*
X020380Y017457D01*
X020611Y017457D01*
X020687Y017380D01*
X020687Y017150D01*
X020841Y017227D02*
X020918Y017303D01*
X021148Y017303D01*
X021148Y017380D02*
X021148Y017150D01*
X020918Y017150D01*
X020841Y017227D01*
X020918Y017457D02*
X021071Y017457D01*
X021148Y017380D01*
X021301Y017457D02*
X021301Y017150D01*
X021455Y017150D02*
X021455Y017380D01*
X021531Y017457D01*
X021608Y017380D01*
X021608Y017150D01*
X021762Y017227D02*
X021762Y017380D01*
X021838Y017457D01*
X021992Y017457D01*
X022068Y017380D01*
X022068Y017303D01*
X021762Y017303D01*
X021762Y017227D02*
X021838Y017150D01*
X021992Y017150D01*
X021455Y017380D02*
X021378Y017457D01*
X021301Y017457D01*
X018068Y017380D02*
X018068Y017303D01*
X017762Y017303D01*
X017762Y017227D02*
X017762Y017380D01*
X017838Y017457D01*
X017992Y017457D01*
X018068Y017380D01*
X017992Y017150D02*
X017838Y017150D01*
X017762Y017227D01*
X017608Y017150D02*
X017608Y017380D01*
X017531Y017457D01*
X017455Y017380D01*
X017455Y017150D01*
X017301Y017150D02*
X017301Y017457D01*
X017378Y017457D01*
X017455Y017380D01*
X017148Y017380D02*
X017148Y017150D01*
X016918Y017150D01*
X016841Y017227D01*
X016918Y017303D01*
X017148Y017303D01*
X017148Y017380D02*
X017071Y017457D01*
X016918Y017457D01*
X016687Y017380D02*
X016687Y017150D01*
X016687Y017380D02*
X016611Y017457D01*
X016380Y017457D01*
X016380Y017150D01*
X016227Y017073D02*
X015920Y017073D01*
X001530Y015220D02*
X001530Y015066D01*
X001453Y014990D01*
X001300Y014990D01*
X001223Y015066D01*
X001223Y015220D01*
X001300Y015297D01*
X001377Y015297D01*
X001377Y014990D01*
X001530Y014836D02*
X001530Y014606D01*
X001453Y014529D01*
X001300Y014529D01*
X001223Y014606D01*
X001223Y014836D01*
X000780Y014759D02*
X000473Y014452D01*
X000550Y014299D02*
X000627Y014299D01*
X000627Y013992D01*
X000703Y013992D02*
X000550Y013992D01*
X000473Y014069D01*
X000473Y014222D01*
X000550Y014299D01*
X000780Y014222D02*
X000780Y014069D01*
X000703Y013992D01*
X000780Y013839D02*
X000780Y013685D01*
X000780Y013762D02*
X000320Y013762D01*
X000320Y013685D01*
X000320Y013532D02*
X000320Y013225D01*
X000780Y013225D01*
X000550Y013225D02*
X000550Y013378D01*
X001070Y013225D02*
X001070Y013532D01*
X001300Y013685D02*
X001453Y013685D01*
X001530Y013762D01*
X001530Y013915D01*
X001453Y013992D01*
X001300Y013992D01*
X001223Y013915D01*
X001223Y013762D01*
X001300Y013685D01*
X001300Y013378D02*
X001300Y013225D01*
X001530Y013225D02*
X001070Y013225D01*
X001223Y014146D02*
X001530Y014146D01*
X001377Y014146D02*
X001223Y014299D01*
X001223Y014376D01*
X000780Y014452D02*
X000473Y014759D01*
X000473Y014913D02*
X000473Y014990D01*
X000780Y014990D01*
X000780Y015066D02*
X000780Y014913D01*
X000320Y014990D02*
X000243Y014990D01*
M02*
