G75*
%MOIN*%
%OFA0B0*%
%FSLAX24Y24*%
%IPPOS*%
%LPD*%
%AMOC8*
5,1,8,0,0,1.08239X$1,22.5*
%
%ADD10C,0.0600*%
%ADD11C,0.0520*%
%ADD12C,0.0515*%
%ADD13OC8,0.0520*%
%ADD14C,0.0705*%
%ADD15OC8,0.0760*%
%ADD16OC8,0.0630*%
%ADD17C,0.0475*%
%ADD18C,0.0240*%
%ADD19C,0.0160*%
D10*
X010800Y006430D02*
X010800Y007030D01*
X011800Y007030D02*
X011800Y006430D01*
X012800Y006430D02*
X012800Y007030D01*
D11*
X014300Y007920D02*
X014300Y008440D01*
X015300Y008440D02*
X015300Y007920D01*
X016300Y007920D02*
X016300Y008440D01*
X017300Y008440D02*
X017300Y007920D01*
X018300Y007920D02*
X018300Y008440D01*
X019300Y008440D02*
X019300Y007920D01*
X020300Y007920D02*
X020300Y008440D01*
X021300Y008440D02*
X021300Y007920D01*
X022300Y007920D02*
X022300Y008440D01*
X023300Y008440D02*
X023300Y007920D01*
X021800Y009920D02*
X021800Y010440D01*
X020800Y010440D02*
X020800Y009920D01*
X019800Y009920D02*
X019800Y010440D01*
X018800Y010440D02*
X018800Y009920D01*
X017800Y009920D02*
X017800Y010440D01*
X016800Y010440D02*
X016800Y009920D01*
X015800Y009920D02*
X015800Y010440D01*
X013060Y010180D02*
X012540Y010180D01*
X012540Y009180D02*
X013060Y009180D01*
X011060Y009180D02*
X010540Y009180D01*
X010540Y010180D02*
X011060Y010180D01*
X011060Y011180D02*
X010540Y011180D01*
X010540Y012180D02*
X011060Y012180D01*
X011060Y013180D02*
X010540Y013180D01*
X010540Y014180D02*
X011060Y014180D01*
X011060Y015180D02*
X010540Y015180D01*
X010540Y016180D02*
X011060Y016180D01*
X012540Y016180D02*
X013060Y016180D01*
X013060Y015180D02*
X012540Y015180D01*
X012540Y014180D02*
X013060Y014180D01*
X013060Y013180D02*
X012540Y013180D01*
X012540Y012180D02*
X013060Y012180D01*
X013060Y011180D02*
X012540Y011180D01*
X015800Y012920D02*
X015800Y013440D01*
X016800Y013440D02*
X016800Y012920D01*
X017800Y012920D02*
X017800Y013440D01*
X018800Y013440D02*
X018800Y012920D01*
X019800Y012920D02*
X019800Y013440D01*
X020800Y013440D02*
X020800Y012920D01*
X021800Y012920D02*
X021800Y013440D01*
X021300Y005440D02*
X021300Y004920D01*
X020300Y004920D02*
X020300Y005440D01*
X019300Y005440D02*
X019300Y004920D01*
X018300Y004920D02*
X018300Y005440D01*
X017300Y005440D02*
X017300Y004920D01*
X016300Y004920D02*
X016300Y005440D01*
X015300Y005440D02*
X015300Y004920D01*
X014300Y004920D02*
X014300Y005440D01*
X022300Y005440D02*
X022300Y004920D01*
X023300Y004920D02*
X023300Y005440D01*
D12*
X025793Y004430D02*
X026307Y004430D01*
X025307Y003930D02*
X024793Y003930D01*
X025793Y003430D02*
X026307Y003430D01*
X025307Y002930D02*
X024793Y002930D01*
X025793Y002430D02*
X026307Y002430D01*
X025307Y001930D02*
X024793Y001930D01*
X012057Y002430D02*
X011543Y002430D01*
X011057Y001930D02*
X010543Y001930D01*
X010543Y002930D02*
X011057Y002930D01*
X011543Y003430D02*
X012057Y003430D01*
X011057Y003930D02*
X010543Y003930D01*
X011543Y004430D02*
X012057Y004430D01*
D13*
X013050Y004930D03*
X013050Y000930D03*
X014550Y009680D03*
X014550Y013680D03*
X023550Y013680D03*
X023550Y009680D03*
D14*
X007153Y011696D02*
X006448Y011696D01*
X006448Y013664D02*
X007153Y013664D01*
D15*
X016800Y015680D03*
X017800Y016680D03*
X018800Y015680D03*
X020800Y015680D03*
X021800Y016680D03*
X022800Y015680D03*
D16*
X019550Y003680D03*
X017550Y003680D03*
X016300Y003680D03*
X014300Y003680D03*
D17*
X009800Y005180D03*
X011800Y005180D03*
X020800Y004180D03*
X020800Y001930D03*
D18*
X011800Y005180D02*
X009800Y005180D01*
D19*
X020800Y004180D02*
X020800Y001930D01*
M02*
