G75*
%MOIN*%
%OFA0B0*%
%FSLAX24Y24*%
%IPPOS*%
%LPD*%
%AMOC8*
5,1,8,0,0,1.08239X$1,22.5*
%
%ADD10C,0.0240*%
%ADD11C,0.0160*%
%ADD12C,0.0100*%
%ADD13C,0.0190*%
%ADD14C,0.0260*%
%ADD15C,0.0130*%
%ADD16C,0.0600*%
%ADD17C,0.0520*%
%ADD18C,0.0515*%
%ADD19OC8,0.0520*%
%ADD20C,0.0705*%
%ADD21OC8,0.0760*%
%ADD22OC8,0.0630*%
%ADD23C,0.0475*%
D10*
X007800Y001180D02*
X007802Y001224D01*
X007808Y001268D01*
X007818Y001311D01*
X007831Y001353D01*
X007848Y001394D01*
X007869Y001433D01*
X007893Y001470D01*
X007920Y001505D01*
X007950Y001537D01*
X007983Y001567D01*
X008019Y001593D01*
X008056Y001617D01*
X008096Y001636D01*
X008137Y001653D01*
X008180Y001665D01*
X008223Y001674D01*
X008267Y001679D01*
X008311Y001680D01*
X008355Y001677D01*
X008399Y001670D01*
X008442Y001659D01*
X008484Y001645D01*
X008524Y001627D01*
X008563Y001605D01*
X008599Y001581D01*
X008633Y001553D01*
X008665Y001522D01*
X008694Y001488D01*
X008720Y001452D01*
X008742Y001414D01*
X008761Y001374D01*
X008776Y001332D01*
X008788Y001290D01*
X008796Y001246D01*
X008800Y001202D01*
X008800Y001158D01*
X008796Y001114D01*
X008788Y001070D01*
X008776Y001028D01*
X008761Y000986D01*
X008742Y000946D01*
X008720Y000908D01*
X008694Y000872D01*
X008665Y000838D01*
X008633Y000807D01*
X008599Y000779D01*
X008563Y000755D01*
X008524Y000733D01*
X008484Y000715D01*
X008442Y000701D01*
X008399Y000690D01*
X008355Y000683D01*
X008311Y000680D01*
X008267Y000681D01*
X008223Y000686D01*
X008180Y000695D01*
X008137Y000707D01*
X008096Y000724D01*
X008056Y000743D01*
X008019Y000767D01*
X007983Y000793D01*
X007950Y000823D01*
X007920Y000855D01*
X007893Y000890D01*
X007869Y000927D01*
X007848Y000966D01*
X007831Y001007D01*
X007818Y001049D01*
X007808Y001092D01*
X007802Y001136D01*
X007800Y001180D01*
X009300Y002230D02*
X010600Y000930D01*
X013050Y000930D01*
X023300Y000930D01*
X024800Y002430D01*
X026050Y002430D01*
X025050Y002930D02*
X024550Y002930D01*
X023050Y001430D01*
X011050Y001430D01*
X009800Y002680D01*
X009800Y003180D01*
X010050Y003430D01*
X011800Y003430D01*
X011800Y005180D01*
X012800Y006180D01*
X012800Y006730D01*
X018300Y006730D01*
X019300Y005730D01*
X019300Y005180D01*
X019300Y003930D01*
X019550Y003680D01*
X019550Y003430D01*
X019050Y002930D01*
X017050Y002930D01*
X016300Y003680D01*
X016900Y004330D02*
X013650Y004330D01*
X013050Y004930D01*
X013650Y004330D02*
X014300Y003680D01*
X013050Y002430D02*
X012550Y002930D01*
X010800Y002930D01*
X011800Y002430D02*
X012300Y001930D01*
X020800Y001930D01*
X022550Y001930D01*
X024550Y003930D01*
X025050Y003930D01*
X025550Y004680D02*
X026050Y004180D01*
X026050Y003430D01*
X025550Y004680D02*
X024400Y004680D01*
X022800Y003080D01*
X022150Y002430D01*
X013050Y002430D01*
X010800Y003930D02*
X010800Y007180D01*
X010800Y006730D02*
X010800Y007680D01*
X011300Y008180D01*
X014300Y008180D01*
X014300Y009180D01*
X018300Y009180D01*
X018800Y009180D01*
X019300Y008680D01*
X019300Y008180D01*
X018300Y008180D02*
X018300Y007680D01*
X017350Y006730D01*
X012800Y006730D01*
X011800Y006730D02*
X011800Y007180D01*
X012300Y007680D01*
X013300Y007680D01*
X013800Y007180D01*
X014800Y007180D01*
X015300Y007680D01*
X015300Y008180D01*
X014300Y009180D02*
X014300Y009380D01*
X014550Y009630D01*
X014550Y009680D01*
X014300Y009430D01*
X014300Y009380D01*
X013800Y009680D02*
X013300Y009180D01*
X012800Y009180D01*
X012300Y010180D02*
X011800Y009680D01*
X011800Y008680D01*
X011300Y008180D01*
X011800Y008680D02*
X011300Y009180D01*
X010800Y009180D01*
X009800Y009180D02*
X008800Y010180D01*
X008800Y015430D01*
X010450Y017080D01*
X011800Y017080D01*
X016400Y017080D01*
X017800Y015680D01*
X018800Y015680D01*
X018800Y013180D01*
X017800Y013180D02*
X017800Y013680D01*
X017300Y014180D01*
X015500Y014180D01*
X015200Y013880D01*
X015200Y013180D01*
X013800Y011780D01*
X013800Y011180D01*
X012800Y011180D01*
X013800Y011180D02*
X013800Y009680D01*
X012800Y010180D02*
X012300Y010180D01*
X011800Y010680D02*
X011800Y009680D01*
X010800Y010180D02*
X010300Y010180D01*
X009800Y010680D01*
X009800Y012180D01*
X010800Y012180D01*
X011300Y012180D01*
X012300Y013180D01*
X012800Y013180D01*
X013800Y013180D01*
X013800Y011780D01*
X012800Y012180D02*
X012300Y012180D01*
X011800Y011680D01*
X011800Y010680D01*
X011300Y011180D01*
X010800Y011180D01*
X009800Y012180D02*
X009800Y014180D01*
X009800Y015680D01*
X010300Y016180D01*
X010800Y016180D01*
X011300Y015180D02*
X011800Y015680D01*
X011800Y016680D01*
X012300Y016180D01*
X012800Y016180D01*
X011800Y016680D02*
X011800Y017080D01*
X010100Y017580D02*
X007800Y015280D01*
X007800Y011930D01*
X007550Y011680D01*
X007300Y011680D01*
X006800Y011680D01*
X007284Y011696D02*
X007300Y011680D01*
X006800Y013664D02*
X006800Y014180D01*
X006000Y014980D01*
X006000Y017280D01*
X006700Y018080D01*
X019800Y018080D01*
X020900Y016980D01*
X020900Y016580D01*
X021800Y015680D01*
X021800Y014680D01*
X021300Y014180D01*
X021300Y012180D01*
X020800Y011680D01*
X020800Y010180D01*
X021800Y010180D01*
X023550Y010430D02*
X023550Y009680D01*
X024050Y009180D01*
X024050Y006930D01*
X023300Y006180D01*
X023300Y005180D01*
X022800Y006430D02*
X022800Y003080D01*
X020800Y004180D02*
X020800Y006430D01*
X021300Y006930D01*
X021300Y008180D01*
X019800Y009180D02*
X019300Y009680D01*
X019300Y011430D01*
X019050Y011680D01*
X019800Y012430D01*
X019800Y013180D01*
X020800Y013180D02*
X020800Y015680D01*
X020300Y016180D01*
X020300Y016830D01*
X019550Y017580D01*
X010100Y017580D01*
X011800Y015680D02*
X011800Y014680D01*
X012300Y014180D01*
X012800Y014180D01*
X011800Y013680D02*
X011800Y014680D01*
X011300Y015180D02*
X010800Y015180D01*
X010800Y014180D02*
X009800Y014180D01*
X010800Y013180D02*
X011300Y013180D01*
X011800Y013680D01*
X013800Y013180D02*
X013800Y014680D01*
X013300Y015180D01*
X012800Y015180D01*
X014550Y014680D02*
X015550Y015680D01*
X016800Y015680D01*
X017800Y016680D02*
X019300Y016680D01*
X019800Y016180D01*
X019800Y014680D01*
X020300Y014180D01*
X020300Y012180D01*
X019800Y011680D01*
X019800Y010180D01*
X018800Y010180D02*
X018800Y009680D01*
X018300Y009180D01*
X017800Y010180D02*
X017800Y011430D01*
X017550Y011680D01*
X016800Y011680D01*
X015800Y012680D01*
X015800Y013180D01*
X016800Y013180D01*
X014550Y013680D02*
X014550Y014680D01*
X017550Y011680D02*
X019050Y011680D01*
X016800Y010180D02*
X015800Y010180D01*
X019800Y009180D02*
X019800Y006930D01*
X020300Y006430D01*
X020300Y005180D01*
X018300Y005180D02*
X018300Y004430D01*
X017550Y003680D01*
X016900Y004330D01*
X010800Y003930D02*
X009800Y003930D01*
X009300Y003430D01*
X009300Y002230D01*
X009800Y005180D02*
X009800Y009180D01*
X007800Y005180D02*
X007802Y005224D01*
X007808Y005268D01*
X007818Y005311D01*
X007831Y005353D01*
X007848Y005394D01*
X007869Y005433D01*
X007893Y005470D01*
X007920Y005505D01*
X007950Y005537D01*
X007983Y005567D01*
X008019Y005593D01*
X008056Y005617D01*
X008096Y005636D01*
X008137Y005653D01*
X008180Y005665D01*
X008223Y005674D01*
X008267Y005679D01*
X008311Y005680D01*
X008355Y005677D01*
X008399Y005670D01*
X008442Y005659D01*
X008484Y005645D01*
X008524Y005627D01*
X008563Y005605D01*
X008599Y005581D01*
X008633Y005553D01*
X008665Y005522D01*
X008694Y005488D01*
X008720Y005452D01*
X008742Y005414D01*
X008761Y005374D01*
X008776Y005332D01*
X008788Y005290D01*
X008796Y005246D01*
X008800Y005202D01*
X008800Y005158D01*
X008796Y005114D01*
X008788Y005070D01*
X008776Y005028D01*
X008761Y004986D01*
X008742Y004946D01*
X008720Y004908D01*
X008694Y004872D01*
X008665Y004838D01*
X008633Y004807D01*
X008599Y004779D01*
X008563Y004755D01*
X008524Y004733D01*
X008484Y004715D01*
X008442Y004701D01*
X008399Y004690D01*
X008355Y004683D01*
X008311Y004680D01*
X008267Y004681D01*
X008223Y004686D01*
X008180Y004695D01*
X008137Y004707D01*
X008096Y004724D01*
X008056Y004743D01*
X008019Y004767D01*
X007983Y004793D01*
X007950Y004823D01*
X007920Y004855D01*
X007893Y004890D01*
X007869Y004927D01*
X007848Y004966D01*
X007831Y005007D01*
X007818Y005049D01*
X007808Y005092D01*
X007802Y005136D01*
X007800Y005180D01*
X021800Y012180D02*
X023550Y010430D01*
X021800Y012180D02*
X021800Y013180D01*
X023550Y013680D02*
X023550Y016180D01*
X023050Y016680D01*
X021800Y016680D01*
X023300Y008180D02*
X023300Y006930D01*
X022800Y006430D01*
X028050Y005180D02*
X028052Y005224D01*
X028058Y005268D01*
X028068Y005311D01*
X028081Y005353D01*
X028098Y005394D01*
X028119Y005433D01*
X028143Y005470D01*
X028170Y005505D01*
X028200Y005537D01*
X028233Y005567D01*
X028269Y005593D01*
X028306Y005617D01*
X028346Y005636D01*
X028387Y005653D01*
X028430Y005665D01*
X028473Y005674D01*
X028517Y005679D01*
X028561Y005680D01*
X028605Y005677D01*
X028649Y005670D01*
X028692Y005659D01*
X028734Y005645D01*
X028774Y005627D01*
X028813Y005605D01*
X028849Y005581D01*
X028883Y005553D01*
X028915Y005522D01*
X028944Y005488D01*
X028970Y005452D01*
X028992Y005414D01*
X029011Y005374D01*
X029026Y005332D01*
X029038Y005290D01*
X029046Y005246D01*
X029050Y005202D01*
X029050Y005158D01*
X029046Y005114D01*
X029038Y005070D01*
X029026Y005028D01*
X029011Y004986D01*
X028992Y004946D01*
X028970Y004908D01*
X028944Y004872D01*
X028915Y004838D01*
X028883Y004807D01*
X028849Y004779D01*
X028813Y004755D01*
X028774Y004733D01*
X028734Y004715D01*
X028692Y004701D01*
X028649Y004690D01*
X028605Y004683D01*
X028561Y004680D01*
X028517Y004681D01*
X028473Y004686D01*
X028430Y004695D01*
X028387Y004707D01*
X028346Y004724D01*
X028306Y004743D01*
X028269Y004767D01*
X028233Y004793D01*
X028200Y004823D01*
X028170Y004855D01*
X028143Y004890D01*
X028119Y004927D01*
X028098Y004966D01*
X028081Y005007D01*
X028068Y005049D01*
X028058Y005092D01*
X028052Y005136D01*
X028050Y005180D01*
X028050Y001180D02*
X028052Y001224D01*
X028058Y001268D01*
X028068Y001311D01*
X028081Y001353D01*
X028098Y001394D01*
X028119Y001433D01*
X028143Y001470D01*
X028170Y001505D01*
X028200Y001537D01*
X028233Y001567D01*
X028269Y001593D01*
X028306Y001617D01*
X028346Y001636D01*
X028387Y001653D01*
X028430Y001665D01*
X028473Y001674D01*
X028517Y001679D01*
X028561Y001680D01*
X028605Y001677D01*
X028649Y001670D01*
X028692Y001659D01*
X028734Y001645D01*
X028774Y001627D01*
X028813Y001605D01*
X028849Y001581D01*
X028883Y001553D01*
X028915Y001522D01*
X028944Y001488D01*
X028970Y001452D01*
X028992Y001414D01*
X029011Y001374D01*
X029026Y001332D01*
X029038Y001290D01*
X029046Y001246D01*
X029050Y001202D01*
X029050Y001158D01*
X029046Y001114D01*
X029038Y001070D01*
X029026Y001028D01*
X029011Y000986D01*
X028992Y000946D01*
X028970Y000908D01*
X028944Y000872D01*
X028915Y000838D01*
X028883Y000807D01*
X028849Y000779D01*
X028813Y000755D01*
X028774Y000733D01*
X028734Y000715D01*
X028692Y000701D01*
X028649Y000690D01*
X028605Y000683D01*
X028561Y000680D01*
X028517Y000681D01*
X028473Y000686D01*
X028430Y000695D01*
X028387Y000707D01*
X028346Y000724D01*
X028306Y000743D01*
X028269Y000767D01*
X028233Y000793D01*
X028200Y000823D01*
X028170Y000855D01*
X028143Y000890D01*
X028119Y000927D01*
X028098Y000966D01*
X028081Y001007D01*
X028068Y001049D01*
X028058Y001092D01*
X028052Y001136D01*
X028050Y001180D01*
D11*
X031500Y000180D02*
X005300Y000180D01*
X005300Y018680D01*
X031500Y018680D01*
X031500Y000180D01*
X028750Y008180D02*
X028752Y008234D01*
X028758Y008288D01*
X028768Y008341D01*
X028781Y008394D01*
X028798Y008445D01*
X028819Y008495D01*
X028844Y008543D01*
X028872Y008590D01*
X028903Y008634D01*
X028937Y008676D01*
X028974Y008715D01*
X029014Y008752D01*
X029057Y008785D01*
X029102Y008816D01*
X029149Y008843D01*
X029197Y008866D01*
X029248Y008886D01*
X029299Y008903D01*
X029352Y008915D01*
X029405Y008924D01*
X029459Y008929D01*
X029514Y008930D01*
X029568Y008927D01*
X029621Y008920D01*
X029674Y008909D01*
X029727Y008895D01*
X029778Y008877D01*
X029827Y008855D01*
X029875Y008830D01*
X029921Y008801D01*
X029965Y008769D01*
X030006Y008734D01*
X030044Y008696D01*
X030080Y008655D01*
X030113Y008612D01*
X030143Y008567D01*
X030169Y008519D01*
X030192Y008470D01*
X030211Y008419D01*
X030226Y008368D01*
X030238Y008315D01*
X030246Y008261D01*
X030250Y008207D01*
X030250Y008153D01*
X030246Y008099D01*
X030238Y008045D01*
X030226Y007992D01*
X030211Y007941D01*
X030192Y007890D01*
X030169Y007841D01*
X030143Y007793D01*
X030113Y007748D01*
X030080Y007705D01*
X030044Y007664D01*
X030006Y007626D01*
X029965Y007591D01*
X029921Y007559D01*
X029875Y007530D01*
X029827Y007505D01*
X029778Y007483D01*
X029727Y007465D01*
X029674Y007451D01*
X029621Y007440D01*
X029568Y007433D01*
X029514Y007430D01*
X029459Y007431D01*
X029405Y007436D01*
X029352Y007445D01*
X029299Y007457D01*
X029248Y007474D01*
X029197Y007494D01*
X029149Y007517D01*
X029102Y007544D01*
X029057Y007575D01*
X029014Y007608D01*
X028974Y007645D01*
X028937Y007684D01*
X028903Y007726D01*
X028872Y007770D01*
X028844Y007817D01*
X028819Y007865D01*
X028798Y007915D01*
X028781Y007966D01*
X028768Y008019D01*
X028758Y008072D01*
X028752Y008126D01*
X028750Y008180D01*
X028650Y016680D02*
X028652Y016734D01*
X028658Y016788D01*
X028668Y016841D01*
X028681Y016894D01*
X028698Y016945D01*
X028719Y016995D01*
X028744Y017043D01*
X028772Y017090D01*
X028803Y017134D01*
X028837Y017176D01*
X028874Y017215D01*
X028914Y017252D01*
X028957Y017285D01*
X029002Y017316D01*
X029049Y017343D01*
X029097Y017366D01*
X029148Y017386D01*
X029199Y017403D01*
X029252Y017415D01*
X029305Y017424D01*
X029359Y017429D01*
X029414Y017430D01*
X029468Y017427D01*
X029521Y017420D01*
X029574Y017409D01*
X029627Y017395D01*
X029678Y017377D01*
X029727Y017355D01*
X029775Y017330D01*
X029821Y017301D01*
X029865Y017269D01*
X029906Y017234D01*
X029944Y017196D01*
X029980Y017155D01*
X030013Y017112D01*
X030043Y017067D01*
X030069Y017019D01*
X030092Y016970D01*
X030111Y016919D01*
X030126Y016868D01*
X030138Y016815D01*
X030146Y016761D01*
X030150Y016707D01*
X030150Y016653D01*
X030146Y016599D01*
X030138Y016545D01*
X030126Y016492D01*
X030111Y016441D01*
X030092Y016390D01*
X030069Y016341D01*
X030043Y016293D01*
X030013Y016248D01*
X029980Y016205D01*
X029944Y016164D01*
X029906Y016126D01*
X029865Y016091D01*
X029821Y016059D01*
X029775Y016030D01*
X029727Y016005D01*
X029678Y015983D01*
X029627Y015965D01*
X029574Y015951D01*
X029521Y015940D01*
X029468Y015933D01*
X029414Y015930D01*
X029359Y015931D01*
X029305Y015936D01*
X029252Y015945D01*
X029199Y015957D01*
X029148Y015974D01*
X029097Y015994D01*
X029049Y016017D01*
X029002Y016044D01*
X028957Y016075D01*
X028914Y016108D01*
X028874Y016145D01*
X028837Y016184D01*
X028803Y016226D01*
X028772Y016270D01*
X028744Y016317D01*
X028719Y016365D01*
X028698Y016415D01*
X028681Y016466D01*
X028668Y016519D01*
X028658Y016572D01*
X028652Y016626D01*
X028650Y016680D01*
X006550Y016680D02*
X006552Y016734D01*
X006558Y016788D01*
X006568Y016841D01*
X006581Y016894D01*
X006598Y016945D01*
X006619Y016995D01*
X006644Y017043D01*
X006672Y017090D01*
X006703Y017134D01*
X006737Y017176D01*
X006774Y017215D01*
X006814Y017252D01*
X006857Y017285D01*
X006902Y017316D01*
X006949Y017343D01*
X006997Y017366D01*
X007048Y017386D01*
X007099Y017403D01*
X007152Y017415D01*
X007205Y017424D01*
X007259Y017429D01*
X007314Y017430D01*
X007368Y017427D01*
X007421Y017420D01*
X007474Y017409D01*
X007527Y017395D01*
X007578Y017377D01*
X007627Y017355D01*
X007675Y017330D01*
X007721Y017301D01*
X007765Y017269D01*
X007806Y017234D01*
X007844Y017196D01*
X007880Y017155D01*
X007913Y017112D01*
X007943Y017067D01*
X007969Y017019D01*
X007992Y016970D01*
X008011Y016919D01*
X008026Y016868D01*
X008038Y016815D01*
X008046Y016761D01*
X008050Y016707D01*
X008050Y016653D01*
X008046Y016599D01*
X008038Y016545D01*
X008026Y016492D01*
X008011Y016441D01*
X007992Y016390D01*
X007969Y016341D01*
X007943Y016293D01*
X007913Y016248D01*
X007880Y016205D01*
X007844Y016164D01*
X007806Y016126D01*
X007765Y016091D01*
X007721Y016059D01*
X007675Y016030D01*
X007627Y016005D01*
X007578Y015983D01*
X007527Y015965D01*
X007474Y015951D01*
X007421Y015940D01*
X007368Y015933D01*
X007314Y015930D01*
X007259Y015931D01*
X007205Y015936D01*
X007152Y015945D01*
X007099Y015957D01*
X007048Y015974D01*
X006997Y015994D01*
X006949Y016017D01*
X006902Y016044D01*
X006857Y016075D01*
X006814Y016108D01*
X006774Y016145D01*
X006737Y016184D01*
X006703Y016226D01*
X006672Y016270D01*
X006644Y016317D01*
X006619Y016365D01*
X006598Y016415D01*
X006581Y016466D01*
X006568Y016519D01*
X006558Y016572D01*
X006552Y016626D01*
X006550Y016680D01*
X006800Y011696D02*
X006800Y011680D01*
D12*
X006954Y009790D02*
X007235Y009790D01*
X007235Y009230D01*
X006954Y009230D01*
X006861Y009323D01*
X006861Y009697D01*
X006954Y009790D01*
X007469Y009790D02*
X007469Y009230D01*
X007842Y009790D01*
X007842Y009230D01*
X008076Y009323D02*
X008076Y009510D01*
X008263Y009510D01*
X008076Y009323D02*
X008170Y009230D01*
X008357Y009230D01*
X008450Y009323D01*
X008450Y009697D01*
X008357Y009790D01*
X008170Y009790D01*
X008076Y009697D01*
X008313Y008780D02*
X008500Y008780D01*
X008500Y008220D01*
X008313Y008220D01*
X008095Y008500D02*
X007721Y008500D01*
X007487Y008500D02*
X007113Y008500D01*
X006879Y008780D02*
X006506Y008220D01*
X006272Y008220D02*
X006085Y008220D01*
X006085Y008780D01*
X006272Y008780D01*
X006506Y008780D02*
X006879Y008220D01*
X006272Y007790D02*
X006085Y007790D01*
X006085Y007230D01*
X006272Y007230D01*
X006506Y007510D02*
X006879Y007510D01*
X007113Y007510D02*
X007487Y007510D01*
X007721Y007230D02*
X008095Y007790D01*
X008313Y007790D02*
X008500Y007790D01*
X008500Y007230D01*
X008313Y007230D01*
X008095Y007230D02*
X007721Y007790D01*
X007649Y006890D02*
X007742Y006797D01*
X007742Y006423D01*
X007649Y006330D01*
X007462Y006330D01*
X007369Y006423D01*
X007135Y006423D02*
X007041Y006330D01*
X006854Y006330D01*
X006761Y006423D01*
X007135Y006423D02*
X007135Y006797D01*
X007041Y006890D01*
X006854Y006890D01*
X006761Y006797D01*
X007369Y006797D02*
X007462Y006890D01*
X007649Y006890D01*
X007976Y006890D02*
X007976Y006517D01*
X008163Y006330D01*
X008350Y006517D01*
X008350Y006890D01*
D13*
X006550Y005645D02*
X006145Y005104D01*
X006550Y004724D02*
X006550Y004183D01*
X006280Y003803D02*
X006145Y003668D01*
X006145Y003398D01*
X006280Y003263D01*
X006821Y003803D01*
X006280Y003803D01*
X006821Y003803D02*
X006956Y003668D01*
X006956Y003398D01*
X006821Y003263D01*
X006280Y003263D01*
X006280Y002882D02*
X006821Y002882D01*
X006956Y002747D01*
X006956Y002342D01*
X006145Y002342D01*
X006145Y002747D01*
X006280Y002882D01*
X006145Y001962D02*
X006685Y001962D01*
X006956Y001691D01*
X006685Y001421D01*
X006145Y001421D01*
X006550Y001421D02*
X006550Y001962D01*
X006956Y005104D02*
X006550Y005645D01*
D14*
X025129Y010079D02*
X025956Y010906D01*
X025749Y010700D02*
X026370Y010079D01*
X026370Y010906D02*
X025129Y010906D01*
X025336Y011460D02*
X025543Y011460D01*
X025749Y011667D01*
X025956Y011460D01*
X026163Y011460D01*
X026370Y011667D01*
X026370Y012081D01*
X026163Y012288D01*
X025749Y011874D02*
X025749Y011667D01*
X025336Y011460D02*
X025129Y011667D01*
X025129Y012081D01*
X025336Y012288D01*
X025336Y012841D02*
X025749Y012841D01*
X025956Y013048D01*
X025956Y013669D01*
X026370Y013669D02*
X025129Y013669D01*
X025129Y013048D01*
X025336Y012841D01*
X025956Y013255D02*
X026370Y012841D01*
X026163Y014223D02*
X025956Y014223D01*
X025749Y014429D01*
X025749Y015050D01*
X025129Y015050D02*
X025129Y014429D01*
X025336Y014223D01*
X025543Y014223D01*
X025749Y014429D01*
X026163Y014223D02*
X026370Y014429D01*
X026370Y015050D01*
X025129Y015050D01*
D15*
X027224Y015115D02*
X027224Y014628D01*
X027590Y014871D02*
X027590Y015115D01*
X027955Y015115D02*
X027224Y015115D01*
X028514Y014871D02*
X028758Y014628D01*
X029245Y014628D01*
X028880Y014628D02*
X028880Y015115D01*
X028758Y015115D02*
X028514Y014871D01*
X028758Y015115D02*
X029245Y015115D01*
X029804Y015115D02*
X030291Y015115D01*
X030535Y014871D01*
X030291Y014628D01*
X029804Y014628D01*
X030048Y014323D02*
X029804Y014080D01*
X030535Y014080D01*
X030535Y014323D02*
X030535Y013836D01*
X030535Y013531D02*
X030535Y013409D01*
X030413Y013409D01*
X030413Y013531D01*
X030535Y013531D01*
X030413Y013135D02*
X029926Y013135D01*
X029804Y013014D01*
X029804Y012770D01*
X029926Y012648D01*
X030413Y013135D01*
X030535Y013014D01*
X030535Y012770D01*
X030413Y012648D01*
X029926Y012648D01*
X029245Y012739D02*
X029245Y012252D01*
X029245Y012496D02*
X028514Y012496D01*
X028758Y012739D01*
X028636Y013044D02*
X029123Y013531D01*
X029245Y013409D01*
X029245Y013166D01*
X029123Y013044D01*
X028636Y013044D01*
X028514Y013166D01*
X028514Y013409D01*
X028636Y013531D01*
X029123Y013531D01*
X029123Y013836D02*
X029001Y013836D01*
X028880Y013958D01*
X028880Y014080D01*
X028880Y013958D02*
X028758Y013836D01*
X028636Y013836D01*
X028514Y013958D01*
X028514Y014201D01*
X028636Y014323D01*
X029123Y014323D02*
X029245Y014201D01*
X029245Y013958D01*
X029123Y013836D01*
X027955Y013673D02*
X027955Y013430D01*
X027955Y013673D02*
X027833Y013795D01*
X027590Y013795D01*
X027468Y013673D01*
X027468Y013430D01*
X027590Y013308D01*
X027711Y013308D01*
X027711Y013795D01*
X027955Y014080D02*
X027955Y014323D01*
X027955Y014201D02*
X027224Y014201D01*
X027224Y014323D01*
X027468Y013003D02*
X027955Y012516D01*
X027955Y013003D02*
X027468Y012516D01*
X027468Y012211D02*
X027468Y012090D01*
X027955Y012090D01*
X027955Y012211D02*
X027955Y011968D01*
X027955Y011684D02*
X027224Y011684D01*
X027224Y011196D01*
X027590Y011440D02*
X027590Y011684D01*
X027224Y012090D02*
X027103Y012090D01*
X027590Y010892D02*
X027833Y010892D01*
X027955Y010770D01*
X027955Y010526D01*
X027833Y010405D01*
X027590Y010405D01*
X027468Y010526D01*
X027468Y010770D01*
X027590Y010892D01*
X027711Y010100D02*
X027468Y009856D01*
X027468Y009734D01*
X027590Y009440D02*
X027833Y009440D01*
X027955Y009318D01*
X027955Y008953D01*
X027468Y008953D02*
X027468Y009318D01*
X027590Y009440D01*
X027468Y010100D02*
X027955Y010100D01*
X027833Y008648D02*
X027590Y008648D01*
X027468Y008526D01*
X027468Y008283D01*
X027590Y008161D01*
X027711Y008161D01*
X027711Y008648D01*
X027833Y008648D02*
X027955Y008526D01*
X027955Y008283D01*
D16*
X012800Y007030D02*
X012800Y006430D01*
X011800Y006430D02*
X011800Y007030D01*
X010800Y007030D02*
X010800Y006430D01*
D17*
X014300Y005440D02*
X014300Y004920D01*
X015300Y004920D02*
X015300Y005440D01*
X016300Y005440D02*
X016300Y004920D01*
X017300Y004920D02*
X017300Y005440D01*
X018300Y005440D02*
X018300Y004920D01*
X019300Y004920D02*
X019300Y005440D01*
X020300Y005440D02*
X020300Y004920D01*
X021300Y004920D02*
X021300Y005440D01*
X022300Y005440D02*
X022300Y004920D01*
X023300Y004920D02*
X023300Y005440D01*
X023300Y007920D02*
X023300Y008440D01*
X022300Y008440D02*
X022300Y007920D01*
X021300Y007920D02*
X021300Y008440D01*
X020300Y008440D02*
X020300Y007920D01*
X019300Y007920D02*
X019300Y008440D01*
X018300Y008440D02*
X018300Y007920D01*
X017300Y007920D02*
X017300Y008440D01*
X016300Y008440D02*
X016300Y007920D01*
X015300Y007920D02*
X015300Y008440D01*
X014300Y008440D02*
X014300Y007920D01*
X013060Y009180D02*
X012540Y009180D01*
X012540Y010180D02*
X013060Y010180D01*
X013060Y011180D02*
X012540Y011180D01*
X012540Y012180D02*
X013060Y012180D01*
X013060Y013180D02*
X012540Y013180D01*
X011060Y013180D02*
X010540Y013180D01*
X010540Y012180D02*
X011060Y012180D01*
X011060Y011180D02*
X010540Y011180D01*
X010540Y010180D02*
X011060Y010180D01*
X011060Y009180D02*
X010540Y009180D01*
X015800Y009920D02*
X015800Y010440D01*
X016800Y010440D02*
X016800Y009920D01*
X017800Y009920D02*
X017800Y010440D01*
X018800Y010440D02*
X018800Y009920D01*
X019800Y009920D02*
X019800Y010440D01*
X020800Y010440D02*
X020800Y009920D01*
X021800Y009920D02*
X021800Y010440D01*
X021800Y012920D02*
X021800Y013440D01*
X020800Y013440D02*
X020800Y012920D01*
X019800Y012920D02*
X019800Y013440D01*
X018800Y013440D02*
X018800Y012920D01*
X017800Y012920D02*
X017800Y013440D01*
X016800Y013440D02*
X016800Y012920D01*
X015800Y012920D02*
X015800Y013440D01*
X013060Y014180D02*
X012540Y014180D01*
X012540Y015180D02*
X013060Y015180D01*
X013060Y016180D02*
X012540Y016180D01*
X011060Y016180D02*
X010540Y016180D01*
X010540Y015180D02*
X011060Y015180D01*
X011060Y014180D02*
X010540Y014180D01*
D18*
X011543Y004430D02*
X012057Y004430D01*
X011057Y003930D02*
X010543Y003930D01*
X011543Y003430D02*
X012057Y003430D01*
X011057Y002930D02*
X010543Y002930D01*
X011543Y002430D02*
X012057Y002430D01*
X011057Y001930D02*
X010543Y001930D01*
X024793Y001930D02*
X025307Y001930D01*
X025793Y002430D02*
X026307Y002430D01*
X025307Y002930D02*
X024793Y002930D01*
X025793Y003430D02*
X026307Y003430D01*
X025307Y003930D02*
X024793Y003930D01*
X025793Y004430D02*
X026307Y004430D01*
D19*
X023550Y009680D03*
X023550Y013680D03*
X014550Y013680D03*
X014550Y009680D03*
X013050Y004930D03*
X013050Y000930D03*
D20*
X007153Y011696D02*
X006448Y011696D01*
X006448Y013664D02*
X007153Y013664D01*
D21*
X016800Y015680D03*
X017800Y016680D03*
X018800Y015680D03*
X020800Y015680D03*
X021800Y016680D03*
X022800Y015680D03*
D22*
X019550Y003680D03*
X017550Y003680D03*
X016300Y003680D03*
X014300Y003680D03*
D23*
X011800Y005180D03*
X009800Y005180D03*
X020800Y004180D03*
X020800Y001930D03*
M02*
