G75*
%MOIN*%
%OFA0B0*%
%FSLAX24Y24*%
%IPPOS*%
%LPD*%
%AMOC8*
5,1,8,0,0,1.08239X$1,22.5*
%
%ADD10C,0.0000*%
%ADD11C,0.0060*%
%ADD12C,0.0050*%
%ADD13C,0.0070*%
%ADD14C,0.0080*%
%ADD15R,0.0240X0.0340*%
%ADD16C,0.0040*%
%ADD17C,0.0120*%
D10*
X005300Y000180D02*
X005300Y018676D01*
X031520Y018626D01*
X031520Y000130D01*
X005300Y000180D01*
X007660Y001180D02*
X007662Y001230D01*
X007668Y001280D01*
X007678Y001329D01*
X007691Y001378D01*
X007709Y001425D01*
X007730Y001471D01*
X007754Y001514D01*
X007782Y001556D01*
X007813Y001596D01*
X007847Y001633D01*
X007884Y001667D01*
X007924Y001698D01*
X007966Y001726D01*
X008009Y001750D01*
X008055Y001771D01*
X008102Y001789D01*
X008151Y001802D01*
X008200Y001812D01*
X008250Y001818D01*
X008300Y001820D01*
X008350Y001818D01*
X008400Y001812D01*
X008449Y001802D01*
X008498Y001789D01*
X008545Y001771D01*
X008591Y001750D01*
X008634Y001726D01*
X008676Y001698D01*
X008716Y001667D01*
X008753Y001633D01*
X008787Y001596D01*
X008818Y001556D01*
X008846Y001514D01*
X008870Y001471D01*
X008891Y001425D01*
X008909Y001378D01*
X008922Y001329D01*
X008932Y001280D01*
X008938Y001230D01*
X008940Y001180D01*
X008938Y001130D01*
X008932Y001080D01*
X008922Y001031D01*
X008909Y000982D01*
X008891Y000935D01*
X008870Y000889D01*
X008846Y000846D01*
X008818Y000804D01*
X008787Y000764D01*
X008753Y000727D01*
X008716Y000693D01*
X008676Y000662D01*
X008634Y000634D01*
X008591Y000610D01*
X008545Y000589D01*
X008498Y000571D01*
X008449Y000558D01*
X008400Y000548D01*
X008350Y000542D01*
X008300Y000540D01*
X008250Y000542D01*
X008200Y000548D01*
X008151Y000558D01*
X008102Y000571D01*
X008055Y000589D01*
X008009Y000610D01*
X007966Y000634D01*
X007924Y000662D01*
X007884Y000693D01*
X007847Y000727D01*
X007813Y000764D01*
X007782Y000804D01*
X007754Y000846D01*
X007730Y000889D01*
X007709Y000935D01*
X007691Y000982D01*
X007678Y001031D01*
X007668Y001080D01*
X007662Y001130D01*
X007660Y001180D01*
X007660Y005180D02*
X007662Y005230D01*
X007668Y005280D01*
X007678Y005329D01*
X007691Y005378D01*
X007709Y005425D01*
X007730Y005471D01*
X007754Y005514D01*
X007782Y005556D01*
X007813Y005596D01*
X007847Y005633D01*
X007884Y005667D01*
X007924Y005698D01*
X007966Y005726D01*
X008009Y005750D01*
X008055Y005771D01*
X008102Y005789D01*
X008151Y005802D01*
X008200Y005812D01*
X008250Y005818D01*
X008300Y005820D01*
X008350Y005818D01*
X008400Y005812D01*
X008449Y005802D01*
X008498Y005789D01*
X008545Y005771D01*
X008591Y005750D01*
X008634Y005726D01*
X008676Y005698D01*
X008716Y005667D01*
X008753Y005633D01*
X008787Y005596D01*
X008818Y005556D01*
X008846Y005514D01*
X008870Y005471D01*
X008891Y005425D01*
X008909Y005378D01*
X008922Y005329D01*
X008932Y005280D01*
X008938Y005230D01*
X008940Y005180D01*
X008938Y005130D01*
X008932Y005080D01*
X008922Y005031D01*
X008909Y004982D01*
X008891Y004935D01*
X008870Y004889D01*
X008846Y004846D01*
X008818Y004804D01*
X008787Y004764D01*
X008753Y004727D01*
X008716Y004693D01*
X008676Y004662D01*
X008634Y004634D01*
X008591Y004610D01*
X008545Y004589D01*
X008498Y004571D01*
X008449Y004558D01*
X008400Y004548D01*
X008350Y004542D01*
X008300Y004540D01*
X008250Y004542D01*
X008200Y004548D01*
X008151Y004558D01*
X008102Y004571D01*
X008055Y004589D01*
X008009Y004610D01*
X007966Y004634D01*
X007924Y004662D01*
X007884Y004693D01*
X007847Y004727D01*
X007813Y004764D01*
X007782Y004804D01*
X007754Y004846D01*
X007730Y004889D01*
X007709Y004935D01*
X007691Y004982D01*
X007678Y005031D01*
X007668Y005080D01*
X007662Y005130D01*
X007660Y005180D01*
X027910Y005180D02*
X027912Y005230D01*
X027918Y005280D01*
X027928Y005329D01*
X027941Y005378D01*
X027959Y005425D01*
X027980Y005471D01*
X028004Y005514D01*
X028032Y005556D01*
X028063Y005596D01*
X028097Y005633D01*
X028134Y005667D01*
X028174Y005698D01*
X028216Y005726D01*
X028259Y005750D01*
X028305Y005771D01*
X028352Y005789D01*
X028401Y005802D01*
X028450Y005812D01*
X028500Y005818D01*
X028550Y005820D01*
X028600Y005818D01*
X028650Y005812D01*
X028699Y005802D01*
X028748Y005789D01*
X028795Y005771D01*
X028841Y005750D01*
X028884Y005726D01*
X028926Y005698D01*
X028966Y005667D01*
X029003Y005633D01*
X029037Y005596D01*
X029068Y005556D01*
X029096Y005514D01*
X029120Y005471D01*
X029141Y005425D01*
X029159Y005378D01*
X029172Y005329D01*
X029182Y005280D01*
X029188Y005230D01*
X029190Y005180D01*
X029188Y005130D01*
X029182Y005080D01*
X029172Y005031D01*
X029159Y004982D01*
X029141Y004935D01*
X029120Y004889D01*
X029096Y004846D01*
X029068Y004804D01*
X029037Y004764D01*
X029003Y004727D01*
X028966Y004693D01*
X028926Y004662D01*
X028884Y004634D01*
X028841Y004610D01*
X028795Y004589D01*
X028748Y004571D01*
X028699Y004558D01*
X028650Y004548D01*
X028600Y004542D01*
X028550Y004540D01*
X028500Y004542D01*
X028450Y004548D01*
X028401Y004558D01*
X028352Y004571D01*
X028305Y004589D01*
X028259Y004610D01*
X028216Y004634D01*
X028174Y004662D01*
X028134Y004693D01*
X028097Y004727D01*
X028063Y004764D01*
X028032Y004804D01*
X028004Y004846D01*
X027980Y004889D01*
X027959Y004935D01*
X027941Y004982D01*
X027928Y005031D01*
X027918Y005080D01*
X027912Y005130D01*
X027910Y005180D01*
X027910Y001180D02*
X027912Y001230D01*
X027918Y001280D01*
X027928Y001329D01*
X027941Y001378D01*
X027959Y001425D01*
X027980Y001471D01*
X028004Y001514D01*
X028032Y001556D01*
X028063Y001596D01*
X028097Y001633D01*
X028134Y001667D01*
X028174Y001698D01*
X028216Y001726D01*
X028259Y001750D01*
X028305Y001771D01*
X028352Y001789D01*
X028401Y001802D01*
X028450Y001812D01*
X028500Y001818D01*
X028550Y001820D01*
X028600Y001818D01*
X028650Y001812D01*
X028699Y001802D01*
X028748Y001789D01*
X028795Y001771D01*
X028841Y001750D01*
X028884Y001726D01*
X028926Y001698D01*
X028966Y001667D01*
X029003Y001633D01*
X029037Y001596D01*
X029068Y001556D01*
X029096Y001514D01*
X029120Y001471D01*
X029141Y001425D01*
X029159Y001378D01*
X029172Y001329D01*
X029182Y001280D01*
X029188Y001230D01*
X029190Y001180D01*
X029188Y001130D01*
X029182Y001080D01*
X029172Y001031D01*
X029159Y000982D01*
X029141Y000935D01*
X029120Y000889D01*
X029096Y000846D01*
X029068Y000804D01*
X029037Y000764D01*
X029003Y000727D01*
X028966Y000693D01*
X028926Y000662D01*
X028884Y000634D01*
X028841Y000610D01*
X028795Y000589D01*
X028748Y000571D01*
X028699Y000558D01*
X028650Y000548D01*
X028600Y000542D01*
X028550Y000540D01*
X028500Y000542D01*
X028450Y000548D01*
X028401Y000558D01*
X028352Y000571D01*
X028305Y000589D01*
X028259Y000610D01*
X028216Y000634D01*
X028174Y000662D01*
X028134Y000693D01*
X028097Y000727D01*
X028063Y000764D01*
X028032Y000804D01*
X028004Y000846D01*
X027980Y000889D01*
X027959Y000935D01*
X027941Y000982D01*
X027928Y001031D01*
X027918Y001080D01*
X027912Y001130D01*
X027910Y001180D01*
D11*
X024000Y005580D02*
X013600Y005580D01*
X013600Y007780D01*
X024000Y007780D01*
X024000Y006930D01*
X023970Y006928D01*
X023940Y006923D01*
X023911Y006914D01*
X023884Y006901D01*
X023858Y006886D01*
X023834Y006867D01*
X023813Y006846D01*
X023794Y006822D01*
X023779Y006796D01*
X023766Y006769D01*
X023757Y006740D01*
X023752Y006710D01*
X023750Y006680D01*
X023752Y006650D01*
X023757Y006620D01*
X023766Y006591D01*
X023779Y006564D01*
X023794Y006538D01*
X023813Y006514D01*
X023834Y006493D01*
X023858Y006474D01*
X023884Y006459D01*
X023911Y006446D01*
X023940Y006437D01*
X023970Y006432D01*
X024000Y006430D01*
X024000Y005580D01*
X020000Y004080D02*
X020000Y003280D01*
X019998Y003263D01*
X019994Y003246D01*
X019987Y003230D01*
X019977Y003216D01*
X019964Y003203D01*
X019950Y003193D01*
X019934Y003186D01*
X019917Y003182D01*
X019900Y003180D01*
X017200Y003180D01*
X017183Y003182D01*
X017166Y003186D01*
X017150Y003193D01*
X017136Y003203D01*
X017123Y003216D01*
X017113Y003230D01*
X017106Y003246D01*
X017102Y003263D01*
X017100Y003280D01*
X017100Y004080D01*
X017102Y004097D01*
X017106Y004114D01*
X017113Y004130D01*
X017123Y004144D01*
X017136Y004157D01*
X017150Y004167D01*
X017166Y004174D01*
X017183Y004178D01*
X017200Y004180D01*
X019900Y004180D01*
X019917Y004178D01*
X019934Y004174D01*
X019950Y004167D01*
X019964Y004157D01*
X019977Y004144D01*
X019987Y004130D01*
X019994Y004114D01*
X019998Y004097D01*
X020000Y004080D01*
X019150Y003680D02*
X018680Y003680D01*
X018430Y003680D02*
X017950Y003680D01*
X016750Y003280D02*
X016750Y004080D01*
X016748Y004097D01*
X016744Y004114D01*
X016737Y004130D01*
X016727Y004144D01*
X016714Y004157D01*
X016700Y004167D01*
X016684Y004174D01*
X016667Y004178D01*
X016650Y004180D01*
X013950Y004180D01*
X013933Y004178D01*
X013916Y004174D01*
X013900Y004167D01*
X013886Y004157D01*
X013873Y004144D01*
X013863Y004130D01*
X013856Y004114D01*
X013852Y004097D01*
X013850Y004080D01*
X013850Y003280D01*
X013852Y003263D01*
X013856Y003246D01*
X013863Y003230D01*
X013873Y003216D01*
X013886Y003203D01*
X013900Y003193D01*
X013916Y003186D01*
X013933Y003182D01*
X013950Y003180D01*
X016650Y003180D01*
X016667Y003182D01*
X016684Y003186D01*
X016700Y003193D01*
X016714Y003203D01*
X016727Y003216D01*
X016737Y003230D01*
X016744Y003246D01*
X016748Y003263D01*
X016750Y003280D01*
X015900Y003680D02*
X015430Y003680D01*
X015180Y003680D02*
X014700Y003680D01*
X013500Y003930D02*
X013450Y003880D01*
X013450Y001980D01*
X013500Y001930D01*
X013500Y001780D01*
X013498Y001763D01*
X013494Y001746D01*
X013487Y001730D01*
X013477Y001716D01*
X013464Y001703D01*
X013450Y001693D01*
X013434Y001686D01*
X013417Y001682D01*
X013400Y001680D01*
X012700Y001680D01*
X012683Y001682D01*
X012666Y001686D01*
X012650Y001693D01*
X012636Y001703D01*
X012623Y001716D01*
X012613Y001730D01*
X012606Y001746D01*
X012602Y001763D01*
X012600Y001780D01*
X012600Y001930D01*
X012650Y001980D01*
X012650Y003880D01*
X012600Y003930D01*
X012600Y004080D01*
X012602Y004097D01*
X012606Y004114D01*
X012613Y004130D01*
X012623Y004144D01*
X012636Y004157D01*
X012650Y004167D01*
X012666Y004174D01*
X012683Y004178D01*
X012700Y004180D01*
X013400Y004180D01*
X013417Y004178D01*
X013434Y004174D01*
X013450Y004167D01*
X013464Y004157D01*
X013477Y004144D01*
X013487Y004130D01*
X013494Y004114D01*
X013498Y004097D01*
X013500Y004080D01*
X013500Y003930D01*
X013050Y006230D02*
X012550Y006230D01*
X012300Y006480D01*
X012050Y006230D01*
X011550Y006230D01*
X011300Y006480D01*
X011050Y006230D01*
X010550Y006230D01*
X010300Y006480D01*
X010300Y006980D01*
X010550Y007230D01*
X011050Y007230D01*
X011300Y006980D01*
X011550Y007230D01*
X012050Y007230D01*
X012300Y006980D01*
X012550Y007230D01*
X013050Y007230D01*
X013300Y006980D01*
X013300Y006480D01*
X013050Y006230D01*
X013000Y008680D02*
X012600Y008680D01*
X012574Y008682D01*
X012548Y008687D01*
X012523Y008695D01*
X012500Y008707D01*
X012478Y008721D01*
X012459Y008739D01*
X012441Y008758D01*
X012427Y008780D01*
X012415Y008803D01*
X012407Y008828D01*
X012402Y008854D01*
X012400Y008880D01*
X012400Y016480D01*
X012450Y016530D02*
X013150Y016530D01*
X013150Y015830D01*
X012450Y015830D01*
X012450Y016530D01*
X012400Y016480D02*
X012402Y016506D01*
X012407Y016532D01*
X012415Y016557D01*
X012427Y016580D01*
X012441Y016602D01*
X012459Y016621D01*
X012478Y016639D01*
X012500Y016653D01*
X012523Y016665D01*
X012548Y016673D01*
X012574Y016678D01*
X012600Y016680D01*
X013000Y016680D01*
X013026Y016678D01*
X013052Y016673D01*
X013077Y016665D01*
X013100Y016653D01*
X013122Y016639D01*
X013141Y016621D01*
X013159Y016602D01*
X013173Y016580D01*
X013185Y016557D01*
X013193Y016532D01*
X013198Y016506D01*
X013200Y016480D01*
X013200Y008880D01*
X013198Y008854D01*
X013193Y008828D01*
X013185Y008803D01*
X013173Y008780D01*
X013159Y008758D01*
X013141Y008739D01*
X013122Y008721D01*
X013100Y008707D01*
X013077Y008695D01*
X013052Y008687D01*
X013026Y008682D01*
X013000Y008680D01*
X011200Y008880D02*
X011200Y016480D01*
X011198Y016506D01*
X011193Y016532D01*
X011185Y016557D01*
X011173Y016580D01*
X011159Y016602D01*
X011141Y016621D01*
X011122Y016639D01*
X011100Y016653D01*
X011077Y016665D01*
X011052Y016673D01*
X011026Y016678D01*
X011000Y016680D01*
X010600Y016680D01*
X010574Y016678D01*
X010548Y016673D01*
X010523Y016665D01*
X010500Y016653D01*
X010478Y016639D01*
X010459Y016621D01*
X010441Y016602D01*
X010427Y016580D01*
X010415Y016557D01*
X010407Y016532D01*
X010402Y016506D01*
X010400Y016480D01*
X010400Y008880D01*
X010450Y008830D02*
X010450Y009530D01*
X011150Y009530D01*
X011150Y008830D01*
X010450Y008830D01*
X010400Y008880D02*
X010402Y008854D01*
X010407Y008828D01*
X010415Y008803D01*
X010427Y008780D01*
X010441Y008758D01*
X010459Y008739D01*
X010478Y008721D01*
X010500Y008707D01*
X010523Y008695D01*
X010548Y008687D01*
X010574Y008682D01*
X010600Y008680D01*
X011000Y008680D01*
X011026Y008682D01*
X011052Y008687D01*
X011077Y008695D01*
X011100Y008707D01*
X011122Y008721D01*
X011141Y008739D01*
X011159Y008758D01*
X011173Y008780D01*
X011185Y008803D01*
X011193Y008828D01*
X011198Y008854D01*
X011200Y008880D01*
X008770Y010714D02*
X008770Y014644D01*
X008690Y014644D01*
X008690Y010714D01*
X006090Y010714D01*
X005150Y010714D01*
X005150Y014644D01*
X006090Y014644D01*
X008690Y014644D01*
X007970Y013664D02*
X007972Y013692D01*
X007978Y013719D01*
X007987Y013745D01*
X008000Y013770D01*
X008017Y013793D01*
X008036Y013813D01*
X008058Y013830D01*
X008082Y013844D01*
X008108Y013854D01*
X008135Y013861D01*
X008163Y013864D01*
X008191Y013863D01*
X008218Y013858D01*
X008245Y013849D01*
X008270Y013837D01*
X008293Y013822D01*
X008314Y013803D01*
X008332Y013782D01*
X008347Y013758D01*
X008358Y013732D01*
X008366Y013706D01*
X008370Y013678D01*
X008370Y013650D01*
X008366Y013622D01*
X008358Y013596D01*
X008347Y013570D01*
X008332Y013546D01*
X008314Y013525D01*
X008293Y013506D01*
X008270Y013491D01*
X008245Y013479D01*
X008218Y013470D01*
X008191Y013465D01*
X008163Y013464D01*
X008135Y013467D01*
X008108Y013474D01*
X008082Y013484D01*
X008058Y013498D01*
X008036Y013515D01*
X008017Y013535D01*
X008000Y013558D01*
X007987Y013583D01*
X007978Y013609D01*
X007972Y013636D01*
X007970Y013664D01*
X006090Y013314D02*
X006090Y012044D01*
X006090Y011344D02*
X006090Y010714D01*
X007970Y011694D02*
X007972Y011722D01*
X007978Y011749D01*
X007987Y011775D01*
X008000Y011800D01*
X008017Y011823D01*
X008036Y011843D01*
X008058Y011860D01*
X008082Y011874D01*
X008108Y011884D01*
X008135Y011891D01*
X008163Y011894D01*
X008191Y011893D01*
X008218Y011888D01*
X008245Y011879D01*
X008270Y011867D01*
X008293Y011852D01*
X008314Y011833D01*
X008332Y011812D01*
X008347Y011788D01*
X008358Y011762D01*
X008366Y011736D01*
X008370Y011708D01*
X008370Y011680D01*
X008366Y011652D01*
X008358Y011626D01*
X008347Y011600D01*
X008332Y011576D01*
X008314Y011555D01*
X008293Y011536D01*
X008270Y011521D01*
X008245Y011509D01*
X008218Y011500D01*
X008191Y011495D01*
X008163Y011494D01*
X008135Y011497D01*
X008108Y011504D01*
X008082Y011514D01*
X008058Y011528D01*
X008036Y011545D01*
X008017Y011565D01*
X008000Y011588D01*
X007987Y011613D01*
X007978Y011639D01*
X007972Y011666D01*
X007970Y011694D01*
X008690Y010714D02*
X008770Y010714D01*
X014100Y010680D02*
X014100Y010530D01*
X014102Y010513D01*
X014106Y010496D01*
X014113Y010480D01*
X014123Y010466D01*
X014136Y010453D01*
X014150Y010443D01*
X014166Y010436D01*
X014183Y010432D01*
X014200Y010430D01*
X014900Y010430D01*
X014917Y010432D01*
X014934Y010436D01*
X014950Y010443D01*
X014964Y010453D01*
X014977Y010466D01*
X014987Y010480D01*
X014994Y010496D01*
X014998Y010513D01*
X015000Y010530D01*
X015000Y010680D01*
X014950Y010730D01*
X014950Y012630D01*
X015000Y012680D01*
X015000Y012830D01*
X014998Y012847D01*
X014994Y012864D01*
X014987Y012880D01*
X014977Y012894D01*
X014964Y012907D01*
X014950Y012917D01*
X014934Y012924D01*
X014917Y012928D01*
X014900Y012930D01*
X014200Y012930D01*
X014183Y012928D01*
X014166Y012924D01*
X014150Y012917D01*
X014136Y012907D01*
X014123Y012894D01*
X014113Y012880D01*
X014106Y012864D01*
X014102Y012847D01*
X014100Y012830D01*
X014100Y012680D01*
X014150Y012630D01*
X014150Y010730D01*
X014100Y010680D01*
X015300Y010530D02*
X015300Y011280D01*
X015339Y011282D01*
X015378Y011288D01*
X015416Y011297D01*
X015453Y011310D01*
X015489Y011327D01*
X015522Y011347D01*
X015554Y011371D01*
X015583Y011397D01*
X015609Y011426D01*
X015633Y011458D01*
X015653Y011491D01*
X015670Y011527D01*
X015683Y011564D01*
X015692Y011602D01*
X015698Y011641D01*
X015700Y011680D01*
X015698Y011719D01*
X015692Y011758D01*
X015683Y011796D01*
X015670Y011833D01*
X015653Y011869D01*
X015633Y011902D01*
X015609Y011934D01*
X015583Y011963D01*
X015554Y011989D01*
X015522Y012013D01*
X015489Y012033D01*
X015453Y012050D01*
X015416Y012063D01*
X015378Y012072D01*
X015339Y012078D01*
X015300Y012080D01*
X015300Y012830D01*
X022300Y012830D01*
X022300Y010530D01*
X015300Y010530D01*
X023100Y010530D02*
X023100Y010680D01*
X023150Y010730D01*
X023150Y012630D01*
X023100Y012680D01*
X023100Y012830D01*
X023102Y012847D01*
X023106Y012864D01*
X023113Y012880D01*
X023123Y012894D01*
X023136Y012907D01*
X023150Y012917D01*
X023166Y012924D01*
X023183Y012928D01*
X023200Y012930D01*
X023900Y012930D01*
X023917Y012928D01*
X023934Y012924D01*
X023950Y012917D01*
X023964Y012907D01*
X023977Y012894D01*
X023987Y012880D01*
X023994Y012864D01*
X023998Y012847D01*
X024000Y012830D01*
X024000Y012680D01*
X023950Y012630D01*
X023950Y010730D01*
X024000Y010680D01*
X024000Y010530D01*
X023998Y010513D01*
X023994Y010496D01*
X023987Y010480D01*
X023977Y010466D01*
X023964Y010453D01*
X023950Y010443D01*
X023934Y010436D01*
X023917Y010432D01*
X023900Y010430D01*
X023200Y010430D01*
X023183Y010432D01*
X023166Y010436D01*
X023150Y010443D01*
X023136Y010453D01*
X023123Y010466D01*
X023113Y010480D01*
X023106Y010496D01*
X023102Y010513D01*
X023100Y010530D01*
X006090Y014014D02*
X006090Y014644D01*
D12*
X005805Y014059D02*
X005805Y013759D01*
X005805Y013909D02*
X005355Y013909D01*
X005505Y013759D01*
X005430Y013599D02*
X005355Y013524D01*
X005355Y013374D01*
X005430Y013298D01*
X005505Y013298D01*
X005580Y013374D01*
X005580Y013524D01*
X005655Y013599D01*
X005730Y013599D01*
X005805Y013524D01*
X005805Y013374D01*
X005730Y013298D01*
X005730Y013138D02*
X005355Y013138D01*
X005355Y012838D02*
X005730Y012838D01*
X005805Y012913D01*
X005805Y013063D01*
X005730Y013138D01*
X005880Y013449D02*
X005280Y013449D01*
X005300Y013680D02*
X004300Y013680D01*
X004270Y013615D01*
X004236Y013552D01*
X004198Y013490D01*
X004158Y013431D01*
X004115Y013374D01*
X004068Y013319D01*
X004019Y013267D01*
X003967Y013217D01*
X003912Y013171D01*
X003856Y013127D01*
X003797Y013086D01*
X003735Y013048D01*
X003672Y013014D01*
X003608Y012983D01*
X003541Y012955D01*
X003474Y012931D01*
X003405Y012911D01*
X003335Y012894D01*
X003265Y012881D01*
X003193Y012872D01*
X003122Y012866D01*
X003050Y012864D01*
X002978Y012866D01*
X002907Y012872D01*
X002835Y012881D01*
X002765Y012894D01*
X002695Y012911D01*
X002626Y012931D01*
X002559Y012955D01*
X002492Y012983D01*
X002428Y013014D01*
X002365Y013048D01*
X002303Y013086D01*
X002244Y013127D01*
X002188Y013171D01*
X002133Y013217D01*
X002081Y013267D01*
X002032Y013319D01*
X001985Y013374D01*
X001942Y013431D01*
X001902Y013490D01*
X001864Y013552D01*
X001830Y013615D01*
X001800Y013680D01*
X001800Y013180D01*
X001300Y012680D01*
X002300Y012680D01*
X001300Y012180D01*
X002300Y012180D01*
X001800Y011680D01*
X001830Y011615D01*
X001864Y011552D01*
X001902Y011490D01*
X001942Y011431D01*
X001985Y011374D01*
X002032Y011319D01*
X002081Y011267D01*
X002133Y011217D01*
X002188Y011171D01*
X002244Y011127D01*
X002303Y011086D01*
X002365Y011048D01*
X002428Y011014D01*
X002492Y010983D01*
X002559Y010955D01*
X002626Y010931D01*
X002695Y010911D01*
X002765Y010894D01*
X002835Y010881D01*
X002907Y010872D01*
X002978Y010866D01*
X003050Y010864D01*
X003122Y010866D01*
X003193Y010872D01*
X003265Y010881D01*
X003335Y010894D01*
X003405Y010911D01*
X003474Y010931D01*
X003541Y010955D01*
X003608Y010983D01*
X003672Y011014D01*
X003735Y011048D01*
X003797Y011086D01*
X003856Y011127D01*
X003912Y011171D01*
X003967Y011217D01*
X004019Y011267D01*
X004068Y011319D01*
X004115Y011374D01*
X004158Y011431D01*
X004198Y011490D01*
X004236Y011552D01*
X004270Y011615D01*
X004300Y011680D01*
X005300Y011680D01*
X007575Y012154D02*
X007650Y012079D01*
X007575Y012154D02*
X007575Y012304D01*
X007650Y012379D01*
X007725Y012379D01*
X008025Y012079D01*
X008025Y012379D01*
X008025Y014029D02*
X008025Y014329D01*
X008025Y014179D02*
X007575Y014179D01*
X007725Y014029D01*
X012625Y016859D02*
X012965Y016859D01*
X012965Y016746D02*
X012965Y016973D01*
X012738Y016746D02*
X012625Y016859D01*
X013325Y016470D02*
X013325Y016320D01*
X013400Y016245D01*
X013325Y016084D02*
X013775Y016084D01*
X013325Y015784D01*
X013775Y015784D01*
X013775Y015624D02*
X013625Y015474D01*
X013625Y015549D02*
X013625Y015324D01*
X013775Y015324D02*
X013325Y015324D01*
X013325Y015549D01*
X013400Y015624D01*
X013550Y015624D01*
X013625Y015549D01*
X013775Y016245D02*
X013475Y016545D01*
X013400Y016545D01*
X013325Y016470D01*
X013775Y016545D02*
X013775Y016245D01*
X015900Y016480D02*
X015900Y015380D01*
X015900Y015280D01*
X016000Y015280D01*
X016000Y015380D01*
X019600Y015380D01*
X019600Y015280D01*
X019700Y015280D01*
X019700Y015380D01*
X019600Y015380D01*
X019700Y015380D02*
X019700Y017080D01*
X015900Y017080D01*
X015900Y016480D01*
X016800Y016480D01*
X016800Y016680D02*
X016000Y016680D01*
X015950Y016580D02*
X015952Y016622D01*
X015958Y016664D01*
X015968Y016705D01*
X015981Y016745D01*
X015999Y016783D01*
X016019Y016820D01*
X016044Y016855D01*
X016071Y016887D01*
X016101Y016916D01*
X016134Y016943D01*
X016169Y016966D01*
X016206Y016986D01*
X016245Y017002D01*
X016285Y017015D01*
X016326Y017024D01*
X016368Y017029D01*
X016411Y017030D01*
X016453Y017027D01*
X016494Y017020D01*
X016535Y017009D01*
X016575Y016995D01*
X016613Y016977D01*
X016649Y016955D01*
X016683Y016930D01*
X016714Y016902D01*
X016743Y016871D01*
X016769Y016838D01*
X016791Y016802D01*
X016811Y016764D01*
X016826Y016725D01*
X016838Y016685D01*
X016846Y016643D01*
X016850Y016601D01*
X016850Y016559D01*
X016846Y016517D01*
X016838Y016475D01*
X016826Y016435D01*
X016811Y016396D01*
X016791Y016358D01*
X016769Y016322D01*
X016743Y016289D01*
X016714Y016258D01*
X016683Y016230D01*
X016649Y016205D01*
X016613Y016183D01*
X016575Y016165D01*
X016535Y016151D01*
X016494Y016140D01*
X016453Y016133D01*
X016411Y016130D01*
X016368Y016131D01*
X016326Y016136D01*
X016285Y016145D01*
X016245Y016158D01*
X016206Y016174D01*
X016169Y016194D01*
X016134Y016217D01*
X016101Y016244D01*
X016071Y016273D01*
X016044Y016305D01*
X016019Y016340D01*
X015999Y016377D01*
X015981Y016415D01*
X015968Y016455D01*
X015958Y016496D01*
X015952Y016538D01*
X015950Y016580D01*
X015900Y015380D02*
X016000Y015380D01*
X019900Y015380D02*
X019900Y015280D01*
X020000Y015280D01*
X020000Y015380D01*
X023600Y015380D01*
X023600Y015280D01*
X023700Y015280D01*
X023700Y015380D01*
X023600Y015380D01*
X023700Y015380D02*
X023700Y017080D01*
X019900Y017080D01*
X019900Y016480D01*
X020800Y016480D01*
X020800Y016680D02*
X020000Y016680D01*
X019900Y016480D02*
X019900Y015380D01*
X020000Y015380D01*
X019950Y016580D02*
X019952Y016622D01*
X019958Y016664D01*
X019968Y016705D01*
X019981Y016745D01*
X019999Y016783D01*
X020019Y016820D01*
X020044Y016855D01*
X020071Y016887D01*
X020101Y016916D01*
X020134Y016943D01*
X020169Y016966D01*
X020206Y016986D01*
X020245Y017002D01*
X020285Y017015D01*
X020326Y017024D01*
X020368Y017029D01*
X020411Y017030D01*
X020453Y017027D01*
X020494Y017020D01*
X020535Y017009D01*
X020575Y016995D01*
X020613Y016977D01*
X020649Y016955D01*
X020683Y016930D01*
X020714Y016902D01*
X020743Y016871D01*
X020769Y016838D01*
X020791Y016802D01*
X020811Y016764D01*
X020826Y016725D01*
X020838Y016685D01*
X020846Y016643D01*
X020850Y016601D01*
X020850Y016559D01*
X020846Y016517D01*
X020838Y016475D01*
X020826Y016435D01*
X020811Y016396D01*
X020791Y016358D01*
X020769Y016322D01*
X020743Y016289D01*
X020714Y016258D01*
X020683Y016230D01*
X020649Y016205D01*
X020613Y016183D01*
X020575Y016165D01*
X020535Y016151D01*
X020494Y016140D01*
X020453Y016133D01*
X020411Y016130D01*
X020368Y016131D01*
X020326Y016136D01*
X020285Y016145D01*
X020245Y016158D01*
X020206Y016174D01*
X020169Y016194D01*
X020134Y016217D01*
X020101Y016244D01*
X020071Y016273D01*
X020044Y016305D01*
X020019Y016340D01*
X019999Y016377D01*
X019981Y016415D01*
X019968Y016455D01*
X019958Y016496D01*
X019952Y016538D01*
X019950Y016580D01*
X015625Y012670D02*
X015175Y012670D01*
X015400Y012445D01*
X015400Y012745D01*
X015400Y012284D02*
X015250Y012284D01*
X015175Y012209D01*
X015175Y011984D01*
X015625Y011984D01*
X015475Y011984D02*
X015475Y012209D01*
X015400Y012284D01*
X015475Y012134D02*
X015625Y012284D01*
X015125Y011573D02*
X015125Y011272D01*
X015125Y011422D02*
X014675Y011422D01*
X014825Y011272D01*
X014750Y011112D02*
X014675Y011037D01*
X014675Y010887D01*
X014750Y010812D01*
X015050Y010812D01*
X015125Y010887D01*
X015125Y011037D01*
X015050Y011112D01*
X015125Y010655D02*
X015125Y010505D01*
X015125Y010580D02*
X014675Y010580D01*
X014675Y010505D02*
X014675Y010655D01*
X010975Y008532D02*
X010975Y008305D01*
X010975Y008418D02*
X010635Y008418D01*
X010748Y008305D01*
X010275Y008705D02*
X009825Y008705D01*
X009825Y008930D01*
X009900Y009005D01*
X010050Y009005D01*
X010125Y008930D01*
X010125Y008705D01*
X010125Y008855D02*
X010275Y009005D01*
X010275Y009165D02*
X009825Y009165D01*
X010275Y009466D01*
X009825Y009466D01*
X009900Y009626D02*
X009825Y009701D01*
X009825Y009851D01*
X009900Y009926D01*
X009975Y009926D01*
X010050Y009851D01*
X010125Y009926D01*
X010200Y009926D01*
X010275Y009851D01*
X010275Y009701D01*
X010200Y009626D01*
X010050Y009776D02*
X010050Y009851D01*
X013365Y006805D02*
X013515Y006955D01*
X013515Y006505D01*
X013365Y006505D02*
X013665Y006505D01*
X013165Y005980D02*
X013090Y006055D01*
X012865Y006055D01*
X012865Y005605D01*
X012865Y005755D02*
X013090Y005755D01*
X013165Y005830D01*
X013165Y005980D01*
X013015Y005755D02*
X013165Y005605D01*
X012704Y005605D02*
X012404Y005605D01*
X012404Y006055D01*
X012704Y006055D01*
X012244Y005980D02*
X012244Y005830D01*
X012169Y005755D01*
X011944Y005755D01*
X011944Y005605D02*
X011944Y006055D01*
X012169Y006055D01*
X012244Y005980D01*
X012404Y005830D02*
X012554Y005830D01*
X011784Y006055D02*
X011784Y005605D01*
X011483Y005605D02*
X011483Y006055D01*
X011634Y005905D01*
X011784Y006055D01*
X011323Y006055D02*
X011323Y005680D01*
X011248Y005605D01*
X011098Y005605D01*
X011023Y005680D01*
X011023Y006055D01*
X010863Y006055D02*
X010713Y006055D01*
X010788Y006055D02*
X010788Y005680D01*
X010713Y005605D01*
X010638Y005605D01*
X010563Y005680D01*
X010403Y005680D02*
X010327Y005605D01*
X010177Y005605D01*
X010102Y005680D01*
X010403Y005980D01*
X010403Y005680D01*
X010403Y005980D02*
X010327Y006055D01*
X010177Y006055D01*
X010102Y005980D01*
X010102Y005680D01*
X009942Y005680D02*
X009942Y005980D01*
X009867Y006055D01*
X009642Y006055D01*
X009642Y005605D01*
X009867Y005605D01*
X009942Y005680D01*
X009482Y005605D02*
X009482Y005905D01*
X009332Y006055D01*
X009181Y005905D01*
X009181Y005605D01*
X009181Y005830D02*
X009482Y005830D01*
X013675Y003995D02*
X013675Y003695D01*
X013900Y003695D01*
X013825Y003845D01*
X013825Y003920D01*
X013900Y003995D01*
X014050Y003995D01*
X014125Y003920D01*
X014125Y003770D01*
X014050Y003695D01*
X014125Y003534D02*
X013975Y003384D01*
X013975Y003459D02*
X013975Y003234D01*
X014125Y003234D02*
X013675Y003234D01*
X013675Y003459D01*
X013750Y003534D01*
X013900Y003534D01*
X013975Y003459D01*
X014600Y004305D02*
X014750Y004305D01*
X014825Y004380D01*
X014985Y004305D02*
X015286Y004305D01*
X015136Y004305D02*
X015136Y004755D01*
X014985Y004605D01*
X014825Y004680D02*
X014750Y004755D01*
X014600Y004755D01*
X014525Y004680D01*
X014525Y004380D01*
X014600Y004305D01*
X017775Y004380D02*
X017850Y004305D01*
X018000Y004305D01*
X018075Y004380D01*
X018235Y004305D02*
X018536Y004605D01*
X018536Y004680D01*
X018461Y004755D01*
X018310Y004755D01*
X018235Y004680D01*
X018075Y004680D02*
X018000Y004755D01*
X017850Y004755D01*
X017775Y004680D01*
X017775Y004380D01*
X018235Y004305D02*
X018536Y004305D01*
X024175Y011984D02*
X024175Y012209D01*
X024250Y012284D01*
X024400Y012284D01*
X024475Y012209D01*
X024475Y011984D01*
X024625Y011984D02*
X024175Y011984D01*
X024475Y012134D02*
X024625Y012284D01*
X024625Y012445D02*
X024625Y012745D01*
X024625Y012595D02*
X024175Y012595D01*
X024325Y012445D01*
X000300Y012680D02*
X000302Y012757D01*
X000308Y012834D01*
X000318Y012911D01*
X000332Y012987D01*
X000349Y013062D01*
X000371Y013136D01*
X000396Y013209D01*
X000426Y013281D01*
X000458Y013351D01*
X000495Y013419D01*
X000534Y013485D01*
X000577Y013549D01*
X000624Y013611D01*
X000673Y013670D01*
X000726Y013727D01*
X000781Y013781D01*
X000839Y013832D01*
X000900Y013880D01*
X000963Y013925D01*
X001028Y013966D01*
X001095Y014004D01*
X001164Y014039D01*
X001235Y014069D01*
X001307Y014097D01*
X001381Y014120D01*
X001455Y014140D01*
X001531Y014156D01*
X001607Y014168D01*
X001684Y014176D01*
X001761Y014180D01*
X001839Y014180D01*
X001916Y014176D01*
X001993Y014168D01*
X002069Y014156D01*
X002145Y014140D01*
X002219Y014120D01*
X002293Y014097D01*
X002365Y014069D01*
X002436Y014039D01*
X002505Y014004D01*
X002572Y013966D01*
X002637Y013925D01*
X002700Y013880D01*
X002761Y013832D01*
X002819Y013781D01*
X002874Y013727D01*
X002927Y013670D01*
X002976Y013611D01*
X003023Y013549D01*
X003066Y013485D01*
X003105Y013419D01*
X003142Y013351D01*
X003174Y013281D01*
X003204Y013209D01*
X003229Y013136D01*
X003251Y013062D01*
X003268Y012987D01*
X003282Y012911D01*
X003292Y012834D01*
X003298Y012757D01*
X003300Y012680D01*
X003298Y012603D01*
X003292Y012526D01*
X003282Y012449D01*
X003268Y012373D01*
X003251Y012298D01*
X003229Y012224D01*
X003204Y012151D01*
X003174Y012079D01*
X003142Y012009D01*
X003105Y011941D01*
X003066Y011875D01*
X003023Y011811D01*
X002976Y011749D01*
X002927Y011690D01*
X002874Y011633D01*
X002819Y011579D01*
X002761Y011528D01*
X002700Y011480D01*
X002637Y011435D01*
X002572Y011394D01*
X002505Y011356D01*
X002436Y011321D01*
X002365Y011291D01*
X002293Y011263D01*
X002219Y011240D01*
X002145Y011220D01*
X002069Y011204D01*
X001993Y011192D01*
X001916Y011184D01*
X001839Y011180D01*
X001761Y011180D01*
X001684Y011184D01*
X001607Y011192D01*
X001531Y011204D01*
X001455Y011220D01*
X001381Y011240D01*
X001307Y011263D01*
X001235Y011291D01*
X001164Y011321D01*
X001095Y011356D01*
X001028Y011394D01*
X000963Y011435D01*
X000900Y011480D01*
X000839Y011528D01*
X000781Y011579D01*
X000726Y011633D01*
X000673Y011690D01*
X000624Y011749D01*
X000577Y011811D01*
X000534Y011875D01*
X000495Y011941D01*
X000458Y012009D01*
X000426Y012079D01*
X000396Y012151D01*
X000371Y012224D01*
X000349Y012298D01*
X000332Y012373D01*
X000318Y012449D01*
X000308Y012526D01*
X000302Y012603D01*
X000300Y012680D01*
D13*
X024154Y007491D02*
X024260Y007491D01*
X024470Y007281D01*
X024785Y007281D01*
X024470Y007281D02*
X024260Y007070D01*
X024154Y007070D01*
X024154Y006846D02*
X024785Y006846D01*
X024154Y006426D01*
X024785Y006426D01*
X024785Y006206D02*
X024785Y005996D01*
X024785Y006101D02*
X024154Y006101D01*
X024154Y005996D02*
X024154Y006206D01*
X024154Y005772D02*
X024154Y005352D01*
X024154Y005562D02*
X024785Y005562D01*
X024890Y005127D02*
X024890Y004707D01*
X024785Y004273D02*
X024154Y004273D01*
X024154Y004063D02*
X024154Y004483D01*
X024365Y003838D02*
X024785Y003838D01*
X024470Y003838D02*
X024470Y003418D01*
X024365Y003418D02*
X024154Y003628D01*
X024365Y003838D01*
X024365Y003418D02*
X024785Y003418D01*
D14*
X024450Y005880D02*
X024450Y000480D01*
X030600Y000480D01*
X030600Y005880D01*
X024450Y005880D01*
X012400Y005880D02*
X012400Y000480D01*
X006250Y000480D01*
X006250Y005880D01*
X012400Y005880D01*
D15*
X013050Y004350D03*
X013050Y001510D03*
X014550Y010260D03*
X014550Y013100D03*
X023550Y013100D03*
X023550Y010260D03*
D16*
X020227Y017323D02*
X019920Y017323D01*
X020380Y017400D02*
X020380Y017707D01*
X020611Y017707D01*
X020687Y017630D01*
X020687Y017400D01*
X020841Y017477D02*
X020918Y017553D01*
X021148Y017553D01*
X021148Y017630D02*
X021148Y017400D01*
X020918Y017400D01*
X020841Y017477D01*
X020918Y017707D02*
X021071Y017707D01*
X021148Y017630D01*
X021301Y017707D02*
X021378Y017707D01*
X021455Y017630D01*
X021531Y017707D01*
X021608Y017630D01*
X021608Y017400D01*
X021455Y017400D02*
X021455Y017630D01*
X021301Y017707D02*
X021301Y017400D01*
X021762Y017477D02*
X021762Y017630D01*
X021838Y017707D01*
X021992Y017707D01*
X022068Y017630D01*
X022068Y017553D01*
X021762Y017553D01*
X021762Y017477D02*
X021838Y017400D01*
X021992Y017400D01*
X018068Y017553D02*
X017762Y017553D01*
X017762Y017477D02*
X017762Y017630D01*
X017838Y017707D01*
X017992Y017707D01*
X018068Y017630D01*
X018068Y017553D01*
X017992Y017400D02*
X017838Y017400D01*
X017762Y017477D01*
X017608Y017400D02*
X017608Y017630D01*
X017531Y017707D01*
X017455Y017630D01*
X017455Y017400D01*
X017301Y017400D02*
X017301Y017707D01*
X017378Y017707D01*
X017455Y017630D01*
X017148Y017630D02*
X017148Y017400D01*
X016918Y017400D01*
X016841Y017477D01*
X016918Y017553D01*
X017148Y017553D01*
X017148Y017630D02*
X017071Y017707D01*
X016918Y017707D01*
X016687Y017630D02*
X016687Y017400D01*
X016687Y017630D02*
X016611Y017707D01*
X016380Y017707D01*
X016380Y017400D01*
X016227Y017323D02*
X015920Y017323D01*
X001530Y015470D02*
X001530Y015316D01*
X001453Y015240D01*
X001300Y015240D01*
X001223Y015316D01*
X001223Y015470D01*
X001300Y015547D01*
X001377Y015547D01*
X001377Y015240D01*
X001530Y015086D02*
X001530Y014856D01*
X001453Y014779D01*
X001300Y014779D01*
X001223Y014856D01*
X001223Y015086D01*
X000780Y015009D02*
X000473Y014702D01*
X000550Y014549D02*
X000627Y014549D01*
X000627Y014242D01*
X000703Y014242D02*
X000550Y014242D01*
X000473Y014319D01*
X000473Y014472D01*
X000550Y014549D01*
X000780Y014472D02*
X000780Y014319D01*
X000703Y014242D01*
X000780Y014089D02*
X000780Y013935D01*
X000780Y014012D02*
X000320Y014012D01*
X000320Y013935D01*
X000320Y013782D02*
X000320Y013475D01*
X000780Y013475D01*
X000550Y013475D02*
X000550Y013628D01*
X001070Y013475D02*
X001070Y013782D01*
X001223Y014012D02*
X001300Y013935D01*
X001453Y013935D01*
X001530Y014012D01*
X001530Y014165D01*
X001453Y014242D01*
X001300Y014242D01*
X001223Y014165D01*
X001223Y014012D01*
X001223Y014396D02*
X001530Y014396D01*
X001377Y014396D02*
X001223Y014549D01*
X001223Y014626D01*
X000780Y014702D02*
X000473Y015009D01*
X000473Y015163D02*
X000473Y015240D01*
X000780Y015240D01*
X000780Y015316D02*
X000780Y015163D01*
X000320Y015240D02*
X000243Y015240D01*
X001300Y013628D02*
X001300Y013475D01*
X001530Y013475D02*
X001070Y013475D01*
D17*
X015180Y003930D02*
X015180Y003680D01*
X015180Y003430D01*
X015430Y003430D02*
X015430Y003680D01*
X015430Y003930D01*
X018430Y003930D02*
X018430Y003680D01*
X018430Y003430D01*
X018680Y003430D02*
X018680Y003680D01*
X018680Y003930D01*
M02*
