G75*
%MOIN*%
%OFA0B0*%
%FSLAX24Y24*%
%IPPOS*%
%LPD*%
%AMOC8*
5,1,8,0,0,1.08239X$1,22.5*
%
%ADD10C,0.0100*%
%ADD11C,0.0270*%
%ADD12C,0.0140*%
%ADD13OC8,0.0750*%
%ADD14OC8,0.0520*%
%ADD15R,0.0740X0.0740*%
%ADD16C,0.0740*%
%ADD17C,0.0705*%
%ADD18C,0.0400*%
D10*
X000210Y000280D02*
X000210Y022780D01*
X038460Y022780D01*
X038460Y000280D01*
X000210Y000280D01*
X001430Y000730D02*
X001635Y000815D01*
X001838Y001018D01*
X001948Y001284D01*
X001948Y002276D01*
X001838Y002542D01*
X001796Y002584D01*
X001796Y005475D01*
X001840Y005519D01*
X001840Y005570D01*
X002040Y005370D01*
X002180Y005370D01*
X002180Y005750D01*
X002240Y005750D01*
X002240Y005810D01*
X002180Y005810D01*
X002180Y006190D01*
X002040Y006190D01*
X001840Y005990D01*
X001840Y006041D01*
X001809Y006072D01*
X001946Y006210D01*
X002823Y006210D01*
X003033Y006297D01*
X003193Y006457D01*
X003693Y006957D01*
X003780Y007167D01*
X003780Y007296D01*
X003955Y007471D01*
X003955Y008089D01*
X003780Y008264D01*
X003780Y013393D01*
X003693Y013603D01*
X003533Y013763D01*
X003086Y014210D01*
X003474Y014210D01*
X004140Y013544D01*
X004140Y008264D01*
X003965Y008089D01*
X003965Y007471D01*
X004401Y007035D01*
X005019Y007035D01*
X005455Y007471D01*
X005455Y008089D01*
X005280Y008264D01*
X005280Y013893D01*
X005193Y014103D01*
X004193Y015103D01*
X004033Y015263D01*
X003823Y015350D01*
X002780Y015350D01*
X002780Y019104D01*
X002972Y019183D01*
X003175Y019386D01*
X003285Y019652D01*
X003285Y019939D01*
X003175Y020205D01*
X002972Y020408D01*
X002706Y020518D01*
X001714Y020518D01*
X001448Y020408D01*
X001245Y020205D01*
X001135Y019939D01*
X001135Y019652D01*
X001245Y019386D01*
X001448Y019183D01*
X001640Y019104D01*
X001640Y015257D01*
X001583Y015199D01*
X001470Y014927D01*
X001470Y014633D01*
X001583Y014361D01*
X001663Y014280D01*
X001583Y014199D01*
X001470Y013927D01*
X001470Y013633D01*
X001567Y013400D01*
X001526Y013360D01*
X001470Y013224D01*
X001470Y012336D01*
X001526Y012200D01*
X001630Y012096D01*
X001640Y012092D01*
X001640Y008350D01*
X001531Y008350D01*
X001471Y008410D01*
X000949Y008410D01*
X000660Y008121D01*
X000660Y022326D01*
X009210Y022326D01*
X009210Y000730D01*
X001430Y000730D01*
X001532Y000773D02*
X009210Y000773D01*
X009210Y000871D02*
X001691Y000871D01*
X001790Y000970D02*
X002986Y000970D01*
X003001Y000962D02*
X003077Y000937D01*
X003144Y000927D01*
X003144Y001730D01*
X002692Y001730D01*
X002692Y001388D01*
X002704Y001310D01*
X002729Y001235D01*
X002764Y001164D01*
X002811Y001100D01*
X002867Y001044D01*
X002931Y000998D01*
X003001Y000962D01*
X003144Y000970D02*
X003244Y000970D01*
X003244Y000927D02*
X003312Y000937D01*
X003387Y000962D01*
X003458Y000998D01*
X003522Y001044D01*
X003578Y001100D01*
X003624Y001164D01*
X003660Y001235D01*
X003684Y001310D01*
X003697Y001388D01*
X003697Y001730D01*
X003244Y001730D01*
X003244Y000927D01*
X003244Y001068D02*
X003144Y001068D01*
X003144Y001167D02*
X003244Y001167D01*
X003244Y001265D02*
X003144Y001265D01*
X003144Y001364D02*
X003244Y001364D01*
X003244Y001462D02*
X003144Y001462D01*
X003144Y001561D02*
X003244Y001561D01*
X003244Y001659D02*
X003144Y001659D01*
X003144Y001730D02*
X003244Y001730D01*
X003244Y001830D01*
X003144Y001830D01*
X003144Y001730D01*
X003144Y001758D02*
X001948Y001758D01*
X001948Y001856D02*
X002692Y001856D01*
X002692Y001830D02*
X003144Y001830D01*
X003144Y002633D01*
X003077Y002623D01*
X003001Y002598D01*
X002931Y002562D01*
X002867Y002516D01*
X002811Y002460D01*
X002764Y002396D01*
X002729Y002325D01*
X002704Y002250D01*
X001948Y002250D01*
X001948Y002152D02*
X002692Y002152D01*
X002692Y002172D02*
X002692Y001830D01*
X002692Y001955D02*
X001948Y001955D01*
X001948Y002053D02*
X002692Y002053D01*
X002692Y002172D02*
X002704Y002250D01*
X002740Y002349D02*
X001918Y002349D01*
X001878Y002447D02*
X002802Y002447D01*
X002908Y002546D02*
X001835Y002546D01*
X001796Y002644D02*
X005604Y002644D01*
X005611Y002680D02*
X005540Y002280D01*
X005540Y002280D01*
X005611Y001880D01*
X005611Y001880D01*
X005814Y001528D01*
X006125Y001267D01*
X006507Y001128D01*
X006913Y001128D01*
X007295Y001267D01*
X007606Y001528D01*
X007809Y001880D01*
X007880Y002280D01*
X007809Y002680D01*
X007606Y003032D01*
X007295Y003293D01*
X006913Y003432D01*
X006507Y003432D01*
X006125Y003293D01*
X005814Y003032D01*
X005611Y002680D01*
X005611Y002680D01*
X005647Y002743D02*
X001796Y002743D01*
X001796Y002841D02*
X005703Y002841D01*
X005760Y002940D02*
X001796Y002940D01*
X001796Y003038D02*
X005821Y003038D01*
X005814Y003032D02*
X005814Y003032D01*
X005938Y003137D02*
X001796Y003137D01*
X001796Y003235D02*
X006056Y003235D01*
X006125Y003293D02*
X006125Y003293D01*
X006236Y003334D02*
X001796Y003334D01*
X001796Y003432D02*
X006506Y003432D01*
X006914Y003432D02*
X009210Y003432D01*
X009210Y003334D02*
X007184Y003334D01*
X007295Y003293D02*
X007295Y003293D01*
X007364Y003235D02*
X009210Y003235D01*
X009210Y003137D02*
X007482Y003137D01*
X007599Y003038D02*
X009210Y003038D01*
X009210Y002940D02*
X007660Y002940D01*
X007606Y003032D02*
X007606Y003032D01*
X007606Y003032D01*
X007717Y002841D02*
X009210Y002841D01*
X009210Y002743D02*
X007773Y002743D01*
X007809Y002680D02*
X007809Y002680D01*
X007816Y002644D02*
X009210Y002644D01*
X009210Y002546D02*
X007833Y002546D01*
X007851Y002447D02*
X009210Y002447D01*
X009210Y002349D02*
X007868Y002349D01*
X007875Y002250D02*
X009210Y002250D01*
X009210Y002152D02*
X007857Y002152D01*
X007840Y002053D02*
X009210Y002053D01*
X009210Y001955D02*
X007823Y001955D01*
X007809Y001880D02*
X007809Y001880D01*
X007796Y001856D02*
X009210Y001856D01*
X009210Y001758D02*
X007739Y001758D01*
X007682Y001659D02*
X009210Y001659D01*
X009210Y001561D02*
X007625Y001561D01*
X007606Y001528D02*
X007606Y001528D01*
X007528Y001462D02*
X009210Y001462D01*
X009210Y001364D02*
X007410Y001364D01*
X007295Y001267D02*
X007295Y001267D01*
X007290Y001265D02*
X009210Y001265D01*
X009210Y001167D02*
X007020Y001167D01*
X006400Y001167D02*
X003625Y001167D01*
X003670Y001265D02*
X006130Y001265D01*
X006125Y001267D02*
X006125Y001267D01*
X006010Y001364D02*
X003693Y001364D01*
X003697Y001462D02*
X005892Y001462D01*
X005814Y001528D02*
X005814Y001528D01*
X005814Y001528D01*
X005795Y001561D02*
X003697Y001561D01*
X003697Y001659D02*
X005738Y001659D01*
X005681Y001758D02*
X003244Y001758D01*
X003244Y001830D02*
X003697Y001830D01*
X003697Y002172D01*
X003684Y002250D01*
X005545Y002250D01*
X005552Y002349D02*
X003648Y002349D01*
X003660Y002325D02*
X003624Y002396D01*
X003578Y002460D01*
X003522Y002516D01*
X003458Y002562D01*
X003387Y002598D01*
X003312Y002623D01*
X003244Y002633D01*
X003244Y001830D01*
X003244Y001856D02*
X003144Y001856D01*
X003144Y001955D02*
X003244Y001955D01*
X003244Y002053D02*
X003144Y002053D01*
X003144Y002152D02*
X003244Y002152D01*
X003244Y002250D02*
X003144Y002250D01*
X003144Y002349D02*
X003244Y002349D01*
X003244Y002447D02*
X003144Y002447D01*
X003144Y002546D02*
X003244Y002546D01*
X003481Y002546D02*
X005587Y002546D01*
X005569Y002447D02*
X003587Y002447D01*
X003660Y002325D02*
X003684Y002250D01*
X003697Y002152D02*
X005563Y002152D01*
X005580Y002053D02*
X003697Y002053D01*
X003697Y001955D02*
X005597Y001955D01*
X005624Y001856D02*
X003697Y001856D01*
X002692Y001659D02*
X001948Y001659D01*
X001948Y001561D02*
X002692Y001561D01*
X002692Y001462D02*
X001948Y001462D01*
X001948Y001364D02*
X002696Y001364D01*
X002719Y001265D02*
X001940Y001265D01*
X001900Y001167D02*
X002763Y001167D01*
X002843Y001068D02*
X001859Y001068D01*
X003402Y000970D02*
X009210Y000970D01*
X009210Y001068D02*
X003545Y001068D01*
X005960Y002280D02*
X005962Y002334D01*
X005968Y002388D01*
X005978Y002441D01*
X005991Y002494D01*
X006008Y002545D01*
X006029Y002595D01*
X006054Y002643D01*
X006082Y002690D01*
X006113Y002734D01*
X006147Y002776D01*
X006184Y002815D01*
X006224Y002852D01*
X006267Y002885D01*
X006312Y002916D01*
X006359Y002943D01*
X006407Y002966D01*
X006458Y002986D01*
X006509Y003003D01*
X006562Y003015D01*
X006615Y003024D01*
X006669Y003029D01*
X006724Y003030D01*
X006778Y003027D01*
X006831Y003020D01*
X006884Y003009D01*
X006937Y002995D01*
X006988Y002977D01*
X007037Y002955D01*
X007085Y002930D01*
X007131Y002901D01*
X007175Y002869D01*
X007216Y002834D01*
X007254Y002796D01*
X007290Y002755D01*
X007323Y002712D01*
X007353Y002667D01*
X007379Y002619D01*
X007402Y002570D01*
X007421Y002519D01*
X007436Y002468D01*
X007448Y002415D01*
X007456Y002361D01*
X007460Y002307D01*
X007460Y002253D01*
X007456Y002199D01*
X007448Y002145D01*
X007436Y002092D01*
X007421Y002041D01*
X007402Y001990D01*
X007379Y001941D01*
X007353Y001893D01*
X007323Y001848D01*
X007290Y001805D01*
X007254Y001764D01*
X007216Y001726D01*
X007175Y001691D01*
X007131Y001659D01*
X007085Y001630D01*
X007037Y001605D01*
X006988Y001583D01*
X006937Y001565D01*
X006884Y001551D01*
X006831Y001540D01*
X006778Y001533D01*
X006724Y001530D01*
X006669Y001531D01*
X006615Y001536D01*
X006562Y001545D01*
X006509Y001557D01*
X006458Y001574D01*
X006407Y001594D01*
X006359Y001617D01*
X006312Y001644D01*
X006267Y001675D01*
X006224Y001708D01*
X006184Y001745D01*
X006147Y001784D01*
X006113Y001826D01*
X006082Y001870D01*
X006054Y001917D01*
X006029Y001965D01*
X006008Y002015D01*
X005991Y002066D01*
X005978Y002119D01*
X005968Y002172D01*
X005962Y002226D01*
X005960Y002280D01*
X009210Y003531D02*
X001796Y003531D01*
X001796Y003629D02*
X009210Y003629D01*
X009210Y003728D02*
X001796Y003728D01*
X001796Y003826D02*
X009210Y003826D01*
X009210Y003925D02*
X001796Y003925D01*
X001796Y004023D02*
X009210Y004023D01*
X009210Y004122D02*
X001796Y004122D01*
X001796Y004220D02*
X009210Y004220D01*
X009210Y004319D02*
X004991Y004319D01*
X004927Y004255D02*
X005235Y004563D01*
X005235Y004740D01*
X004750Y004740D01*
X004750Y004820D01*
X004670Y004820D01*
X004670Y005305D01*
X004493Y005305D01*
X004185Y004997D01*
X004185Y004820D01*
X004670Y004820D01*
X004670Y004740D01*
X004185Y004740D01*
X004185Y004563D01*
X004493Y004255D01*
X004670Y004255D01*
X004670Y004740D01*
X004750Y004740D01*
X004750Y004255D01*
X004927Y004255D01*
X004750Y004319D02*
X004670Y004319D01*
X004670Y004417D02*
X004750Y004417D01*
X004750Y004516D02*
X004670Y004516D01*
X004670Y004614D02*
X004750Y004614D01*
X004750Y004713D02*
X004670Y004713D01*
X004670Y004811D02*
X003250Y004811D01*
X003250Y004820D02*
X003250Y004740D01*
X003735Y004740D01*
X003735Y004563D01*
X003427Y004255D01*
X003250Y004255D01*
X003250Y004740D01*
X003170Y004740D01*
X002685Y004740D01*
X002685Y004563D01*
X002993Y004255D01*
X003170Y004255D01*
X003170Y004740D01*
X003170Y004820D01*
X003170Y005305D01*
X002993Y005305D01*
X002685Y004997D01*
X002685Y004820D01*
X003170Y004820D01*
X003250Y004820D01*
X003250Y005305D01*
X003427Y005305D01*
X003735Y004997D01*
X003735Y004820D01*
X003250Y004820D01*
X003170Y004811D02*
X001796Y004811D01*
X001796Y004713D02*
X002685Y004713D01*
X002685Y004614D02*
X001796Y004614D01*
X001796Y004516D02*
X002732Y004516D01*
X002831Y004417D02*
X001796Y004417D01*
X001796Y004319D02*
X002929Y004319D01*
X003170Y004319D02*
X003250Y004319D01*
X003250Y004417D02*
X003170Y004417D01*
X003170Y004516D02*
X003250Y004516D01*
X003250Y004614D02*
X003170Y004614D01*
X003170Y004713D02*
X003250Y004713D01*
X003250Y004910D02*
X003170Y004910D01*
X003170Y005008D02*
X003250Y005008D01*
X003250Y005107D02*
X003170Y005107D01*
X003170Y005205D02*
X003250Y005205D01*
X003250Y005304D02*
X003170Y005304D01*
X002991Y005304D02*
X001796Y005304D01*
X001796Y005402D02*
X002008Y005402D01*
X001910Y005501D02*
X001821Y005501D01*
X001796Y005205D02*
X002893Y005205D01*
X002794Y005107D02*
X001796Y005107D01*
X001796Y005008D02*
X002696Y005008D01*
X002685Y004910D02*
X001796Y004910D01*
X002180Y005402D02*
X002240Y005402D01*
X002240Y005370D02*
X002380Y005370D01*
X002620Y005610D01*
X002620Y005750D01*
X002240Y005750D01*
X002240Y005370D01*
X002240Y005501D02*
X002180Y005501D01*
X002180Y005599D02*
X002240Y005599D01*
X002240Y005698D02*
X002180Y005698D01*
X002240Y005796D02*
X009210Y005796D01*
X009210Y005698D02*
X002620Y005698D01*
X002609Y005599D02*
X009210Y005599D01*
X009210Y005501D02*
X002510Y005501D01*
X002412Y005402D02*
X009210Y005402D01*
X009210Y005304D02*
X004929Y005304D01*
X004927Y005305D02*
X004750Y005305D01*
X004750Y004820D01*
X005235Y004820D01*
X005235Y004997D01*
X004927Y005305D01*
X005027Y005205D02*
X009210Y005205D01*
X009210Y005107D02*
X005126Y005107D01*
X005224Y005008D02*
X009210Y005008D01*
X009210Y004910D02*
X005235Y004910D01*
X005235Y004713D02*
X009210Y004713D01*
X009210Y004811D02*
X004750Y004811D01*
X004750Y004910D02*
X004670Y004910D01*
X004670Y005008D02*
X004750Y005008D01*
X004750Y005107D02*
X004670Y005107D01*
X004670Y005205D02*
X004750Y005205D01*
X004750Y005304D02*
X004670Y005304D01*
X004491Y005304D02*
X003429Y005304D01*
X003527Y005205D02*
X004393Y005205D01*
X004294Y005107D02*
X003626Y005107D01*
X003724Y005008D02*
X004196Y005008D01*
X004185Y004910D02*
X003735Y004910D01*
X003735Y004713D02*
X004185Y004713D01*
X004185Y004614D02*
X003735Y004614D01*
X003688Y004516D02*
X004232Y004516D01*
X004331Y004417D02*
X003589Y004417D01*
X003491Y004319D02*
X004429Y004319D01*
X005089Y004417D02*
X009210Y004417D01*
X009210Y004516D02*
X005188Y004516D01*
X005235Y004614D02*
X009210Y004614D01*
X009210Y005895D02*
X002620Y005895D01*
X002620Y005950D02*
X002380Y006190D01*
X002240Y006190D01*
X002240Y005810D01*
X002620Y005810D01*
X002620Y005950D01*
X002577Y005993D02*
X009210Y005993D01*
X009210Y006092D02*
X002478Y006092D01*
X002240Y006092D02*
X002180Y006092D01*
X002180Y005993D02*
X002240Y005993D01*
X002240Y005895D02*
X002180Y005895D01*
X001942Y006092D02*
X001828Y006092D01*
X001840Y005993D02*
X001843Y005993D01*
X001926Y006190D02*
X009210Y006190D01*
X009210Y006289D02*
X003013Y006289D01*
X003123Y006387D02*
X009210Y006387D01*
X009210Y006486D02*
X003222Y006486D01*
X003320Y006584D02*
X009210Y006584D01*
X009210Y006683D02*
X003419Y006683D01*
X003517Y006781D02*
X009210Y006781D01*
X009210Y006880D02*
X003616Y006880D01*
X003702Y006978D02*
X009210Y006978D01*
X009210Y007077D02*
X005060Y007077D01*
X005159Y007175D02*
X009210Y007175D01*
X009210Y007274D02*
X005257Y007274D01*
X005356Y007372D02*
X009210Y007372D01*
X009210Y007471D02*
X005454Y007471D01*
X005455Y007569D02*
X009210Y007569D01*
X009210Y007668D02*
X005455Y007668D01*
X005455Y007766D02*
X009210Y007766D01*
X009210Y007865D02*
X005455Y007865D01*
X005455Y007963D02*
X009210Y007963D01*
X009210Y008062D02*
X005455Y008062D01*
X005384Y008160D02*
X009210Y008160D01*
X009210Y008259D02*
X005285Y008259D01*
X005280Y008357D02*
X009210Y008357D01*
X009210Y008456D02*
X005280Y008456D01*
X005280Y008554D02*
X009210Y008554D01*
X009210Y008653D02*
X005280Y008653D01*
X005280Y008751D02*
X009210Y008751D01*
X009210Y008850D02*
X005280Y008850D01*
X005280Y008948D02*
X009210Y008948D01*
X009210Y009047D02*
X005280Y009047D01*
X005280Y009145D02*
X009210Y009145D01*
X009210Y009244D02*
X005280Y009244D01*
X005280Y009342D02*
X009210Y009342D01*
X009210Y009441D02*
X005280Y009441D01*
X005280Y009539D02*
X009210Y009539D01*
X009210Y009638D02*
X005280Y009638D01*
X005280Y009736D02*
X009210Y009736D01*
X009210Y009835D02*
X005280Y009835D01*
X005280Y009933D02*
X009210Y009933D01*
X009210Y010032D02*
X005280Y010032D01*
X005280Y010130D02*
X009210Y010130D01*
X009210Y010229D02*
X005280Y010229D01*
X005280Y010327D02*
X009210Y010327D01*
X009210Y010426D02*
X005280Y010426D01*
X005280Y010524D02*
X009210Y010524D01*
X009210Y010623D02*
X005280Y010623D01*
X005280Y010721D02*
X009210Y010721D01*
X009210Y010820D02*
X005280Y010820D01*
X005280Y010918D02*
X009210Y010918D01*
X009210Y011017D02*
X005280Y011017D01*
X005280Y011115D02*
X009210Y011115D01*
X009210Y011214D02*
X005280Y011214D01*
X005280Y011312D02*
X009210Y011312D01*
X009210Y011411D02*
X005280Y011411D01*
X005280Y011509D02*
X009210Y011509D01*
X009210Y011608D02*
X005280Y011608D01*
X005280Y011706D02*
X009210Y011706D01*
X009210Y011805D02*
X005280Y011805D01*
X005280Y011903D02*
X009210Y011903D01*
X009210Y012002D02*
X005280Y012002D01*
X005280Y012100D02*
X009210Y012100D01*
X009210Y012199D02*
X005280Y012199D01*
X005280Y012297D02*
X009210Y012297D01*
X009210Y012396D02*
X005280Y012396D01*
X005280Y012494D02*
X009210Y012494D01*
X009210Y012593D02*
X005280Y012593D01*
X005280Y012691D02*
X009210Y012691D01*
X009210Y012790D02*
X005280Y012790D01*
X005280Y012888D02*
X009210Y012888D01*
X009210Y012987D02*
X005280Y012987D01*
X005280Y013085D02*
X009210Y013085D01*
X009210Y013184D02*
X005280Y013184D01*
X005280Y013282D02*
X009210Y013282D01*
X009210Y013381D02*
X005280Y013381D01*
X005280Y013479D02*
X009210Y013479D01*
X009210Y013578D02*
X005280Y013578D01*
X005280Y013676D02*
X009210Y013676D01*
X009210Y013775D02*
X005280Y013775D01*
X005280Y013873D02*
X009210Y013873D01*
X009210Y013972D02*
X005248Y013972D01*
X005207Y014070D02*
X009210Y014070D01*
X009210Y014169D02*
X005128Y014169D01*
X005029Y014267D02*
X009210Y014267D01*
X009210Y014366D02*
X004931Y014366D01*
X004832Y014464D02*
X009210Y014464D01*
X009210Y014563D02*
X004734Y014563D01*
X004635Y014661D02*
X009210Y014661D01*
X009210Y014760D02*
X004537Y014760D01*
X004438Y014858D02*
X009210Y014858D01*
X009210Y014957D02*
X004340Y014957D01*
X004241Y015055D02*
X009210Y015055D01*
X009210Y015154D02*
X004143Y015154D01*
X004044Y015252D02*
X009210Y015252D01*
X009210Y015351D02*
X002780Y015351D01*
X002780Y015449D02*
X009210Y015449D01*
X009210Y015548D02*
X002780Y015548D01*
X002780Y015646D02*
X009210Y015646D01*
X009210Y015745D02*
X002780Y015745D01*
X002780Y015843D02*
X009210Y015843D01*
X009210Y015942D02*
X002780Y015942D01*
X002780Y016040D02*
X009210Y016040D01*
X009210Y016139D02*
X002780Y016139D01*
X002780Y016237D02*
X009210Y016237D01*
X009210Y016336D02*
X002780Y016336D01*
X002780Y016434D02*
X009210Y016434D01*
X009210Y016533D02*
X002780Y016533D01*
X002780Y016631D02*
X009210Y016631D01*
X009210Y016730D02*
X002780Y016730D01*
X002780Y016828D02*
X009210Y016828D01*
X009210Y016927D02*
X002780Y016927D01*
X002780Y017025D02*
X009210Y017025D01*
X009210Y017124D02*
X002780Y017124D01*
X002780Y017222D02*
X009210Y017222D01*
X009210Y017321D02*
X002780Y017321D01*
X002780Y017419D02*
X009210Y017419D01*
X009210Y017518D02*
X002780Y017518D01*
X002780Y017616D02*
X009210Y017616D01*
X009210Y017715D02*
X002780Y017715D01*
X002780Y017813D02*
X009210Y017813D01*
X009210Y017912D02*
X002780Y017912D01*
X002780Y018010D02*
X009210Y018010D01*
X009210Y018109D02*
X002780Y018109D01*
X002780Y018207D02*
X009210Y018207D01*
X009210Y018306D02*
X002780Y018306D01*
X002780Y018404D02*
X009210Y018404D01*
X009210Y018503D02*
X002780Y018503D01*
X002780Y018601D02*
X009210Y018601D01*
X009210Y018700D02*
X002780Y018700D01*
X002780Y018798D02*
X009210Y018798D01*
X009210Y018897D02*
X002780Y018897D01*
X002780Y018995D02*
X009210Y018995D01*
X009210Y019094D02*
X002780Y019094D01*
X002981Y019192D02*
X009210Y019192D01*
X009210Y019291D02*
X003079Y019291D01*
X003176Y019389D02*
X009210Y019389D01*
X009210Y019488D02*
X003217Y019488D01*
X003258Y019586D02*
X009210Y019586D01*
X009210Y019685D02*
X007069Y019685D01*
X006913Y019628D02*
X007295Y019767D01*
X007606Y020028D01*
X007809Y020380D01*
X007880Y020780D01*
X007880Y020780D01*
X007809Y021180D01*
X007606Y021532D01*
X007295Y021793D01*
X007295Y021793D01*
X006913Y021932D01*
X006507Y021932D01*
X006125Y021793D01*
X005814Y021532D01*
X005611Y021180D01*
X005540Y020780D01*
X005540Y020780D01*
X005611Y020380D01*
X005611Y020380D01*
X005814Y020028D01*
X006125Y019767D01*
X006507Y019628D01*
X006913Y019628D01*
X007295Y019767D02*
X007295Y019767D01*
X007314Y019783D02*
X009210Y019783D01*
X009210Y019882D02*
X007432Y019882D01*
X007549Y019980D02*
X009210Y019980D01*
X009210Y020079D02*
X007635Y020079D01*
X007606Y020028D02*
X007606Y020028D01*
X007692Y020177D02*
X009210Y020177D01*
X009210Y020276D02*
X007749Y020276D01*
X007806Y020374D02*
X009210Y020374D01*
X009210Y020473D02*
X007826Y020473D01*
X007809Y020380D02*
X007809Y020380D01*
X007843Y020571D02*
X009210Y020571D01*
X009210Y020670D02*
X007861Y020670D01*
X007878Y020768D02*
X009210Y020768D01*
X009210Y020867D02*
X007865Y020867D01*
X007847Y020965D02*
X009210Y020965D01*
X009210Y021064D02*
X007830Y021064D01*
X007813Y021162D02*
X009210Y021162D01*
X009210Y021261D02*
X007763Y021261D01*
X007706Y021359D02*
X009210Y021359D01*
X009210Y021458D02*
X007649Y021458D01*
X007606Y021532D02*
X007606Y021532D01*
X007578Y021556D02*
X009210Y021556D01*
X009210Y021655D02*
X007460Y021655D01*
X007343Y021753D02*
X009210Y021753D01*
X009210Y021852D02*
X007135Y021852D01*
X006285Y021852D02*
X003057Y021852D01*
X003053Y021882D02*
X003028Y021957D01*
X002992Y022028D01*
X002946Y022092D01*
X002890Y022148D01*
X002826Y022194D01*
X002755Y022230D01*
X002680Y022254D01*
X002602Y022267D01*
X002260Y022267D01*
X002260Y021814D01*
X003063Y021814D01*
X003053Y021882D01*
X003030Y021950D02*
X009210Y021950D01*
X009210Y022049D02*
X002977Y022049D01*
X002890Y022147D02*
X009210Y022147D01*
X009210Y022246D02*
X002707Y022246D01*
X002260Y022246D02*
X002160Y022246D01*
X002160Y022267D02*
X001818Y022267D01*
X001740Y022254D01*
X001665Y022230D01*
X001594Y022194D01*
X001530Y022148D01*
X001474Y022092D01*
X001428Y022028D01*
X001392Y021957D01*
X001367Y021882D01*
X001357Y021814D01*
X002160Y021814D01*
X002160Y021714D01*
X002260Y021714D01*
X002260Y021262D01*
X002602Y021262D01*
X002680Y021274D01*
X002755Y021299D01*
X002826Y021334D01*
X002890Y021381D01*
X002946Y021437D01*
X002992Y021501D01*
X003028Y021571D01*
X003053Y021647D01*
X003063Y021714D01*
X002260Y021714D01*
X002260Y021814D01*
X002160Y021814D01*
X002160Y022267D01*
X002160Y022147D02*
X002260Y022147D01*
X002260Y022049D02*
X002160Y022049D01*
X002160Y021950D02*
X002260Y021950D01*
X002260Y021852D02*
X002160Y021852D01*
X002160Y021753D02*
X000660Y021753D01*
X000660Y021655D02*
X001366Y021655D01*
X001367Y021647D02*
X001392Y021571D01*
X001428Y021501D01*
X001474Y021437D01*
X001530Y021381D01*
X001594Y021334D01*
X001665Y021299D01*
X001740Y021274D01*
X001818Y021262D01*
X002160Y021262D01*
X002160Y021714D01*
X001357Y021714D01*
X001367Y021647D01*
X001400Y021556D02*
X000660Y021556D01*
X000660Y021458D02*
X001459Y021458D01*
X001560Y021359D02*
X000660Y021359D01*
X000660Y021261D02*
X005657Y021261D01*
X005611Y021180D02*
X005611Y021180D01*
X005607Y021162D02*
X000660Y021162D01*
X000660Y021064D02*
X005590Y021064D01*
X005573Y020965D02*
X000660Y020965D01*
X000660Y020867D02*
X005555Y020867D01*
X005542Y020768D02*
X000660Y020768D01*
X000660Y020670D02*
X005559Y020670D01*
X005577Y020571D02*
X000660Y020571D01*
X000660Y020473D02*
X001603Y020473D01*
X001414Y020374D02*
X000660Y020374D01*
X000660Y020276D02*
X001316Y020276D01*
X001233Y020177D02*
X000660Y020177D01*
X000660Y020079D02*
X001193Y020079D01*
X001152Y019980D02*
X000660Y019980D01*
X000660Y019882D02*
X001135Y019882D01*
X001135Y019783D02*
X000660Y019783D01*
X000660Y019685D02*
X001135Y019685D01*
X001162Y019586D02*
X000660Y019586D01*
X000660Y019488D02*
X001203Y019488D01*
X001244Y019389D02*
X000660Y019389D01*
X000660Y019291D02*
X001341Y019291D01*
X001439Y019192D02*
X000660Y019192D01*
X000660Y019094D02*
X001640Y019094D01*
X001640Y018995D02*
X000660Y018995D01*
X000660Y018897D02*
X001640Y018897D01*
X001640Y018798D02*
X000660Y018798D01*
X000660Y018700D02*
X001640Y018700D01*
X001640Y018601D02*
X000660Y018601D01*
X000660Y018503D02*
X001640Y018503D01*
X001640Y018404D02*
X000660Y018404D01*
X000660Y018306D02*
X001640Y018306D01*
X001640Y018207D02*
X000660Y018207D01*
X000660Y018109D02*
X001640Y018109D01*
X001640Y018010D02*
X000660Y018010D01*
X000660Y017912D02*
X001640Y017912D01*
X001640Y017813D02*
X000660Y017813D01*
X000660Y017715D02*
X001640Y017715D01*
X001640Y017616D02*
X000660Y017616D01*
X000660Y017518D02*
X001640Y017518D01*
X001640Y017419D02*
X000660Y017419D01*
X000660Y017321D02*
X001640Y017321D01*
X001640Y017222D02*
X000660Y017222D01*
X000660Y017124D02*
X001640Y017124D01*
X001640Y017025D02*
X000660Y017025D01*
X000660Y016927D02*
X001640Y016927D01*
X001640Y016828D02*
X000660Y016828D01*
X000660Y016730D02*
X001640Y016730D01*
X001640Y016631D02*
X000660Y016631D01*
X000660Y016533D02*
X001640Y016533D01*
X001640Y016434D02*
X000660Y016434D01*
X000660Y016336D02*
X001640Y016336D01*
X001640Y016237D02*
X000660Y016237D01*
X000660Y016139D02*
X001640Y016139D01*
X001640Y016040D02*
X000660Y016040D01*
X000660Y015942D02*
X001640Y015942D01*
X001640Y015843D02*
X000660Y015843D01*
X000660Y015745D02*
X001640Y015745D01*
X001640Y015646D02*
X000660Y015646D01*
X000660Y015548D02*
X001640Y015548D01*
X001640Y015449D02*
X000660Y015449D01*
X000660Y015351D02*
X001640Y015351D01*
X001636Y015252D02*
X000660Y015252D01*
X000660Y015154D02*
X001564Y015154D01*
X001523Y015055D02*
X000660Y015055D01*
X000660Y014957D02*
X001482Y014957D01*
X001470Y014858D02*
X000660Y014858D01*
X000660Y014760D02*
X001470Y014760D01*
X001470Y014661D02*
X000660Y014661D01*
X000660Y014563D02*
X001499Y014563D01*
X001540Y014464D02*
X000660Y014464D01*
X000660Y014366D02*
X001581Y014366D01*
X001651Y014267D02*
X000660Y014267D01*
X000660Y014169D02*
X001570Y014169D01*
X001529Y014070D02*
X000660Y014070D01*
X000660Y013972D02*
X001488Y013972D01*
X001470Y013873D02*
X000660Y013873D01*
X000660Y013775D02*
X001470Y013775D01*
X001470Y013676D02*
X000660Y013676D01*
X000660Y013578D02*
X001493Y013578D01*
X001534Y013479D02*
X000660Y013479D01*
X000660Y013381D02*
X001547Y013381D01*
X001494Y013282D02*
X000660Y013282D01*
X000660Y013184D02*
X001470Y013184D01*
X001470Y013085D02*
X000660Y013085D01*
X000660Y012987D02*
X001470Y012987D01*
X001470Y012888D02*
X000660Y012888D01*
X000660Y012790D02*
X001470Y012790D01*
X001470Y012691D02*
X000660Y012691D01*
X000660Y012593D02*
X001470Y012593D01*
X001470Y012494D02*
X000660Y012494D01*
X000660Y012396D02*
X001470Y012396D01*
X001486Y012297D02*
X000660Y012297D01*
X000660Y012199D02*
X001528Y012199D01*
X001627Y012100D02*
X000660Y012100D01*
X000660Y012002D02*
X001640Y012002D01*
X001640Y011903D02*
X000660Y011903D01*
X000660Y011805D02*
X001640Y011805D01*
X001640Y011706D02*
X000660Y011706D01*
X000660Y011608D02*
X001640Y011608D01*
X001640Y011509D02*
X000660Y011509D01*
X000660Y011411D02*
X001640Y011411D01*
X001640Y011312D02*
X000660Y011312D01*
X000660Y011214D02*
X001640Y011214D01*
X001640Y011115D02*
X000660Y011115D01*
X000660Y011017D02*
X001640Y011017D01*
X001640Y010918D02*
X000660Y010918D01*
X000660Y010820D02*
X001640Y010820D01*
X001640Y010721D02*
X000660Y010721D01*
X000660Y010623D02*
X001640Y010623D01*
X001640Y010524D02*
X000660Y010524D01*
X000660Y010426D02*
X001640Y010426D01*
X001640Y010327D02*
X000660Y010327D01*
X000660Y010229D02*
X001640Y010229D01*
X001640Y010130D02*
X000660Y010130D01*
X000660Y010032D02*
X001640Y010032D01*
X001640Y009933D02*
X000660Y009933D01*
X000660Y009835D02*
X001640Y009835D01*
X001640Y009736D02*
X000660Y009736D01*
X000660Y009638D02*
X001640Y009638D01*
X001640Y009539D02*
X000660Y009539D01*
X000660Y009441D02*
X001640Y009441D01*
X001640Y009342D02*
X000660Y009342D01*
X000660Y009244D02*
X001640Y009244D01*
X001640Y009145D02*
X000660Y009145D01*
X000660Y009047D02*
X001640Y009047D01*
X001640Y008948D02*
X000660Y008948D01*
X000660Y008850D02*
X001640Y008850D01*
X001640Y008751D02*
X000660Y008751D01*
X000660Y008653D02*
X001640Y008653D01*
X001640Y008554D02*
X000660Y008554D01*
X000660Y008456D02*
X001640Y008456D01*
X001640Y008357D02*
X001524Y008357D01*
X000896Y008357D02*
X000660Y008357D01*
X000660Y008259D02*
X000798Y008259D01*
X000699Y008160D02*
X000660Y008160D01*
X003780Y008357D02*
X004140Y008357D01*
X004140Y008456D02*
X003780Y008456D01*
X003780Y008554D02*
X004140Y008554D01*
X004140Y008653D02*
X003780Y008653D01*
X003780Y008751D02*
X004140Y008751D01*
X004140Y008850D02*
X003780Y008850D01*
X003780Y008948D02*
X004140Y008948D01*
X004140Y009047D02*
X003780Y009047D01*
X003780Y009145D02*
X004140Y009145D01*
X004140Y009244D02*
X003780Y009244D01*
X003780Y009342D02*
X004140Y009342D01*
X004140Y009441D02*
X003780Y009441D01*
X003780Y009539D02*
X004140Y009539D01*
X004140Y009638D02*
X003780Y009638D01*
X003780Y009736D02*
X004140Y009736D01*
X004140Y009835D02*
X003780Y009835D01*
X003780Y009933D02*
X004140Y009933D01*
X004140Y010032D02*
X003780Y010032D01*
X003780Y010130D02*
X004140Y010130D01*
X004140Y010229D02*
X003780Y010229D01*
X003780Y010327D02*
X004140Y010327D01*
X004140Y010426D02*
X003780Y010426D01*
X003780Y010524D02*
X004140Y010524D01*
X004140Y010623D02*
X003780Y010623D01*
X003780Y010721D02*
X004140Y010721D01*
X004140Y010820D02*
X003780Y010820D01*
X003780Y010918D02*
X004140Y010918D01*
X004140Y011017D02*
X003780Y011017D01*
X003780Y011115D02*
X004140Y011115D01*
X004140Y011214D02*
X003780Y011214D01*
X003780Y011312D02*
X004140Y011312D01*
X004140Y011411D02*
X003780Y011411D01*
X003780Y011509D02*
X004140Y011509D01*
X004140Y011608D02*
X003780Y011608D01*
X003780Y011706D02*
X004140Y011706D01*
X004140Y011805D02*
X003780Y011805D01*
X003780Y011903D02*
X004140Y011903D01*
X004140Y012002D02*
X003780Y012002D01*
X003780Y012100D02*
X004140Y012100D01*
X004140Y012199D02*
X003780Y012199D01*
X003780Y012297D02*
X004140Y012297D01*
X004140Y012396D02*
X003780Y012396D01*
X003780Y012494D02*
X004140Y012494D01*
X004140Y012593D02*
X003780Y012593D01*
X003780Y012691D02*
X004140Y012691D01*
X004140Y012790D02*
X003780Y012790D01*
X003780Y012888D02*
X004140Y012888D01*
X004140Y012987D02*
X003780Y012987D01*
X003780Y013085D02*
X004140Y013085D01*
X004140Y013184D02*
X003780Y013184D01*
X003780Y013282D02*
X004140Y013282D01*
X004140Y013381D02*
X003780Y013381D01*
X003745Y013479D02*
X004140Y013479D01*
X004106Y013578D02*
X003704Y013578D01*
X003620Y013676D02*
X004008Y013676D01*
X003909Y013775D02*
X003522Y013775D01*
X003423Y013873D02*
X003811Y013873D01*
X003712Y013972D02*
X003325Y013972D01*
X003226Y014070D02*
X003614Y014070D01*
X003515Y014169D02*
X003128Y014169D01*
X003285Y019685D02*
X006351Y019685D01*
X006125Y019767D02*
X006125Y019767D01*
X006106Y019783D02*
X003285Y019783D01*
X003285Y019882D02*
X005988Y019882D01*
X005871Y019980D02*
X003268Y019980D01*
X003227Y020079D02*
X005785Y020079D01*
X005814Y020028D02*
X005814Y020028D01*
X005814Y020028D01*
X005728Y020177D02*
X003187Y020177D01*
X003104Y020276D02*
X005671Y020276D01*
X005614Y020374D02*
X003006Y020374D01*
X002817Y020473D02*
X005594Y020473D01*
X005960Y020780D02*
X005962Y020834D01*
X005968Y020888D01*
X005978Y020941D01*
X005991Y020994D01*
X006008Y021045D01*
X006029Y021095D01*
X006054Y021143D01*
X006082Y021190D01*
X006113Y021234D01*
X006147Y021276D01*
X006184Y021315D01*
X006224Y021352D01*
X006267Y021385D01*
X006312Y021416D01*
X006359Y021443D01*
X006407Y021466D01*
X006458Y021486D01*
X006509Y021503D01*
X006562Y021515D01*
X006615Y021524D01*
X006669Y021529D01*
X006724Y021530D01*
X006778Y021527D01*
X006831Y021520D01*
X006884Y021509D01*
X006937Y021495D01*
X006988Y021477D01*
X007037Y021455D01*
X007085Y021430D01*
X007131Y021401D01*
X007175Y021369D01*
X007216Y021334D01*
X007254Y021296D01*
X007290Y021255D01*
X007323Y021212D01*
X007353Y021167D01*
X007379Y021119D01*
X007402Y021070D01*
X007421Y021019D01*
X007436Y020968D01*
X007448Y020915D01*
X007456Y020861D01*
X007460Y020807D01*
X007460Y020753D01*
X007456Y020699D01*
X007448Y020645D01*
X007436Y020592D01*
X007421Y020541D01*
X007402Y020490D01*
X007379Y020441D01*
X007353Y020393D01*
X007323Y020348D01*
X007290Y020305D01*
X007254Y020264D01*
X007216Y020226D01*
X007175Y020191D01*
X007131Y020159D01*
X007085Y020130D01*
X007037Y020105D01*
X006988Y020083D01*
X006937Y020065D01*
X006884Y020051D01*
X006831Y020040D01*
X006778Y020033D01*
X006724Y020030D01*
X006669Y020031D01*
X006615Y020036D01*
X006562Y020045D01*
X006509Y020057D01*
X006458Y020074D01*
X006407Y020094D01*
X006359Y020117D01*
X006312Y020144D01*
X006267Y020175D01*
X006224Y020208D01*
X006184Y020245D01*
X006147Y020284D01*
X006113Y020326D01*
X006082Y020370D01*
X006054Y020417D01*
X006029Y020465D01*
X006008Y020515D01*
X005991Y020566D01*
X005978Y020619D01*
X005968Y020672D01*
X005962Y020726D01*
X005960Y020780D01*
X005714Y021359D02*
X002860Y021359D01*
X002961Y021458D02*
X005771Y021458D01*
X005814Y021532D02*
X005814Y021532D01*
X005842Y021556D02*
X003020Y021556D01*
X003054Y021655D02*
X005960Y021655D01*
X006077Y021753D02*
X002260Y021753D01*
X002260Y021655D02*
X002160Y021655D01*
X002160Y021556D02*
X002260Y021556D01*
X002260Y021458D02*
X002160Y021458D01*
X002160Y021359D02*
X002260Y021359D01*
X001363Y021852D02*
X000660Y021852D01*
X000660Y021950D02*
X001390Y021950D01*
X001443Y022049D02*
X000660Y022049D01*
X000660Y022147D02*
X001530Y022147D01*
X001713Y022246D02*
X000660Y022246D01*
X006125Y021793D02*
X006125Y021793D01*
X004135Y008259D02*
X003785Y008259D01*
X003884Y008160D02*
X004036Y008160D01*
X003965Y008062D02*
X003955Y008062D01*
X003955Y007963D02*
X003965Y007963D01*
X003955Y007865D02*
X003965Y007865D01*
X003955Y007766D02*
X003965Y007766D01*
X003955Y007668D02*
X003965Y007668D01*
X003955Y007569D02*
X003965Y007569D01*
X003954Y007471D02*
X003966Y007471D01*
X004064Y007372D02*
X003856Y007372D01*
X003780Y007274D02*
X004163Y007274D01*
X004261Y007175D02*
X003780Y007175D01*
X003743Y007077D02*
X004360Y007077D01*
X035960Y002280D02*
X035962Y002334D01*
X035968Y002388D01*
X035978Y002441D01*
X035991Y002494D01*
X036008Y002545D01*
X036029Y002595D01*
X036054Y002643D01*
X036082Y002690D01*
X036113Y002734D01*
X036147Y002776D01*
X036184Y002815D01*
X036224Y002852D01*
X036267Y002885D01*
X036312Y002916D01*
X036359Y002943D01*
X036407Y002966D01*
X036458Y002986D01*
X036509Y003003D01*
X036562Y003015D01*
X036615Y003024D01*
X036669Y003029D01*
X036724Y003030D01*
X036778Y003027D01*
X036831Y003020D01*
X036884Y003009D01*
X036937Y002995D01*
X036988Y002977D01*
X037037Y002955D01*
X037085Y002930D01*
X037131Y002901D01*
X037175Y002869D01*
X037216Y002834D01*
X037254Y002796D01*
X037290Y002755D01*
X037323Y002712D01*
X037353Y002667D01*
X037379Y002619D01*
X037402Y002570D01*
X037421Y002519D01*
X037436Y002468D01*
X037448Y002415D01*
X037456Y002361D01*
X037460Y002307D01*
X037460Y002253D01*
X037456Y002199D01*
X037448Y002145D01*
X037436Y002092D01*
X037421Y002041D01*
X037402Y001990D01*
X037379Y001941D01*
X037353Y001893D01*
X037323Y001848D01*
X037290Y001805D01*
X037254Y001764D01*
X037216Y001726D01*
X037175Y001691D01*
X037131Y001659D01*
X037085Y001630D01*
X037037Y001605D01*
X036988Y001583D01*
X036937Y001565D01*
X036884Y001551D01*
X036831Y001540D01*
X036778Y001533D01*
X036724Y001530D01*
X036669Y001531D01*
X036615Y001536D01*
X036562Y001545D01*
X036509Y001557D01*
X036458Y001574D01*
X036407Y001594D01*
X036359Y001617D01*
X036312Y001644D01*
X036267Y001675D01*
X036224Y001708D01*
X036184Y001745D01*
X036147Y001784D01*
X036113Y001826D01*
X036082Y001870D01*
X036054Y001917D01*
X036029Y001965D01*
X036008Y002015D01*
X035991Y002066D01*
X035978Y002119D01*
X035968Y002172D01*
X035962Y002226D01*
X035960Y002280D01*
X035960Y020780D02*
X035962Y020834D01*
X035968Y020888D01*
X035978Y020941D01*
X035991Y020994D01*
X036008Y021045D01*
X036029Y021095D01*
X036054Y021143D01*
X036082Y021190D01*
X036113Y021234D01*
X036147Y021276D01*
X036184Y021315D01*
X036224Y021352D01*
X036267Y021385D01*
X036312Y021416D01*
X036359Y021443D01*
X036407Y021466D01*
X036458Y021486D01*
X036509Y021503D01*
X036562Y021515D01*
X036615Y021524D01*
X036669Y021529D01*
X036724Y021530D01*
X036778Y021527D01*
X036831Y021520D01*
X036884Y021509D01*
X036937Y021495D01*
X036988Y021477D01*
X037037Y021455D01*
X037085Y021430D01*
X037131Y021401D01*
X037175Y021369D01*
X037216Y021334D01*
X037254Y021296D01*
X037290Y021255D01*
X037323Y021212D01*
X037353Y021167D01*
X037379Y021119D01*
X037402Y021070D01*
X037421Y021019D01*
X037436Y020968D01*
X037448Y020915D01*
X037456Y020861D01*
X037460Y020807D01*
X037460Y020753D01*
X037456Y020699D01*
X037448Y020645D01*
X037436Y020592D01*
X037421Y020541D01*
X037402Y020490D01*
X037379Y020441D01*
X037353Y020393D01*
X037323Y020348D01*
X037290Y020305D01*
X037254Y020264D01*
X037216Y020226D01*
X037175Y020191D01*
X037131Y020159D01*
X037085Y020130D01*
X037037Y020105D01*
X036988Y020083D01*
X036937Y020065D01*
X036884Y020051D01*
X036831Y020040D01*
X036778Y020033D01*
X036724Y020030D01*
X036669Y020031D01*
X036615Y020036D01*
X036562Y020045D01*
X036509Y020057D01*
X036458Y020074D01*
X036407Y020094D01*
X036359Y020117D01*
X036312Y020144D01*
X036267Y020175D01*
X036224Y020208D01*
X036184Y020245D01*
X036147Y020284D01*
X036113Y020326D01*
X036082Y020370D01*
X036054Y020417D01*
X036029Y020465D01*
X036008Y020515D01*
X035991Y020566D01*
X035978Y020619D01*
X035968Y020672D01*
X035962Y020726D01*
X035960Y020780D01*
D11*
X011485Y015091D02*
X011485Y014886D01*
X011280Y014681D01*
X010254Y014681D01*
X011075Y014681D02*
X011075Y015296D01*
X010870Y015501D01*
X010254Y015501D01*
X010254Y016062D02*
X010254Y016677D01*
X010459Y016883D01*
X010870Y016883D01*
X011075Y016677D01*
X011075Y016062D01*
X009844Y016062D01*
X010459Y017443D02*
X010254Y017648D01*
X010254Y018059D01*
X010459Y018264D01*
X010870Y018264D01*
X011075Y018059D01*
X011075Y017648D01*
X010870Y017443D01*
X010459Y017443D01*
X010254Y018824D02*
X010049Y018824D01*
X009844Y019029D01*
X009844Y019645D01*
X011075Y019645D01*
X011075Y019029D01*
X010870Y018824D01*
X010665Y018824D01*
X010459Y019029D01*
X010459Y019645D01*
X010459Y019029D02*
X010254Y018824D01*
X009844Y014120D02*
X009844Y013505D01*
X010049Y013300D01*
X010459Y013300D01*
X010665Y013505D01*
X010665Y014120D01*
X011075Y014120D02*
X009844Y014120D01*
X010665Y013710D02*
X011075Y013300D01*
X010870Y012739D02*
X010459Y012739D01*
X010254Y012534D01*
X010254Y012124D01*
X010459Y011918D01*
X010870Y011918D01*
X011075Y012124D01*
X011075Y012534D01*
X010870Y012739D01*
X010870Y011358D02*
X010459Y011358D01*
X010254Y011153D01*
X010254Y010537D01*
X009844Y009977D02*
X011075Y009977D01*
X010665Y009977D02*
X010254Y009361D01*
X010049Y008826D02*
X009844Y008621D01*
X009844Y008210D01*
X010049Y008005D01*
X010254Y008005D01*
X010459Y008210D01*
X010665Y008005D01*
X010870Y008005D01*
X011075Y008210D01*
X011075Y008621D01*
X010870Y008826D01*
X011075Y009361D02*
X010665Y009977D01*
X011075Y010537D02*
X011075Y011153D01*
X010870Y011358D01*
X010459Y008415D02*
X010459Y008210D01*
X010049Y007445D02*
X009844Y007239D01*
X009844Y006829D01*
X010049Y006624D01*
X010870Y007445D01*
X011075Y007239D01*
X011075Y006829D01*
X010870Y006624D01*
X010049Y006624D01*
X010049Y006063D02*
X009844Y005858D01*
X009844Y005448D01*
X010049Y005243D01*
X010870Y006063D01*
X011075Y005858D01*
X011075Y005448D01*
X010870Y005243D01*
X010049Y005243D01*
X010049Y004682D02*
X009844Y004477D01*
X009844Y004067D01*
X010049Y003862D01*
X010870Y004682D01*
X011075Y004477D01*
X011075Y004067D01*
X010870Y003862D01*
X010049Y003862D01*
X010049Y004682D02*
X010870Y004682D01*
X010870Y006063D02*
X010049Y006063D01*
X010049Y007445D02*
X010870Y007445D01*
D12*
X011919Y007175D02*
X012640Y007175D01*
X012640Y006935D02*
X012640Y007416D01*
X012400Y007727D02*
X011919Y007727D01*
X012160Y007416D02*
X011919Y007175D01*
X012400Y007727D02*
X012640Y007967D01*
X012400Y008207D01*
X011919Y008207D01*
X011919Y009311D02*
X012640Y009311D01*
X012640Y009671D01*
X012520Y009791D01*
X012280Y009791D01*
X012160Y009671D01*
X012160Y009311D01*
X012160Y010091D02*
X012160Y010211D01*
X012400Y010451D01*
X012640Y010451D02*
X012160Y010451D01*
X012280Y010763D02*
X012640Y010763D01*
X012640Y011123D01*
X012520Y011243D01*
X012400Y011123D01*
X012400Y010763D01*
X012280Y010763D02*
X012160Y010883D01*
X012160Y011123D01*
X012280Y011554D02*
X012160Y011675D01*
X012160Y011915D01*
X012280Y012035D01*
X012520Y012035D01*
X012640Y011915D01*
X012640Y011675D01*
X012520Y011554D01*
X012280Y011554D01*
X012400Y012346D02*
X012520Y012346D01*
X012640Y012466D01*
X012640Y012827D01*
X011919Y012827D01*
X011919Y012466D01*
X012039Y012346D01*
X012160Y012346D01*
X012280Y012466D01*
X012280Y012827D01*
X012280Y012466D02*
X012400Y012346D01*
X012640Y013138D02*
X012640Y013499D01*
X012520Y013619D01*
X012160Y013619D01*
X012160Y013918D02*
X012160Y014038D01*
X012400Y014279D01*
X012640Y014279D02*
X012160Y014279D01*
X012280Y014590D02*
X012400Y014590D01*
X012400Y015070D01*
X012520Y015070D02*
X012280Y015070D01*
X012160Y014950D01*
X012160Y014710D01*
X012280Y014590D01*
X012640Y014710D02*
X012640Y014950D01*
X012520Y015070D01*
X012640Y015358D02*
X012520Y015478D01*
X012039Y015478D01*
X012160Y015598D02*
X012160Y015358D01*
X012160Y015886D02*
X012160Y016126D01*
X012039Y016006D02*
X012520Y016006D01*
X012640Y015886D01*
X012640Y016438D02*
X012280Y016438D01*
X012160Y016558D01*
X012160Y016798D01*
X012400Y016798D02*
X012400Y016438D01*
X012640Y016438D02*
X012640Y016798D01*
X012520Y016918D01*
X012400Y016798D01*
X012400Y017230D02*
X012280Y017350D01*
X012280Y017710D01*
X012640Y017710D02*
X011919Y017710D01*
X011919Y017350D01*
X012039Y017230D01*
X012160Y017230D01*
X012280Y017350D01*
X012400Y017230D02*
X012520Y017230D01*
X012640Y017350D01*
X012640Y017710D01*
X012880Y013378D02*
X012880Y013258D01*
X012760Y013138D01*
X012160Y013138D01*
X012520Y006624D02*
X012520Y006504D01*
X012640Y006504D01*
X012640Y006624D01*
X012520Y006624D01*
X012520Y006228D02*
X012039Y006228D01*
X011919Y006108D01*
X011919Y005867D01*
X012039Y005747D01*
X012520Y006228D01*
X012640Y006108D01*
X012640Y005867D01*
X012520Y005747D01*
X012039Y005747D01*
D13*
X004710Y004780D03*
X003210Y004780D03*
X003210Y007780D03*
X004710Y007780D03*
D14*
X002210Y007780D03*
X001210Y007780D03*
X001210Y005780D03*
X002210Y005780D03*
D15*
X002210Y012780D03*
D16*
X002210Y013780D03*
X002210Y014780D03*
D17*
X002563Y019796D02*
X001858Y019796D01*
X001858Y021764D02*
X002563Y021764D01*
X003194Y002133D02*
X003194Y001428D01*
X001226Y001428D02*
X001226Y002133D01*
D18*
X001226Y001780D02*
X001226Y005780D01*
X001210Y005780D01*
X001210Y006280D01*
X001710Y006780D01*
X002710Y006780D01*
X003210Y007280D01*
X003210Y007780D01*
X003210Y013280D01*
X002710Y013780D01*
X002210Y013780D01*
X002210Y014780D02*
X002210Y019796D01*
X002210Y014780D02*
X003710Y014780D01*
X004710Y013780D01*
X004710Y007780D01*
X002210Y007780D02*
X002210Y012780D01*
X002210Y007780D02*
X001210Y007780D01*
M02*
