G75*
%MOIN*%
%OFA0B0*%
%FSLAX24Y24*%
%IPPOS*%
%LPD*%
%AMOC8*
5,1,8,0,0,1.08239X$1,22.5*
%
%ADD10C,0.0595*%
%ADD11C,0.1360*%
%ADD12C,0.0680*%
%ADD13R,0.0480X0.0480*%
D10*
X005963Y005720D02*
X006477Y005720D01*
X006963Y006220D02*
X007477Y006220D01*
X006477Y006720D02*
X005963Y006720D01*
X006963Y007220D02*
X007477Y007220D01*
X006477Y007720D02*
X005963Y007720D01*
X006963Y008220D02*
X007477Y008220D01*
X021463Y007720D02*
X021977Y007720D01*
X022463Y008220D02*
X022977Y008220D01*
X022977Y007220D02*
X022463Y007220D01*
X021977Y006720D02*
X021463Y006720D01*
X022463Y006220D02*
X022977Y006220D01*
X021977Y005720D02*
X021463Y005720D01*
D11*
X025220Y004970D03*
X025220Y008970D03*
X003720Y008970D03*
X003720Y004970D03*
D12*
X008920Y005970D02*
X009520Y005970D01*
X009520Y006970D02*
X008920Y006970D01*
X008920Y007970D02*
X009520Y007970D01*
X014220Y009670D02*
X014220Y010270D01*
X015220Y010270D02*
X015220Y009670D01*
X016220Y009670D02*
X016220Y010270D01*
X016220Y004520D02*
X016220Y003920D01*
X017220Y003920D02*
X017220Y004520D01*
X018220Y004520D02*
X018220Y003920D01*
X019220Y003920D02*
X019220Y004520D01*
X015220Y004520D02*
X015220Y003920D01*
X014220Y003920D02*
X014220Y004520D01*
X013220Y004520D02*
X013220Y003920D01*
X012220Y003920D02*
X012220Y004520D01*
X011220Y004520D02*
X011220Y003920D01*
D13*
X008720Y001970D03*
X010720Y001970D03*
M02*
